<?xml version="1.0" encoding="utf-8"?>
<!-- Generator: Adobe Illustrator 24.0.1, SVG Export Plug-In . SVG Version: 6.00 Build 0)  -->
<svg version="1.1" id="Layer_1" xmlns="http://www.w3.org/2000/svg" xmlns:xlink="http://www.w3.org/1999/xlink" x="0px" y="0px"
	 viewBox="0 0 600 410.42" style="enable-background:new 0 0 600 410.42;" xml:space="preserve">
<style type="text/css">
	.st0{fill-rule:evenodd;clip-rule:evenodd;fill:#35D5B6;}
	.st1{opacity:0.75;fill-rule:evenodd;clip-rule:evenodd;fill:#0F5257;}
</style>
<g>
	<path class="st0" d="M45.83,106.05c-53.31,48.55-57.17,131.12-8.62,184.43l66.19,72.68c48.55,53.31,131.12,57.17,184.43,8.62
		l72.68-66.19c53.31-48.55,57.17-131.12,8.62-184.43l-66.19-72.68C254.38-4.83,171.81-8.69,118.5,39.86L45.83,106.05z M159.87,85.29
		l-72.68,66.19c-28.22,25.7-30.27,69.42-4.56,97.64l66.19,72.68c25.7,28.22,69.42,30.27,97.64,4.56l72.68-66.19
		c28.22-25.7,30.27-69.42,4.56-97.64l-66.19-72.68C231.8,61.63,188.09,59.58,159.87,85.29z"/>
	<path class="st1" d="M564.8,121.61l-48.61-53.39l-37.53,5.57l-7.09,36.67l47.82,52.51c25.7,28.22,23.66,71.94-4.56,97.64
		l-72.68,66.19c-28.22,25.7-71.94,23.66-97.64-4.56l-66.19-72.68c-25.7-28.22-23.66-71.94,4.56-97.64l63.4-57.74l-1.25,0.48
		L304.4,49.22l-62.89,57.28c-53.31,48.54-57.17,131.11-8.62,184.42l66.17,72.68c48.55,53.31,131.12,57.17,184.43,8.62l72.68-66.19
		C609.49,257.49,613.34,174.92,564.8,121.61z M439.12,78.46l5.92-34.08l39.41-8.85C447.99,5.82,398.8-1.46,356.07,14.63l49.05,53.16
		C417.01,68.3,428.77,71.88,439.12,78.46z"/>
</g>
</svg>
