<svg id="Layer_1" data-name="Layer 1" xmlns="http://www.w3.org/2000/svg" xmlns:xlink="http://www.w3.org/1999/xlink" viewBox="0 0 626.47 150.12"><defs><style>.cls-1{fill:#e6e6e6;}.cls-2{fill:url(#linear-gradient);}.cls-3{fill:url(#linear-gradient-2);}.cls-4{fill:url(#linear-gradient-3);}.cls-5{fill:url(#linear-gradient-4);}.cls-6{fill:url(#linear-gradient-5);}.cls-7{fill:url(#linear-gradient-6);}.cls-8{fill:url(#linear-gradient-7);}.cls-9{fill:url(#linear-gradient-8);}.cls-10{fill:url(#linear-gradient-9);}.cls-11{fill:url(#linear-gradient-10);}.cls-12{fill:url(#linear-gradient-11);}.cls-13{fill:url(#linear-gradient-12);}.cls-14{fill:url(#linear-gradient-13);}.cls-15{fill:url(#linear-gradient-14);}.cls-16{fill:url(#linear-gradient-15);}.cls-17{fill:url(#linear-gradient-16);}.cls-18{fill:url(#linear-gradient-17);}.cls-19{fill:url(#linear-gradient-18);}.cls-20{fill:url(#linear-gradient-19);}.cls-21{fill:url(#linear-gradient-20);}.cls-22{fill:url(#linear-gradient-21);}.cls-23{fill:url(#linear-gradient-22);}.cls-24{fill:url(#linear-gradient-23);}.cls-25{fill:url(#linear-gradient-24);}</style><linearGradient id="linear-gradient" x1="587.95" y1="-16.15" x2="477.24" y2="81.66" gradientTransform="translate(109.46 -297.83) rotate(34.29)" gradientUnits="userSpaceOnUse"><stop offset="0" stop-color="#62b34f"/><stop offset="0.46" stop-color="#51bab4"/><stop offset="1" stop-color="#0094d3"/></linearGradient><linearGradient id="linear-gradient-2" x1="584.04" y1="-20.57" x2="473.33" y2="77.24" gradientTransform="translate(106.74 -295.28) rotate(34.28)" xlink:href="#linear-gradient"/><linearGradient id="linear-gradient-3" x1="579.98" y1="-25.16" x2="469.28" y2="72.65" gradientTransform="translate(104.77 -292.56) rotate(34.37)" xlink:href="#linear-gradient"/><linearGradient id="linear-gradient-4" x1="575.71" y1="-30" x2="465.01" y2="67.81" gradientTransform="translate(104.27 -289.59) rotate(34.64)" xlink:href="#linear-gradient"/><linearGradient id="linear-gradient-5" x1="625.81" y1="26.71" x2="515.11" y2="124.52" gradientTransform="matrix(1, 0, 0, 1, 0, 0)" xlink:href="#linear-gradient"/><linearGradient id="linear-gradient-6" x1="629.33" y1="30.68" x2="518.62" y2="128.5" gradientTransform="matrix(1, 0, 0, 1, 0, 0)" xlink:href="#linear-gradient"/><linearGradient id="linear-gradient-7" x1="632.87" y1="34.69" x2="522.16" y2="132.5" gradientTransform="matrix(1, 0, 0, 1, 0, 0)" xlink:href="#linear-gradient"/><linearGradient id="linear-gradient-8" x1="636.4" y1="38.7" x2="525.7" y2="136.51" gradientTransform="matrix(1, 0, 0, 1, 0, 0)" xlink:href="#linear-gradient"/><linearGradient id="linear-gradient-9" x1="640.02" y1="42.79" x2="529.32" y2="140.6" gradientTransform="matrix(1, 0, 0, 1, 0, 0)" xlink:href="#linear-gradient"/><linearGradient id="linear-gradient-10" x1="643.76" y1="47.02" x2="533.06" y2="144.83" gradientTransform="matrix(1, 0, 0, 1, 0, 0)" xlink:href="#linear-gradient"/><linearGradient id="linear-gradient-11" x1="647.59" y1="51.36" x2="536.89" y2="149.17" gradientTransform="matrix(1, 0, 0, 1, 0, 0)" xlink:href="#linear-gradient"/><linearGradient id="linear-gradient-12" x1="651.29" y1="55.54" x2="540.59" y2="153.36" gradientTransform="matrix(1, 0, 0, 1, 0, 0)" xlink:href="#linear-gradient"/><linearGradient id="linear-gradient-13" x1="592.12" y1="-11.42" x2="481.42" y2="86.39" gradientTransform="matrix(1, 0, 0, 1, 0, 0)" xlink:href="#linear-gradient"/><linearGradient id="linear-gradient-14" x1="596" y1="-7.03" x2="485.3" y2="90.78" gradientTransform="matrix(1, 0, 0, 1, 0, 0)" xlink:href="#linear-gradient"/><linearGradient id="linear-gradient-15" x1="599.87" y1="-2.65" x2="489.17" y2="95.16" gradientTransform="matrix(1, 0, 0, 1, 0, 0)" xlink:href="#linear-gradient"/><linearGradient id="linear-gradient-16" x1="603.85" y1="1.86" x2="493.15" y2="99.67" gradientTransform="matrix(1, 0, 0, 1, 0, 0)" xlink:href="#linear-gradient"/><linearGradient id="linear-gradient-17" x1="607.56" y1="6.05" x2="496.86" y2="103.86" gradientTransform="matrix(1, 0, 0, 1, 0, 0)" xlink:href="#linear-gradient"/><linearGradient id="linear-gradient-18" x1="611.33" y1="10.32" x2="500.63" y2="108.13" gradientTransform="matrix(1, 0, 0, 1, 0, 0)" xlink:href="#linear-gradient"/><linearGradient id="linear-gradient-19" x1="615.11" y1="14.6" x2="504.41" y2="112.41" gradientTransform="matrix(1, 0, 0, 1, 0, 0)" xlink:href="#linear-gradient"/><linearGradient id="linear-gradient-20" x1="618.81" y1="18.78" x2="508.11" y2="116.59" gradientTransform="matrix(1, 0, 0, 1, 0, 0)" xlink:href="#linear-gradient"/><linearGradient id="linear-gradient-21" x1="622.31" y1="22.74" x2="511.6" y2="120.55" gradientTransform="matrix(1, 0, 0, 1, 0, 0)" xlink:href="#linear-gradient"/><linearGradient id="linear-gradient-22" x1="655.06" y1="59.81" x2="544.36" y2="157.62" gradientTransform="matrix(0.82, 0.57, -0.57, 0.82, 173.72, -314.55)" xlink:href="#linear-gradient"/><linearGradient id="linear-gradient-23" x1="658.54" y1="63.75" x2="547.84" y2="161.56" gradientTransform="translate(178.04 -313.91) rotate(34.92)" xlink:href="#linear-gradient"/><linearGradient id="linear-gradient-24" x1="662.31" y1="68.02" x2="551.61" y2="165.83" gradientTransform="translate(181.13 -315.38) rotate(34.92)" xlink:href="#linear-gradient"/></defs><path class="cls-1" d="M20.8,49.5H17.06a2.43,2.43,0,0,1-1.33-2.1A1.18,1.18,0,0,1,17,46.06c.81,0,1.38.54,1.53,1.53h2.06c-.19-2.48-1.56-3.78-3.62-3.78a3.16,3.16,0,0,0-3.4,3.36,3.34,3.34,0,0,0,.91,2.33H13.17v2.25H20.8Z"/><path class="cls-1" d="M27.33,58.24c0,1.72-.69,3.13-2.94,3.13H11a3.67,3.67,0,0,1-3.85-3.86V51.79H2.79v5.72A8,8,0,0,0,11,65.76H26a5.56,5.56,0,0,0,5.69-5.69V39.19H27.33Z"/><path class="cls-1" d="M39,66.22a3.69,3.69,0,0,1-3.86,3.85H33.31v4.39h1.87a8.07,8.07,0,0,0,8.25-8.24V47.36H39Z"/><path class="cls-1" d="M91.66,68.81a2.64,2.64,0,1,0,0,5.27,2.64,2.64,0,1,0,0-5.27Z"/><path class="cls-1" d="M109.47,59.65a1.6,1.6,0,0,1-1.6,1.72h-5v0c-.8-.11-1.71-.23-3.89-5.15C95.17,48,89.14,44.8,82.27,47.32v4c5.72-2.22,9.12,0,11.9,5.42a30.57,30.57,0,0,0,2.45,4.58h-17a2.35,2.35,0,0,1-2.44-2.48V54.61a8.2,8.2,0,0,0-8.36-8.39h-.42a8.2,8.2,0,0,0-8.36,8.39v4.28a2.35,2.35,0,0,1-2.44,2.48H54.49a1.6,1.6,0,0,1-1.6-1.72V39.19H48.5v22a4.52,4.52,0,0,0,4.58,4.58h4.54a6.17,6.17,0,0,0,5-2.41A9.88,9.88,0,0,0,69,65.64a7.31,7.31,0,0,0,5.49-2.52,6,6,0,0,0,5.12,2.64h29.68a4.49,4.49,0,0,0,4.54-4.58v-22h-4.39Zm-36.66-2.4a3.91,3.91,0,0,1-3.78,4,5.65,5.65,0,0,1-4.58-2.1V54.61a3.79,3.79,0,0,1,4-4h.42a3.79,3.79,0,0,1,4,4Z"/><rect class="cls-1" x="119.09" y="39.19" width="4.39" height="26.56"/><path class="cls-1" d="M136.91,46.25h-.42a8.17,8.17,0,0,0-8.36,8.36v2.71a8.29,8.29,0,0,0,8.09,8.4h4.62v.69c0,3.09-2.33,4.77-9.89,3.43v4.09c9.28,2.17,14.28-1.11,14.28-6.46V54.61A8.14,8.14,0,0,0,136.91,46.25Zm3.93,15.08h-4.58a4,4,0,0,1-3.74-4V54.61a3.79,3.79,0,0,1,4-4h.42a3.76,3.76,0,0,1,3.93,4Z"/><path class="cls-1" d="M162.09,43.16a2.66,2.66,0,0,0,2.63-2.63,2.65,2.65,0,1,0-2.63,2.63Z"/><path class="cls-1" d="M169.57,43.16a2.63,2.63,0,0,0,0-5.26,2.69,2.69,0,0,0-2.63,2.63A2.66,2.66,0,0,0,169.57,43.16Z"/><path class="cls-1" d="M184.33,70.07A2.66,2.66,0,1,0,187,72.7,2.69,2.69,0,0,0,184.33,70.07Z"/><path class="cls-1" d="M201.7,69.38a2.66,2.66,0,0,0,0,5.31,2.66,2.66,0,0,0,0-5.31Z"/><path class="cls-1" d="M203.41,61.18V47.67H199v12a1.61,1.61,0,0,1-1.6,1.72h-7.93c-2.22,0-2.94-1.41-2.94-3.13v-.65a9.84,9.84,0,0,0,0-1.07V47.7h-4.43l0,10.65c0,1.64-.69,3-2.9,3h-3.05a2.36,2.36,0,0,1-2.48-2.48V46.22H165a8.16,8.16,0,0,0-8.32,8.39v2.64a8.28,8.28,0,0,0,8.13,8.39,7.55,7.55,0,0,0,5.95-2.44,6.86,6.86,0,0,0,5.46,2.56h3a6.5,6.5,0,0,0,5.15-2.14,6.35,6.35,0,0,0,4.54,2.14h9.92A4.52,4.52,0,0,0,203.41,61.18Zm-34-2.06a5.57,5.57,0,0,1-4.54,2.1,3.85,3.85,0,0,1-3.74-4V54.61a3.76,3.76,0,0,1,3.93-4h4.35Z"/><path class="cls-1" d="M194.22,69.38a2.66,2.66,0,1,0,0,5.31,2.66,2.66,0,0,0,0-5.31Z"/><path class="cls-1" d="M239.78,44a2.65,2.65,0,1,0-2.67-2.67A2.67,2.67,0,0,0,239.78,44Z"/><path class="cls-1" d="M255.65,59.65A1.6,1.6,0,0,1,254,61.37H249.7V58c0-7.82-3.24-11.49-9.73-11.49-4.24,0-7.9,2.9-10.88,6.3V48.43H224.7V61.37h-6.06v-14h-4.43V66.22a3.66,3.66,0,0,1-3.82,3.85h-1.91v4.39h1.91a8.07,8.07,0,0,0,8.25-8.24v-.46h36.85A4.5,4.5,0,0,0,260,61.18v-22h-4.39Zm-10.18,1.72H229.09V57c3.4-4,6.87-6.11,10.34-6.11s6,2.06,6,7.14Z"/><rect class="cls-1" x="265.26" y="39.19" width="4.39" height="26.56"/><path class="cls-1" d="M283.08,46.25h-.42a8.17,8.17,0,0,0-8.36,8.36v2.71a8.29,8.29,0,0,0,8.1,8.4H287v.69c0,3.09-2.32,4.77-9.88,3.43v4.09c9.27,2.17,14.27-1.11,14.27-6.46V54.61A8.14,8.14,0,0,0,283.08,46.25ZM287,61.33h-4.58a4,4,0,0,1-3.74-4V54.61a3.79,3.79,0,0,1,4-4h.42a3.76,3.76,0,0,1,3.93,4Z"/><path class="cls-1" d="M315.67,43.7a2.66,2.66,0,0,0,0-5.31,2.66,2.66,0,0,0,0,5.31Z"/><path class="cls-1" d="M308.19,43.7A2.66,2.66,0,1,0,305.52,41,2.67,2.67,0,0,0,308.19,43.7Z"/><path class="cls-1" d="M311.47,46.22h-.61a8.15,8.15,0,0,0-8.17,8.13v3.24a8.08,8.08,0,0,0,8.17,8.13h.95a7.81,7.81,0,0,0,7.79-7.86V54.35A8.11,8.11,0,0,0,311.47,46.22Zm3.74,11.83A3.27,3.27,0,0,1,312,61.33h-1.11a3.78,3.78,0,0,1-3.74-3.78v-3.2a3.63,3.63,0,0,1,3.74-3.74h.61a3.63,3.63,0,0,1,3.74,3.74Z"/><path class="cls-1" d="M366.18,43.89a2.66,2.66,0,1,0-2.63-2.67A2.68,2.68,0,0,0,366.18,43.89Z"/><path class="cls-1" d="M375.23,59.65a1.6,1.6,0,0,1-1.61,1.72h-5.15v-14h-4.42V66.22a3.66,3.66,0,0,1-3.82,3.85h-1.91v4.39h1.91a8.07,8.07,0,0,0,8.24-8.24v-.46h6.6a4.5,4.5,0,0,0,4.55-4.58v-22h-4.39Z"/><rect class="cls-1" x="384.84" y="39.19" width="4.39" height="26.56"/><path class="cls-1" d="M406.82,43.16a2.66,2.66,0,0,0,2.63-2.63,2.65,2.65,0,1,0-2.63,2.63Z"/><path class="cls-1" d="M414.3,43.16a2.63,2.63,0,0,0,0-5.26,2.69,2.69,0,0,0-2.63,2.63A2.66,2.66,0,0,0,414.3,43.16Z"/><path class="cls-1" d="M432.08,41.83h-4a2.51,2.51,0,0,1-1.37-2.18A1.23,1.23,0,0,1,428,38.24a1.64,1.64,0,0,1,1.61,1.6h2.25c-.19-2.67-1.68-4-3.89-4a3.34,3.34,0,0,0-3.63,3.58,3.61,3.61,0,0,0,.92,2.45h-1.38v2.48h8.17Z"/><path class="cls-1" d="M438.79,69.31a2.65,2.65,0,1,0,2.64,2.63A2.69,2.69,0,0,0,438.79,69.31Z"/><path class="cls-1" d="M446.27,69.31a2.65,2.65,0,1,0,2.64,2.63A2.66,2.66,0,0,0,446.27,69.31Z"/><path class="cls-1" d="M460.66,46.9v2.22a6.86,6.86,0,0,0-5.27,6.68v2a5.3,5.3,0,0,0,1.34,3.55h-8.36c-2.21,0-2.94-1.41-2.94-3.13v-.65a9.84,9.84,0,0,0,0-1.07V47.7h-4.42l0,10.65c0,1.64-.68,3-2.9,3h-4.69c-2.25,0-2.94-1.41-2.94-3.13V47.7h-4.39V58.24c0,1.72-.61,3.13-2.9,3.13H421a2.36,2.36,0,0,1-2.48-2.48V46.22h-8.74a8.16,8.16,0,0,0-8.32,8.39v2.64a8.28,8.28,0,0,0,8.13,8.39,7.55,7.55,0,0,0,5.95-2.44A6.86,6.86,0,0,0,421,65.76h2.25a6.51,6.51,0,0,0,5.15-2.14,6.25,6.25,0,0,0,4.5,2.14h5.23a6.51,6.51,0,0,0,5.15-2.14,6.33,6.33,0,0,0,4.54,2.14h24.46a8.2,8.2,0,0,0,8.21-8.21V54.92C480.32,48.66,472.53,44,460.66,46.9ZM414.11,59.12a5.57,5.57,0,0,1-4.54,2.1,3.85,3.85,0,0,1-3.74-4V54.61a3.76,3.76,0,0,1,3.93-4h4.35Zm52.43,2.25h-3.82a3.81,3.81,0,0,1-3.59-3.67V56c0-2.25,1.3-3.59,3.74-3.59A3.35,3.35,0,0,1,466.54,56Zm5.61,0h-1.87V56.1a5.66,5.66,0,0,0-4.47-5.88c5.77-.57,10.12,1.68,10.23,4.7l0,2.52A3.93,3.93,0,0,1,472.15,61.37Z"/><path class="cls-1" d="M356,58.47a7.28,7.28,0,0,1-7.26,7.28H328.93a4.5,4.5,0,0,1-4.57-4.57v-22h4.38V59.66a1.6,1.6,0,0,0,1.62,1.71h18.11a3.24,3.24,0,0,0,3.17-3.48c0-2.4-1.8-3.62-4.2-3.62H336L335.16,51l6.72-11.85L346,40.72l-5.23,9.15h6.71A8.5,8.5,0,0,1,356,58.47Z"/><path class="cls-1" d="M18.86,104.45v3.48H2.79v-2.79l10.4-15.4H3.42V86.29h15v2.82L8.1,104.45Z"/><path class="cls-1" d="M23.51,95.08l-.67-2.56C28,90.37,35,90.21,35,97v10.88H31.13v-2a6.7,6.7,0,0,1-5,2.22,4.09,4.09,0,0,1-4.27-4.37c0-3.6,3.51-6.07,9.33-5.82v-.85C31.16,93.25,27.14,93.69,23.51,95.08Zm1.89,8.2c0,1.29,1.05,1.93,2.34,1.93a4.73,4.73,0,0,0,3.42-1.49v-3.61C27.24,99.7,25.4,101.76,25.4,103.28Z"/><path class="cls-1" d="M56.55,95.08l-.67-2.56C61,90.37,68,90.21,68,97v10.88H64.17v-2a6.7,6.7,0,0,1-5,2.22,4.09,4.09,0,0,1-4.27-4.37c0-3.6,3.51-6.07,9.33-5.82v-.85C64.2,93.25,60.18,93.69,56.55,95.08Zm1.89,8.2c0,1.29,1.05,1.93,2.34,1.93a4.73,4.73,0,0,0,3.42-1.49v-3.61C60.28,99.7,58.44,101.76,58.44,103.28Z"/><path class="cls-1" d="M76.6,103.78a1.46,1.46,0,0,0,1.61,1.62,6.42,6.42,0,0,0,1.43-.16V108a20,20,0,0,1-3,.25c-2.94,0-3.89-1.52-3.89-4.11V95.24h-2l.51-2.88h1.51V88.5l3.83-.94v4.8h3.23l-.51,2.88H76.6Z"/><path class="cls-1" d="M85.46,113.15H83.15a44.92,44.92,0,0,0,1.26-6.84l.07-1.14h2.84l-.12,1.11A34.16,34.16,0,0,1,85.46,113.15Z"/><path class="cls-1" d="M102.58,89.74v18.19H98.41V89.74H92.49V86.29h16v3.45Z"/><path class="cls-1" d="M113.31,95.08l-.67-2.56c5.13-2.15,12.12-2.31,12.12,4.46v10.88h-3.83v-2a6.7,6.7,0,0,1-5,2.22,4.09,4.09,0,0,1-4.27-4.37c0-3.6,3.51-6.07,9.33-5.82v-.85C121,93.25,117,93.69,113.31,95.08Zm1.9,8.2c0,1.29,1,1.93,2.34,1.93a4.7,4.7,0,0,0,3.41-1.49v-3.61C117,99.7,115.21,101.76,115.21,103.28Z"/><path class="cls-1" d="M132.54,92l2.25,3.39,1.29,2.37h0l1.37-2.43L139.66,92h4l-5.18,7.79,5.34,8.16h-4.59L137,104.57l-1.33-2.43h0l-1.33,2.46-2.15,3.33h-4.24l5.38-8.16L128,92Z"/><path class="cls-1" d="M155.25,95.08l-.66-2.56c5.12-2.15,12.11-2.31,12.11,4.46v10.88h-3.83v-2a6.68,6.68,0,0,1-5,2.22,4.09,4.09,0,0,1-4.27-4.37c0-3.6,3.51-6.07,9.33-5.82v-.85C162.91,93.25,158.89,93.69,155.25,95.08Zm1.9,8.2c0,1.29,1,1.93,2.34,1.93a4.73,4.73,0,0,0,3.42-1.49v-3.61C159,99.7,157.15,101.76,157.15,103.28Z"/><path class="cls-1" d="M170.82,107.86V92h3.82v1.46a8.3,8.3,0,0,1,5.19-1.77c3.16,0,4.78,1.83,4.78,5.15v11h-3.83V98.09c0-1.74-.79-2.72-2.59-2.72a6.2,6.2,0,0,0-3.55,1.45v11Z"/><path class="cls-1" d="M194.41,108.12c-4.17,0-6.13-3.55-6.13-8.29s2.15-8.29,6.35-8.29a5.63,5.63,0,0,1,4.12,1.8V86.16h3.79v21.7h-3.79v-1.64A6,6,0,0,1,194.41,108.12Zm1.39-13.48c-2.24,0-3.54,1.87-3.54,5.19s1.3,5.19,3.54,5.19a4.77,4.77,0,0,0,2.95-1.08V95.72A5,5,0,0,0,195.8,94.64Z"/><path class="cls-1" d="M223.29,108.24c-6.92,0-9.77-4.52-9.77-11.13S216.37,86,223.29,86a17.65,17.65,0,0,1,7.31,1.65v3.19a24.18,24.18,0,0,0-6.86-1.39c-4,0-6.05,2.6-6.05,7.69s2.09,7.65,6.05,7.65a23.91,23.91,0,0,0,6.86-1.36v3.2A17.8,17.8,0,0,1,223.29,108.24Z"/><path class="cls-1" d="M248.44,92v16h-3.83v-1.55a8.08,8.08,0,0,1-5.19,1.86c-3.19,0-4.77-1.86-4.77-5.15V92h3.83v9.84c0,1.74.79,2.72,2.59,2.72a6.38,6.38,0,0,0,3.54-1.45V92Z"/><path class="cls-1" d="M252.08,107v-2.85a14.06,14.06,0,0,0,5.5,1.33c2.37,0,3-1.14,3-1.93,0-1.26-1.52-1.74-3.26-2.37-2.25-.76-4.94-1.77-4.94-4.93S254.8,91,259.29,91a12,12,0,0,1,5.41,1.29v2.82a8.91,8.91,0,0,0-4.4-1.27c-2.5,0-3.54,1.14-3.54,2.09,0,1.33,1.71,1.83,3.61,2.53,2.21.79,4.68,1.83,4.68,4.68,0,3.32-2.82,5.22-6.68,5.22A15.37,15.37,0,0,1,252.08,107Z"/><path class="cls-1" d="M272.92,103.78a1.46,1.46,0,0,0,1.62,1.62,6.32,6.32,0,0,0,1.42-.16V108a19.94,19.94,0,0,1-3,.25c-2.95,0-3.89-1.52-3.89-4.11V95.24h-2l.51-2.88h1.52V88.5l3.82-.94v4.8h3.23l-.51,2.88h-2.72Z"/><path class="cls-1" d="M278.71,99.83c0-4.68,2.34-8.29,7.44-8.29s7.43,3.61,7.43,8.29-2.34,8.29-7.43,8.29S278.71,104.51,278.71,99.83Zm3.54,0c0,3.1,1.24,5.53,3.9,5.53s3.82-2.43,3.82-5.53-1.17-5.54-3.82-5.54S282.25,96.73,282.25,99.83Z"/><path class="cls-1" d="M320.84,96.82v11H317V98.09c0-1.74-.79-2.72-2.6-2.72a6,6,0,0,0-3.48,1.49,7.08,7.08,0,0,1,.07,1.23v9.77h-3.8V98.09c0-1.74-.79-2.72-2.59-2.72a5.79,5.79,0,0,0-3.42,1.45v11h-3.82V92h3.82V94.1a6.84,6.84,0,0,1,5.06-2.43c2.15,0,3.58.85,4.24,2.62,1.87-1.8,3.58-2.62,5.57-2.62C319.26,91.67,320.84,93.5,320.84,96.82Z"/><path class="cls-1" d="M324.48,107v-2.85a14.14,14.14,0,0,0,5.51,1.33c2.37,0,3-1.14,3-1.93,0-1.26-1.52-1.74-3.26-2.37-2.24-.76-4.93-1.77-4.93-4.93S327.2,91,331.7,91a11.92,11.92,0,0,1,5.4,1.29v2.82a8.88,8.88,0,0,0-4.39-1.27c-2.5,0-3.55,1.14-3.55,2.09,0,1.33,1.71,1.83,3.61,2.53,2.21.79,4.68,1.83,4.68,4.68,0,3.32-2.81,5.22-6.67,5.22A15.38,15.38,0,0,1,324.48,107Z"/><path class="cls-1" d="M352.79,102.71l-1.67,5.22H347l8.06-21.8h3.42l7.81,21.8h-4.24l-1.7-5.22Zm.76-3.1h6.11l-3-9.11Z"/><path class="cls-1" d="M383.19,92v16h-3.83v-1.55a8.07,8.07,0,0,1-5.18,1.86c-3.2,0-4.78-1.86-4.78-5.15V92h3.83v9.84c0,1.74.79,2.72,2.59,2.72a6.38,6.38,0,0,0,3.54-1.45V92Z"/><path class="cls-1" d="M391.8,103.78a1.45,1.45,0,0,0,1.61,1.62,6.32,6.32,0,0,0,1.42-.16V108a19.94,19.94,0,0,1-3,.25c-2.94,0-3.89-1.52-3.89-4.11V95.24h-2l.51-2.88H388V88.5l3.83-.94v4.8H395l-.5,2.88H391.8Z"/><path class="cls-1" d="M411.69,96.82v11h-3.83V98.09c0-1.77-.82-2.66-2.34-2.69a6.61,6.61,0,0,0-3.79,1.42v11H397.9V86.29h3.83v7a8.31,8.31,0,0,1,4.81-1.8C409.54,91.48,411.69,93.28,411.69,96.82Z"/><path class="cls-1" d="M415.36,99.83c0-4.68,2.34-8.29,7.44-8.29s7.43,3.61,7.43,8.29-2.34,8.29-7.43,8.29S415.36,104.51,415.36,99.83Zm3.54,0c0,3.1,1.24,5.53,3.9,5.53s3.82-2.43,3.82-5.53-1.17-5.54-3.82-5.54S418.9,96.73,418.9,99.83Z"/><path class="cls-1" d="M434,107.86V92h3.82v3A6,6,0,0,1,443.23,92v3c-2.15-.26-4.9,1.45-5.38,2.91v10Z"/><path class="cls-1" d="M445.89,88.57a2,2,0,1,1,2,2A2,2,0,0,1,445.89,88.57Zm3.95,19.29H446V92.4h3.83Z"/><path class="cls-1" d="M459.52,103.78a1.45,1.45,0,0,0,1.61,1.62,6.49,6.49,0,0,0,1.43-.16V108a20,20,0,0,1-3,.25c-2.94,0-3.89-1.52-3.89-4.11V95.24h-2l.5-2.88h1.52V88.5l3.83-.94v4.8h3.23l-.51,2.88h-2.72Z"/><path class="cls-1" d="M480.59,92l-7.69,21.64h-3.64l1.62-4.59-6.33-17h4.3l3.77,12.34,0,0L476.47,92Z"/><polygon class="cls-1" points="52.37 107.85 47.88 107.85 42.83 100.53 42.83 107.85 39.01 107.85 39.01 86.29 42.83 86.29 42.83 98.57 47.6 91.62 51.89 91.62 46.18 99.31 52.37 107.85"/><rect class="cls-2" x="504.17" y="27.85" width="66.53" height="1.26" transform="translate(77.36 307.73) rotate(-34.29)"/><rect class="cls-3" x="505.36" y="24.76" width="53.31" height="1.26" transform="translate(78.14 304.1) rotate(-34.28)"/><rect class="cls-4" x="506.79" y="22.47" width="37.13" height="1.26" transform="translate(78.69 300.62) rotate(-34.37)"/><rect class="cls-5" x="508.71" y="21.75" width="15.45" height="1.26" transform="translate(78.83 297.52) rotate(-34.64)"/><polygon class="cls-6" points="592.85 57.63 592.84 57.62 583.93 63.7 583.94 63.71 538.1 94.96 539.05 96.35 532.82 100.7 533.31 101.4 520.05 110.65 520.77 111.69 535.4 101.47 535.4 101.47 540.23 98.09 540.23 98.09 586.79 66.34 585.83 64.94 594.03 59.35 593.56 58.67 623.47 38.28 622.76 37.24 592.85 57.63"/><polygon class="cls-7" points="595.38 62.68 595.38 62.67 585.84 69.17 585.85 69.18 541.49 99.43 542.43 100.81 535.76 105.46 536.23 106.13 523.23 115.23 523.96 116.26 536.95 107.17 536.96 107.18 543.61 102.54 543.62 102.55 588.13 72.2 587.17 70.81 596.56 64.41 596.09 63.72 623.43 45.08 622.72 44.04 595.38 62.68"/><polygon class="cls-8" points="597.82 67.8 597.81 67.79 589.92 73.17 589.92 73.18 544.64 104.05 545.58 105.43 539.47 109.7 539.94 110.37 526.81 119.57 527.53 120.6 540.66 111.4 540.67 111.42 546.76 107.17 546.77 107.18 592.07 76.29 591.12 74.9 598.99 69.53 598.53 68.84 623.39 51.89 622.68 50.85 597.82 67.8"/><polygon class="cls-9" points="601.54 72.04 601.54 72.03 593.71 77.36 593.72 77.38 547.93 108.46 548.9 109.88 541.09 115.33 541.57 116.02 530.73 123.6 531.46 124.63 543.84 115.98 543.84 115.97 552.16 110.16 596.25 80.23 595.3 78.82 602.72 73.76 602.25 73.08 623.35 58.7 622.64 57.66 601.54 72.04"/><polygon class="cls-10" points="606.14 75.67 606.13 75.65 597.57 81.49 597.57 81.5 557.85 108.59 558.79 109.96 549.4 116.53 549.88 117.22 535.21 127.47 535.93 128.5 551.9 117.34 551.9 117.34 559.97 111.7 559.98 111.71 599.94 84.46 598.99 83.06 607.31 77.39 606.85 76.71 623.31 65.48 622.6 64.44 606.14 75.67"/><polygon class="cls-11" points="616.32 76 616.09 75.65 606.04 82.5 606.04 82.5 567.59 108.72 568.55 110.12 558.19 117.36 558.67 118.05 540.49 130.76 541.21 131.79 560.67 118.19 560.67 118.19 570.68 111.19 608.17 85.63 607.22 84.24 617.27 77.39 616.68 76.52 617.04 77.04 623.28 72.63 622.55 71.6 616.32 76"/><polygon class="cls-12" points="616.49 82.17 616.49 82.15 610.83 86.01 610.82 86.01 588.21 101.43 589.17 102.83 579.6 109.52 580.08 110.21 545.59 134.32 546.31 135.35 582.16 110.29 582.16 110.29 590.55 104.43 590.54 104.42 612.95 89.14 612.01 87.75 617.67 83.89 617.2 83.21 623.13 79.17 622.42 78.13 616.49 82.17"/><polygon class="cls-13" points="617.62 88.42 617.5 88.25 612.17 91.88 612.16 91.88 594.21 104.11 595.16 105.51 586.81 111.35 587.29 112.05 550.94 137.45 551.66 138.48 589.87 111.78 589.87 111.77 597.21 106.65 614.29 95 613.35 93.62 618.68 89.98 618.09 89.12 622.16 86.34 621.69 85.65 617.62 88.42"/><polygon class="cls-14" points="514.66 54.66 514.66 54.66 519.77 51.09 519.77 51.09 539.09 37.92 538.14 36.53 546.63 30.75 546.17 30.07 574.77 10.56 574.06 9.52 545.46 29.02 545.45 29.01 536.96 34.8 536.96 34.79 516.5 48.74 517.46 50.14 512.6 53.53 513.09 54.22 509.54 56.71 510.26 57.74 514.66 54.66"/><polygon class="cls-15" points="517.87 59.25 517.87 59.24 522.91 55.72 546.79 39.43 545.85 38.05 552.44 33.55 552 32.91 583.13 11.49 582.41 10.46 551.29 31.87 551.26 31.82 544.67 36.31 544.67 36.31 519.26 53.63 520.22 55.04 515.85 58.09 516.33 58.78 509.49 63.56 510.22 64.59 517.87 59.25"/><polygon class="cls-16" points="519 65.27 519 65.27 525.7 60.59 551.7 42.86 550.73 41.44 557.72 36.67 557.28 36.02 590.85 12.92 590.13 11.88 556.57 34.98 556.54 34.94 549.25 39.91 549.27 39.94 522.02 58.52 522.98 59.93 517.09 64.05 517.57 64.74 509.45 70.41 510.18 71.44 519 65.27"/><polygon class="cls-17" points="521.68 70.23 521.68 70.23 528.98 65.13 556.61 46.29 555.66 44.89 563.03 39.86 562.54 39.14 598.49 14.9 597.79 13.86 561.35 38.42 561.37 38.45 554.45 43.18 554.45 43.18 524.77 63.42 525.74 64.83 518.96 69.57 519.44 70.26 509.5 77.2 510.22 78.24 521.68 70.23"/><polygon class="cls-18" points="524.95 74.72 529.66 71.43 529.66 71.44 561.51 49.71 560.56 48.32 568.8 42.7 568.34 42.02 604.49 17.37 603.78 16.33 567.63 40.98 567.62 40.97 559.33 46.62 559.33 46.63 527.53 68.31 528.47 69.7 522.39 73.95 522.88 74.65 510.08 83.57 510.81 84.6 524.96 74.73 524.95 74.72"/><polygon class="cls-19" points="528.12 79.34 533.49 75.59 566.42 53.14 565.47 51.75 574.59 45.53 574.12 44.85 611.26 19.52 610.55 18.48 573.41 43.81 573.4 43.79 563.74 50.38 563.74 50.39 530.28 73.2 531.24 74.61 525.5 78.62 525.98 79.31 511.21 89.63 511.93 90.66 528.13 79.35 528.12 79.34"/><polygon class="cls-20" points="529.04 85.54 536.74 80.16 575.61 53.81 574.65 52.4 583.25 46.54 582.78 45.86 617.27 22.34 616.56 21.29 582.07 44.81 582.06 44.8 573.2 50.85 573.21 50.87 532.84 78.23 533.8 79.65 526.6 84.68 527.09 85.37 512.81 95.34 513.53 96.38 529.04 85.55 529.04 85.54"/><polygon class="cls-21" points="529.99 91.64 536.81 86.88 579.01 58.1 578.07 56.72 586.71 50.84 586.24 50.15 622.73 25.27 622.02 24.23 585.53 49.11 585.52 49.1 576.89 54.99 576.88 54.98 533.74 84.4 534.69 85.8 527.39 90.9 527.87 91.59 514.83 100.7 515.55 101.74 530 91.64 529.99 91.64"/><polygon class="cls-22" points="531.33 97.47 537.11 93.44 537.12 93.44 582.16 62.73 581.22 61.34 589.46 55.72 588.99 55.04 623.51 31.5 622.8 30.46 588.28 54 588.27 53.98 580.03 59.6 580.03 59.6 534.98 90.32 535.93 91.7 529.12 96.46 529.63 97.18 517.22 105.77 517.94 106.8 531.36 97.51 531.33 97.47"/><rect class="cls-23" x="549.72" y="118.7" width="75.95" height="1.26" transform="translate(37.29 357.39) rotate(-34.87)"/><rect class="cls-24" x="556.01" y="125.43" width="64.01" height="1.26" transform="matrix(0.82, -0.57, 0.57, 0.82, 33.72, 359.31)"/><rect class="cls-25" x="577.84" y="129.61" width="28.12" height="1.26" transform="matrix(0.82, -0.57, 0.57, 0.82, 32.02, 362.28)"/></svg>