<?xml version="1.0" encoding="utf-8"?>
<!-- Generator: Adobe Illustrator 26.0.3, SVG Export Plug-In . SVG Version: 6.00 Build 0)  -->
<svg version="1.1" id="Layer_1" xmlns="http://www.w3.org/2000/svg" xmlns:xlink="http://www.w3.org/1999/xlink" x="0px" y="0px"
	 viewBox="0 0 710.8 425.4" style="enable-background:new 0 0 710.8 425.4;" xml:space="preserve">
<style type="text/css">
	.st0{fill:#006837;}
	.st1{fill:#D1D3D4;}
	.st2{fill:#FFFFFF;}
	.st3{fill:#375A64;}
	.st4{fill:url(#SVGID_1_);}
	.st5{opacity:0.3;}
	.st6{opacity:0.2;fill:#FFFFFF;enable-background:new    ;}
	.st7{opacity:0.15;}
	.st8{fill:#FFBDA7;}
	.st9{fill:#263238;}
	.st10{fill:#F0997A;}
	.st11{fill:#37474F;}
	.st12{fill:#E0E0E0;}
	.st13{fill:#B16668;}
	.st14{fill:#F28F8F;}
	.st15{fill:#455A64;}
	.st16{fill:#FAFAFA;}
	.st17{fill:#C8856A;}
	.st18{fill:#AF6152;}
	.st19{opacity:0.15;enable-background:new    ;}
	.st20{opacity:5.000000e-02;}
	.st21{fill:#FFA8A7;}
	.st22{opacity:0.4;enable-background:new    ;}
	.st23{opacity:0.2;}
	.st24{fill:#9A4A4D;}
	.st25{opacity:0.85;fill:#FFFFFF;enable-background:new    ;}
	.st26{fill:url(#shape_3_00000062888740631256653400000011407015219356302234_);}
	.st27{fill:url(#SVGID_00000095326988347722053150000001114892404440724139_);}
	.st28{fill-rule:evenodd;clip-rule:evenodd;fill:#FFFFFF;}
	.st29{fill:url(#shape_3-2_00000016055793326152195930000009677984489596981669_);}
	.st30{fill:url(#SVGID_00000073687112984131539540000017360400490140744617_);}
	.st31{fill:url(#shape_3-3_00000013874949214829254120000003377321288570081961_);}
	.st32{fill:url(#SVGID_00000057845802443556321740000004626841361282145458_);}
</style>
<g>
	<g id="Layer_1_00000098920457583515676460000013949640329987426484_">
		<path class="st0" d="M14.8,0H696c8.2,0,14.8,6.6,14.8,14.8v395.8c0,8.2-6.6,14.8-14.8,14.8H14.8c-8.2,0-14.8-6.6-14.8-14.8V14.8
			C0,6.6,6.6,0,14.8,0z"/>
		<g id="freepik--Icons--inject-17">
			<g id="freepik--icons--inject-17-2">
				<path class="st1" d="M182.1,150.3c-7.4,0-13.3-6-13.3-13.3s6-13.3,13.3-13.3c7.3,0,13.3,6,13.3,13.3
					C195.5,144.3,189.5,150.3,182.1,150.3C182.1,150.3,182.1,150.3,182.1,150.3L182.1,150.3z M182.1,124.3c-7,0-12.7,5.7-12.7,12.7
					c0,7,5.7,12.7,12.7,12.7c7,0,12.7-5.7,12.7-12.7c0,0,0,0,0,0C194.9,130,189.2,124.2,182.1,124.3
					C182.1,124.2,182.1,124.2,182.1,124.3L182.1,124.3z"/>
				<path id="freepik--musical-note--inject-17" class="st1" d="M178.6,129.9l-1.8,8.2c-0.2-0.1-0.5-0.2-0.7-0.3
					c-1.2-0.2-2.3,0.6-2.5,1.8c-0.2,1.1,0.5,2.2,1.6,2.5c1.2,0.2,2.4-0.5,2.6-1.7l1.6-7.4l7.8-0.4l0,0l-1.6,7.3
					c-1-0.6-2.4-0.3-3,0.7c-0.1,0.2-0.2,0.5-0.3,0.7c-0.2,1.2,0.6,2.3,1.8,2.6c1.1,0.2,2.2-0.5,2.5-1.6l0,0l2.6-12.2L178.6,129.9z"
					/>
				<path class="st1" d="M453.6,166.3c-4.7,0-8.5-3.8-8.5-8.5c0-4.7,3.8-8.5,8.5-8.5c4.7,0,8.5,3.8,8.5,8.5c0,0,0,0,0,0
					C462.1,162.5,458.3,166.3,453.6,166.3z M453.6,149.9c-4.4,0-7.9,3.6-7.9,7.9c0,4.4,3.6,7.9,7.9,7.9c4.4,0,7.9-3.5,7.9-7.9
					C461.5,153.5,458,149.9,453.6,149.9C453.6,149.9,453.6,149.9,453.6,149.9z"/>
				<path id="freepik--Pin--inject-17" class="st1" d="M453.6,152.3c-2.1,0-3.9,1.7-3.9,3.9c0,3.7,3.9,7.1,3.9,7.1s3.9-3.4,3.9-7.1
					C457.5,154.1,455.8,152.3,453.6,152.3L453.6,152.3z M453.6,157.8c-1,0-1.9-0.8-1.9-1.9c0-1,0.8-1.9,1.9-1.9c1,0,1.9,0.8,1.9,1.9
					c0,0,0,0,0,0l0,0C455.5,156.9,454.7,157.8,453.6,157.8L453.6,157.8L453.6,157.8z"/>
				<path class="st1" d="M296.9,364.5c-8.2,0-14.8-6.6-14.8-14.8c0-8.2,6.6-14.8,14.8-14.8c8.2,0,14.8,6.6,14.8,14.8c0,0,0,0,0,0
					C311.7,357.9,305.1,364.5,296.9,364.5C296.9,364.5,296.9,364.5,296.9,364.5z M296.9,335.5c-7.8,0-14.2,6.4-14.2,14.2
					s6.4,14.2,14.2,14.2c7.8,0,14.2-6.4,14.2-14.2c0,0,0,0,0,0C311.1,341.9,304.8,335.5,296.9,335.5
					C296.9,335.5,296.9,335.5,296.9,335.5z"/>
				<path class="st1" d="M305.2,342.9h-16.5c-0.7,0-1.3,0.5-1.3,1.2c0,0,0,0,0,0l0,0v10.1c0,0.7,0.5,1.3,1.2,1.3h6.2l1.6,3.3
					c0.1,0.3,0.4,0.4,0.7,0.2c0,0,0,0,0,0c0.1-0.1,0.2-0.1,0.2-0.2l1.6-3.3h6.1c0.7,0,1.2-0.6,1.2-1.2v-10.1
					C306.5,343.5,305.9,342.9,305.2,342.9C305.2,342.9,305.2,342.9,305.2,342.9L305.2,342.9z M298.2,352.6l-1.3,0.8l-1.3-0.8
					c-1-0.6-3.6-2.3-3.6-4.8c0-1.4,1.2-2.4,2.5-2.4c1.2,0,2.2,0.9,2.4,2.1c0.2-1.3,1.4-2.3,2.7-2.1c1.2,0.2,2.1,1.2,2.1,2.4
					C301.8,350.3,299.2,352,298.2,352.6z"/>
				<path class="st1" d="M340.8,106c-7.5,0-13.5-6.1-13.5-13.5c0-7.5,6.1-13.5,13.5-13.5c7.5,0,13.5,6.1,13.5,13.5
					C354.3,99.9,348.2,106,340.8,106L340.8,106z M340.8,79.5c-7.2,0-13,5.8-13,13s5.8,13,13,13s13-5.8,13-13
					C353.8,85.3,348,79.5,340.8,79.5C340.8,79.5,340.8,79.5,340.8,79.5L340.8,79.5z"/>
				<path class="st1" d="M345.5,92.8H336c-1.3,0-2.4,1-2.6,2.2l-0.6,4c2.4,5.4,13.4,5.4,15.8,0l-0.6-4
					C347.9,93.7,346.8,92.8,345.5,92.8z"/>
				<circle class="st1" cx="340.8" cy="86.6" r="4.5"/>
				<path class="st1" d="M508.1,148c-8.3,0-15-6.6-15-14.9c0-8.3,6.6-15,14.9-15c8.3,0,15,6.6,15,14.9l0,0
					C523,141.2,516.3,147.9,508.1,148z M508.1,118.7c-7.9,0-14.4,6.4-14.4,14.4s6.4,14.4,14.4,14.4c7.9,0,14.4-6.4,14.4-14.3l0,0
					C522.5,125.1,516,118.7,508.1,118.7L508.1,118.7z"/>
				<path class="st1" d="M520,135.5c0,1.5-1.2,2.7-2.7,2.7h-7.5v-3.1h2.1l-3.8-4.6l-3.8,4.6h2.1v3.1H499c-1.5-0.2-2.6-1.5-2.4-3.1
					c0.2-1.3,1.1-2.2,2.4-2.4h0.8v-0.5c0-2.4,2-4.4,4.4-4.4c0,0,0,0,0,0l0,0c0.9,0,1.7,0.3,2.4,0.8c0.9-2.6,3.7-4.1,6.3-3.2
					c2,0.7,3.4,2.5,3.4,4.7v2.7h0.8C518.7,132.8,520,134,520,135.5z"/>
				<path class="st1" d="M374.7,364.6c-5.8,0-10.4-4.7-10.4-10.4s4.7-10.4,10.4-10.4c5.8,0,10.4,4.7,10.4,10.4
					C385.2,359.9,380.5,364.6,374.7,364.6C374.7,364.6,374.7,364.6,374.7,364.6z M374.7,344.3c-5.4,0-9.8,4.4-9.8,9.8
					s4.4,9.8,9.8,9.8s9.8-4.4,9.8-9.8l0,0C384.6,348.7,380.2,344.3,374.7,344.3z"/>
				<path class="st1" d="M375.6,361h-1.9c-0.4,0-0.7-0.3-0.7-0.7c0,0,0,0,0,0v-0.9c-0.4-0.1-0.8-0.2-1.1-0.4c-0.4-0.2-0.7-0.4-1-0.7
					c-0.3-0.3-0.5-0.6-0.7-0.9c-0.2-0.3-0.2-0.7-0.3-1c0-0.2,0.1-0.3,0.2-0.5c0.1-0.1,0.3-0.2,0.4-0.2h1.9c0.1,0,0.3,0,0.4,0.1
					c0.1,0.1,0.2,0.1,0.3,0.2l0.2,0.2c0.1,0.1,0.2,0.2,0.3,0.2c0.1,0.1,0.3,0.2,0.4,0.2c0.2,0.1,0.4,0.1,0.6,0.1
					c0.4,0,0.8,0,1.2-0.1c0.3-0.1,0.3-0.2,0.3-0.3c0-0.1,0-0.1-0.1-0.1c-0.1-0.1-0.3-0.2-0.5-0.2c-0.3-0.1-0.6-0.2-1-0.2
					s-0.9-0.2-1.4-0.3c-0.9-0.1-1.7-0.5-2.3-1.2c-0.5-0.6-0.8-1.4-0.8-2.2c0-0.4,0.1-0.7,0.2-1.1c0.1-0.4,0.3-0.7,0.6-1
					c0.3-0.3,0.6-0.6,1-0.8c0.3-0.2,0.7-0.3,1-0.4v-0.9c0-0.4,0.3-0.7,0.7-0.7h1.9c0.2,0,0.4,0.1,0.5,0.2c0.1,0.1,0.2,0.3,0.2,0.5
					v0.9c0.8,0.2,1.4,0.6,2,1.1c0.3,0.3,0.5,0.5,0.6,0.9c0.2,0.3,0.2,0.6,0.3,0.9c0,0.2-0.1,0.3-0.2,0.4c-0.1,0.1-0.3,0.2-0.4,0.2
					h-1.9c-0.2,0-0.3,0-0.5-0.1c-0.1-0.1-0.2-0.1-0.3-0.2c0,0-0.1-0.1-0.2-0.2c-0.1-0.1-0.1-0.1-0.2-0.2c-0.1-0.1-0.2-0.1-0.4-0.2
					c-0.3-0.1-0.7-0.1-1.1,0c-0.1,0-0.3,0-0.4,0.1c-0.1,0-0.2,0.1-0.2,0.1c0,0-0.1,0.1-0.1,0.2c0,0.1,0,0.1,0.1,0.2
					c0.1,0.1,0.2,0.2,0.4,0.2c0.3,0.1,0.5,0.2,0.8,0.2l1.3,0.3c0.5,0.1,1,0.2,1.5,0.4c0.4,0.2,0.8,0.4,1.1,0.7
					c0.3,0.3,0.5,0.6,0.7,1c0.2,0.4,0.2,0.9,0.2,1.3c0,0.4-0.1,0.8-0.3,1.2c-0.2,0.4-0.4,0.7-0.7,1c-0.3,0.3-0.7,0.5-1.1,0.7
					c-0.4,0.2-0.8,0.3-1.1,0.4v0.8C376.4,360.7,376,361,375.6,361L375.6,361z M370.5,356.3c0,0.3,0.1,0.5,0.2,0.8
					c0.1,0.3,0.3,0.6,0.6,0.8c0.3,0.2,0.6,0.5,0.9,0.6c0.4,0.2,0.8,0.3,1.2,0.4h0.2v1.4c0,0,0,0,0.1,0h1.9c0.1,0,0.1,0,0.1-0.1V359
					h0.2c0.4-0.1,0.9-0.2,1.2-0.4c0.3-0.2,0.7-0.4,0.9-0.6c0.5-0.5,0.8-1.1,0.8-1.8c0-0.4,0-0.7-0.2-1.1c-0.1-0.3-0.3-0.6-0.5-0.8
					c-0.3-0.2-0.6-0.4-0.9-0.6c-0.4-0.2-0.9-0.3-1.4-0.4l-1.4-0.3c-0.3-0.1-0.6-0.1-0.9-0.3c-0.2-0.1-0.4-0.2-0.6-0.3
					c-0.3-0.3-0.3-0.8,0-1.1c0.1-0.1,0.3-0.2,0.4-0.3c0.2-0.1,0.3-0.1,0.5-0.1c0.4-0.1,0.9,0,1.3,0.1c0.2,0.1,0.4,0.1,0.5,0.2
					c0.1,0.1,0.2,0.2,0.3,0.3l0.1,0.1l0.2,0.1c0.1,0,0.1,0,0.2,0h1.9c0-0.2-0.1-0.5-0.2-0.7c-0.1-0.3-0.3-0.5-0.5-0.7
					c-0.3-0.2-0.5-0.4-0.9-0.6c-0.4-0.2-0.7-0.3-1.1-0.4h-0.2V348c0,0,0,0,0-0.1h-2.1c0,0,0,0,0,0.1v1.3h-0.3
					c-0.4,0.1-0.8,0.2-1.1,0.4c-0.3,0.2-0.5,0.4-0.8,0.6c-0.2,0.2-0.4,0.5-0.5,0.8c-0.1,0.3-0.2,0.6-0.2,0.9c0,0.7,0.2,1.3,0.6,1.8
					c0.6,0.5,1.2,0.9,2,1l1.4,0.3c0.3,0.1,0.7,0.1,1,0.2c0.2,0.1,0.5,0.2,0.7,0.3c0.2,0.1,0.3,0.4,0.3,0.6c0,0.4-0.3,0.8-0.7,0.9
					c-0.5,0.1-0.9,0.2-1.4,0.2c-0.5,0-1-0.1-1.4-0.4c-0.1-0.1-0.2-0.2-0.4-0.3l-0.2-0.2l-0.1-0.1L370.5,356.3L370.5,356.3z"/>
				<path class="st1" d="M464.6,294.9c-6,0-10.9-4.9-10.9-10.9c0-6,4.9-10.9,10.9-10.9c6,0,10.9,4.9,10.9,10.9c0,0,0,0,0,0l0,0
					C475.5,290,470.6,294.9,464.6,294.9z M464.6,273.8c-5.7,0-10.3,4.6-10.3,10.3s4.6,10.3,10.3,10.3c5.7,0,10.2-4.6,10.3-10.2
					C474.9,278.4,470.3,273.8,464.6,273.8C464.7,273.8,464.7,273.8,464.6,273.8z"/>
				<path class="st1" d="M469.4,283.2l-6.9-3.7c-0.5-0.2-1-0.1-1.3,0.4c-0.1,0.1-0.1,0.3-0.1,0.5v7.3c0,0.6,0.4,1,1,1
					c0.2,0,0.3,0,0.5-0.1l6.9-3.7c0.5-0.3,0.6-0.8,0.4-1.3C469.8,283.4,469.6,283.3,469.4,283.2z"/>
				<path class="st1" d="M176.6,302c-4.7,0-8.4-3.8-8.4-8.4s3.8-8.4,8.4-8.4s8.4,3.8,8.4,8.4c0,0,0,0,0,0l0,0
					C185,298.2,181.2,302,176.6,302C176.6,302,176.6,302,176.6,302z M176.6,285.8c-4.3,0-7.8,3.5-7.8,7.8c0,4.3,3.5,7.8,7.8,7.9
					c4.3,0,7.8-3.5,7.9-7.8c0,0,0,0,0,0l0,0C184.4,289.3,180.9,285.7,176.6,285.8C176.6,285.7,176.6,285.7,176.6,285.8L176.6,285.8z
					"/>
				<path class="st1" d="M181.9,292.1c0.1,0,0.1-0.1,0.1-0.1c-0.1-0.3-0.2-0.6-0.4-0.9c-0.1-0.3-0.3-0.6-0.5-0.8c0,0-0.1,0-0.2,0
					c0,0,0,0,0,0l-0.9,0.4c-0.3-0.4-0.7-0.7-1.1-1l0.3-0.9c0-0.1,0-0.1-0.1-0.1c-0.6-0.3-1.2-0.5-1.8-0.6c-0.1,0-0.1,0-0.1,0.1
					L177,289c-0.5-0.1-1,0-1.5,0.1l-0.4-0.8c0-0.1-0.1-0.1-0.2-0.1c-0.3,0.1-0.6,0.2-0.9,0.4c-0.3,0.1-0.5,0.3-0.8,0.5
					c0,0,0,0.1,0,0.2c0,0,0,0,0,0l0.4,0.9c-0.4,0.3-0.7,0.7-1,1.1l-0.9-0.3c-0.1,0-0.1,0-0.1,0.1c-0.3,0.6-0.5,1.2-0.6,1.8
					c0,0.1,0,0.1,0.1,0.1l0.9,0.3c-0.1,0.5,0,1,0.1,1.5l-0.8,0.4c-0.1,0-0.1,0.1-0.1,0.1c0.1,0.3,0.2,0.6,0.4,0.9
					c0.1,0.3,0.3,0.6,0.5,0.8c0,0,0.1,0,0.2,0l0.8-0.4c0.3,0.4,0.7,0.7,1.1,1l-0.3,0.9c0,0.1,0,0.1,0.1,0.2c0.6,0.3,1.2,0.5,1.8,0.6
					c0.1,0,0.1,0,0.1-0.1c0,0,0,0,0,0l0.3-0.9c0.5,0,0.9,0,1.4-0.1l0.4,0.8c0,0.1,0.1,0.1,0.1,0.1c0.3-0.1,0.6-0.2,0.9-0.4
					c0.3-0.1,0.6-0.3,0.8-0.5c0,0,0-0.1,0-0.2l-0.4-0.8c0.4-0.3,0.7-0.7,1-1.1l0.9,0.3c0.1,0,0.1,0,0.2-0.1c0.3-0.6,0.5-1.2,0.6-1.8
					c0-0.1,0-0.1-0.1-0.1l-0.9-0.3c0.1-0.5,0-1-0.1-1.5L181.9,292.1z M178.4,295.5c-1.1,1-2.7,1-3.7-0.1c0,0,0,0,0,0
					c-0.4-0.4-0.6-1-0.7-1.5c-0.1-0.8,0.2-1.6,0.8-2.2c1.1-1,2.8-1,3.8,0.1c0.4,0.4,0.6,1,0.7,1.5
					C179.3,294.1,179,294.9,178.4,295.5z"/>
				<path class="st1" d="M303.1,63.5c-5.3,0-9.5-4.2-9.5-9.5s4.2-9.5,9.5-9.5s9.5,4.2,9.5,9.5c0,0,0,0,0,0l0,0
					C312.6,59.2,308.3,63.5,303.1,63.5z M303.1,45.1c-4.9,0-8.9,4-8.9,8.9s4,8.9,8.9,8.9c4.9,0,8.9-4,8.9-8.9c0,0,0,0,0,0
					C312,49.1,308,45.1,303.1,45.1C303.1,45.1,303.1,45.1,303.1,45.1L303.1,45.1z"/>
				<g id="freepik--Like--inject-17">
					<path class="st1" d="M300.7,53c0,0,1-2.3,1-2.7c-0.1-0.7-0.2-1.4-0.4-2.1c-0.1-0.3,1.2-0.6,1.8,0.2c0.6,0.8,0.8,1.7,0.8,2.6
						l3.1-0.6c0.5-0.1,1,0.3,1.1,0.8c0.1,0.4,0,0.7-0.3,1c0.4,0,0.7,0.3,0.8,0.7c0.1,0.4-0.1,0.8-0.5,1c0.2,0.2,0.3,0.4,0.4,0.7
						c0,0.5-0.2,0.9-0.7,1.1c0.1,0.2,0.2,0.4,0.3,0.7c0.1,0.6-0.4,1.1-0.9,1.2l-5.1,1L300.7,53z"/>
					
						<rect x="298.3" y="53.1" transform="matrix(0.9791 -0.2033 0.2033 0.9791 -5.2367 62.0631)" class="st1" width="2.3" height="6.8"/>
				</g>
				<path class="st1" d="M215.1,273.9c-6.9,0-12.5-5.6-12.6-12.5c0-6.9,5.6-12.5,12.5-12.5s12.5,5.6,12.6,12.5c0,0,0,0,0,0l0,0
					C227.7,268.3,222.1,273.9,215.1,273.9z M215.1,249.4c-6.6,0-12,5.3-12,11.9c0,6.6,5.3,12,11.9,12s12-5.3,12-11.9c0,0,0,0,0,0
					l0,0C227.1,254.8,221.8,249.4,215.1,249.4L215.1,249.4z"/>
				<polygon class="st1" points="223.1,256.2 207.2,256.2 215.1,261.7 				"/>
				<polygon class="st1" points="223.9,265.8 223.9,256.9 218.7,260.7 217.7,261.4 215.1,263.2 212.6,261.4 207.3,266.5 223,266.5 
					217.8,261.5 218.8,260.8 				"/>
				<polygon class="st1" points="211.6,260.6 206.3,256.9 206.3,265.8 211.5,260.8 212.4,261.5 212.6,261.4 211.6,260.6 				"/>
				<path class="st1" d="M510.5,295.8c-4.6,0-8.3-3.7-8.3-8.3c0-4.6,3.7-8.3,8.3-8.3c4.6,0,8.3,3.7,8.3,8.3c0,0,0,0,0,0l0,0
					C518.8,292,515.1,295.7,510.5,295.8C510.5,295.8,510.5,295.8,510.5,295.8z M510.5,279.8c-4.2,0-7.7,3.4-7.7,7.7s3.4,7.7,7.7,7.7
					c4.2,0,7.7-3.4,7.7-7.7l0,0C518.2,283.3,514.8,279.8,510.5,279.8z"/>
				<path class="st1" d="M512.2,290.4c0,0.9-0.8,1.7-1.7,1.7c-0.9,0-1.7-0.8-1.7-1.7c0-0.9,0.8-1.7,1.7-1.7c0,0,0,0,0,0l0,0
					C511.5,288.7,512.2,289.4,512.2,290.4z"/>
				<path class="st1" d="M510.5,285.9c-1.7,0-3.2,0.9-4,2.4c-0.2,0.3-0.1,0.6,0.2,0.9l0,0c0.3,0.2,0.7,0.2,0.9-0.1c0,0,0,0,0,0
					c0,0,0.1-0.1,0.1-0.1c0.8-1.5,2.7-2.1,4.3-1.3c0.6,0.3,1,0.8,1.3,1.3c0.2,0.3,0.6,0.4,0.9,0.3l0.1-0.1l0,0
					c0.3-0.2,0.3-0.6,0.2-0.9C513.7,286.8,512.2,285.9,510.5,285.9z"/>
				<path class="st1" d="M510.5,283.1c-2.5,0-4.8,1.3-6.1,3.4c-0.2,0.3-0.1,0.7,0.1,0.9l0,0c0.3,0.2,0.7,0.2,0.9-0.1v-0.1
					c1.7-2.8,5.4-3.6,8.1-1.9c0.8,0.5,1.4,1.1,1.9,1.9c0.2,0.3,0.6,0.4,0.9,0.2h0.1l0,0c0.3-0.2,0.3-0.6,0.1-0.9
					C515.3,284.4,513,283.1,510.5,283.1z"/>
				<path class="st1" d="M340.8,406.5c-4.7,0-8.5-3.8-8.5-8.5s3.8-8.5,8.5-8.5s8.5,3.8,8.5,8.5l0,0
					C349.3,402.7,345.5,406.5,340.8,406.5C340.8,406.5,340.8,406.5,340.8,406.5z M340.8,390.1c-4.4,0-7.9,3.5-7.9,7.9
					s3.5,7.9,7.9,7.9s7.9-3.5,7.9-7.9C348.7,393.6,345.1,390.1,340.8,390.1z"/>
				<polygon class="st1" points="340.8,392.4 342.4,395.7 346.1,396.2 343.4,398.8 344.1,402.5 340.8,400.8 337.5,402.5 
					338.1,398.8 335.4,396.2 339.1,395.7 				"/>
				
					<rect x="256.1" y="68.1" transform="matrix(0.8645 -0.5027 0.5027 0.8645 3.1272 148.4566)" class="st1" width="41.5" height="0.6"/>
				
					<rect x="320.9" y="55" transform="matrix(0.7653 -0.6437 0.6437 0.7653 29.7648 223.4059)" class="st1" width="0.6" height="31.7"/>
				
					<rect x="353.9" y="89.6" transform="matrix(0.9943 -0.1068 0.1068 0.9943 -7.4469 40.7679)" class="st1" width="46.1" height="0.6"/>
				
					<rect x="181.8" y="149.9" transform="matrix(0.9988 -4.867544e-02 4.867544e-02 0.9988 -7.8033 9.0588)" class="st1" width="0.6" height="29.6"/>
				<polygon class="st1" points="449.5,150.7 439.9,122.9 440.4,122.7 450,150.5 				"/>
				
					<rect x="480" y="175.5" transform="matrix(9.914612e-02 -0.9951 0.9951 9.914612e-02 283.2935 664.4365)" class="st1" width="57.2" height="0.6"/>
				
					<rect x="474.6" y="93.9" transform="matrix(0.4995 -0.8663 0.8663 0.4995 136.7533 469.6574)" class="st1" width="0.6" height="45.2"/>
				<polygon class="st1" points="461.9,156.8 461.7,156.3 496.9,142.3 497.1,142.9 				"/>
				<polygon class="st1" points="471.6,276.1 471.1,275.7 484.1,258 484.6,258.4 				"/>
				<polygon class="st1" points="475.9,323.7 475.5,323.2 505.4,293.6 505.8,294 				"/>
				<polygon class="st1" points="333.6,393.3 306.2,360.8 306.7,360.4 334,392.9 				"/>
				
					<rect x="341.5" y="376.5" transform="matrix(0.5775 -0.8164 0.8164 0.5775 -155.3597 453.3892)" class="st1" width="37.6" height="0.6"/>
				
					<rect x="384.4" y="349.4" transform="matrix(0.9833 -0.1821 0.1821 0.9833 -56.8356 80.2827)" class="st1" width="48.8" height="0.6"/>
				
					<rect x="174.9" y="234.8" transform="matrix(0.9998 -1.884844e-02 1.884844e-02 0.9998 -4.872 3.3474)" class="st1" width="0.6" height="50.7"/>
				
					<rect x="221.1" y="273.2" transform="matrix(0.9842 -0.1771 0.1771 0.9842 -49.368 43.9172)" class="st1" width="0.6" height="50.7"/>
				
					<rect x="188.5" y="120.1" transform="matrix(0.8691 -0.4945 0.4945 0.8691 -33.1832 115.369)" class="st1" width="25.8" height="0.6"/>
				<path class="st1" d="M461.7,379.1c-16.6,0-30.1-13.5-30.1-30.1s13.5-30.1,30.1-30.1c16.6,0,30.1,13.5,30.1,30.1l0,0
					C491.8,365.6,478.3,379.1,461.7,379.1z M461.7,319.4c-16.3,0-29.5,13.2-29.5,29.5s13.2,29.5,29.5,29.5s29.5-13.2,29.5-29.5l0,0
					l0,0C491.2,332.6,478,319.4,461.7,319.4z"/>
				<path class="st1" d="M217.7,381.1c-16.6,0-30.1-13.5-30.1-30.1c0-16.6,13.5-30.1,30.1-30.1s30.1,13.5,30.1,30.1l0,0
					C247.8,367.6,234.4,381.1,217.7,381.1z M217.7,321.4c-16.3,0-29.5,13.2-29.5,29.5s13.2,29.5,29.5,29.5s29.5-13.2,29.5-29.5l0,0
					l0,0C247.2,334.6,234,321.4,217.7,321.4z"/>
				<path class="st1" d="M495.1,261.3c-16.6,0-30.1-13.5-30.1-30.1s13.5-30.1,30.1-30.1s30.1,13.5,30.1,30.1v0l0,0
					C525.2,247.8,511.7,261.3,495.1,261.3z M495.1,201.6c-16.3,0-29.5,13.2-29.5,29.5s13.2,29.5,29.5,29.5
					c16.3,0,29.5-13.2,29.5-29.5c0,0,0,0,0,0C524.6,214.8,511.4,201.6,495.1,201.6z"/>
				<path class="st1" d="M186.8,238.5c-16.6,0-30.1-13.5-30.2-30.1s13.5-30.1,30.1-30.2s30.1,13.5,30.2,30.1c0,0,0,0,0,0l0,0
					C216.9,225,203.4,238.5,186.8,238.5z M186.8,178.8c-16.3,0-29.5,13.2-29.5,29.5s13.2,29.5,29.5,29.5s29.5-13.2,29.5-29.5l0,0
					C216.3,192,203.1,178.8,186.8,178.8z"/>
				<path class="st1" d="M427.5,126.8c-16.6,0-30.1-13.5-30.1-30.1s13.5-30.1,30.1-30.1c16.6,0,30.1,13.5,30.1,30.1c0,0,0,0,0,0l0,0
					C457.6,113.3,444.1,126.8,427.5,126.8z M427.5,67.1c-16.3,0-29.5,13.2-29.5,29.5s13.2,29.5,29.5,29.5
					c16.3,0,29.5-13.2,29.5-29.5C457,80.3,443.8,67.1,427.5,67.1C427.5,67.1,427.5,67.1,427.5,67.1z"/>
				<path class="st1" d="M235.9,126.8c-16.6,0-30.1-13.5-30.1-30.1s13.5-30.1,30.1-30.1c16.6,0,30.1,13.5,30.1,30.1c0,0,0,0,0,0l0,0
					C266,113.3,252.6,126.8,235.9,126.8z M235.9,67.1c-16.3,0-29.5,13.2-29.5,29.5s13.2,29.5,29.5,29.5s29.5-13.2,29.5-29.5l0,0l0,0
					C265.4,80.4,252.2,67.2,235.9,67.1z"/>
			</g>
		</g>
		<g id="freepik--Line--inject-17">
			<path class="st2" d="M340.7,384.6c-87.8,0-158.9-71.2-158.8-159c0-39.2,14.5-77,40.7-106.1c58.6-65.2,159.3-70.5,224.5-12
				c65.3,58.6,70.7,159.1,12,224.4C428.9,365.5,385.8,384.7,340.7,384.6L340.7,384.6z M340.9,67.7c-87.3,0-158,70.8-158,158
				s70.8,158,158,158s158-70.8,158-158c0-44.8-19.1-87.6-52.4-117.5C417.5,82.1,379.8,67.7,340.9,67.7z"/>
		</g>
		<g id="freepik--World--inject-17">
			<g id="freepik--world--inject-17-2">
				<path class="st3" d="M268.8,305.9c44.3,39.8,112.4,36.1,152.1-8.2s36.1-112.4-8.2-152.1s-112.4-36.1-152.1,8.2
					c-14.7,16.4-24,36.8-26.7,58.6C229.5,247.4,242.5,282.3,268.8,305.9z"/>
				
					<linearGradient id="SVGID_1_" gradientUnits="userSpaceOnUse" x1="233.0161" y1="199.5163" x2="448.4982" y2="199.5163" gradientTransform="matrix(1 0 0 -1 0 425.2756)">
					<stop  offset="0" style="stop-color:#20B038"/>
					<stop  offset="1" style="stop-color:#60D66A"/>
				</linearGradient>
				<path class="st4" d="M268.8,305.9c44.3,39.8,112.4,36.1,152.1-8.2s36.1-112.4-8.2-152.1s-112.4-36.1-152.1,8.2
					c-14.7,16.4-24,36.8-26.7,58.6C229.5,247.4,242.5,282.3,268.8,305.9z"/>
				<g class="st5">
					<path class="st3" d="M251.3,166.8c0.6,0.3,1.3,0.3,2,0.1c0.4-0.1,0.7-0.3,1.1-0.5c0.4-0.2,1.3-1.2,1.6-1.2s0,1.2-0.2,1.9
						c-0.5,1.1-1.2,2-2,2.9c-0.8,0.9-1.9,1.5-3.1,1.6c-0.4,0-1.8,0-2.2,0.7s-0.2,0.9,0.1,1c0.5,0.1,1.1,0,1.6-0.1
						c0.2-0.1,0.5-0.1,0.7,0c0.6,0.3-0.1,2,0.4,2.4c0.3,0.2,0.9,0,1.3-0.1c0.7-0.1,1.4-0.3,2-0.6c0.4-0.2,0.8-0.5,1.1-0.8
						c0.9-0.7,1.9-1.2,2.8-1.8c0.8-0.3,1.2-1.2,1-2.1c-0.2-0.8-0.8-0.6-1.6-0.1c-1,0.6-2.1,1.4-2.4,1.6s-0.4,0.2-0.4-0.1
						c0.1-0.5,1.3-1.2,1.5-1.4c0.5-0.4,0.9-0.7,1.4-1.1c0.8-0.6,1.6-1.1,2-1.4c0.2-0.2,0.5-0.3,0.7-0.6c0.3-0.3,0.6-0.7,0.9-1.1
						c0.4-0.9-0.1-1.1,0.2-1.9c0.3-0.6,0.8-1.1,1.3-1.5c0.5-0.5,0.9-1,1.4-1.5c0.8-1.1,0.5-2.1,1-3.2c0.3-0.7,0.6-1.3,1.1-1.8
						c0.6-0.8,1.5-1.7,2-2.3c0.3-0.4,0.6-0.8,0.9-1.1c0.4-0.5,0.7-1,0.9-1.5c0.2-0.4,0.3-0.8,0.4-1.1c0.1-0.3,0.3-0.6,0.6-0.8
						c0.7-0.7,1.2-1.6,1.4-2.6c0.2-1.3-0.6-0.8-0.9-1c-0.4-0.3-1-0.1-1.6,0.1c-1.3,0.6-2.8,1.7-4.2,2.6c-1.8,1.8-3.6,3.6-5.4,5.5
						c-1.5,1.6-2.9,3.4-4.2,5.1c0.4,0.1,0.8,0.1,1.1,0.1c1,0,2.3-1.4,3.4-2.1c0.5-0.3,2-1.5,2.2-1c0.4,0.8-1.2,2.2-1.6,2.5
						c-0.3,0.2-0.6,0.5-0.7,0.9c-0.3,0.7-0.9,1.8-1.5,1.6c-0.3-0.2-0.7-0.3-1.1-0.3c-0.3,0-0.5,0.3-0.6,0.6c-0.2,0.7-1,1.9-1.4,1.2
						c-0.2-0.4-0.3-0.9-0.7-1s-0.6,0-0.9-0.1l-0.1-0.1c-1.3,1.8-2.6,3.6-3.8,5.4C250.9,166.7,251.1,166.8,251.3,166.8z"/>
					<path class="st3" d="M364.1,139.1c0.7-1.1,1.6-2,2.5-2.8c0.5-0.4,0.9-0.8,1.4-1.1c0.3-0.2,0.6-0.4,0.9-0.6
						c0.3-0.1,0.5-0.3,0.8-0.4c0.3-0.3,0.3-0.8,0-1.2c0,0,0,0,0,0c-0.1-0.1-0.2-0.2-0.4-0.2c-0.1,0-0.2-0.1-0.4-0.1
						c-0.3,0-0.6,0.1-0.8,0.3c-0.6,0.5-1.3,0.8-2,1.1c-3,1.1-5.3,2.9-5.6,5.9c-0.2,1.1-0.2,2.2-0.2,3.3c0.1,0.4,0.1,0.8-0.2,1
						s-0.3,0.2-0.1,0.5c0.6,0.7,1.4,1.3,2.3,1.5c0.5,0.2,1,0.4,1.6,0.5c0.7,0.2,1.4,0,1.8-0.5c0.2-0.4-0.4-0.9-0.7-1.4l-0.4-0.5
						c-0.4-0.5-0.7-1.1-0.9-1.7c-0.1-0.4-0.2-0.8-0.2-1.2C363.5,140.7,363.7,139.9,364.1,139.1z"/>
					<path class="st3" d="M315.9,138.7c0.3,0.2,0.7,0.5,1,0.8c0.4,0.3,0.8,0.5,1.3,0.6c0.5,0.2,1,0.4,1.5,0.6c0.1,0,0.1,0.1,0.2,0.2
						c0.2,0.2,0.1,0.2,0.1,0.4c0.1,0.4,0.4,0.5,0.8,0.6s0.7,0.2,1.1,0.4c0.6,0.2,1.6,0.1,1.6-0.4c0-0.4-0.1-0.8-0.2-1.1
						c-0.2-0.6-0.3-1.2-0.4-1.8c0-0.1,0-0.2,0-0.3c0-0.1,0.3-0.4,0.8-0.3c0.4,0.1,0.7,0.2,0.9,0.3s0.3,0.1,0.4,0.1s0.3,0.4,0.3,0.5
						c0,0.1,0.1,0.1,0.1,0.2c0.1,0.1,0.3,0.1,0.4,0.1c0.5,0.1,0.9,0.2,1.4,0.1c0.2,0,0.3-0.1,0.5-0.2c0.2-0.2,0.3-0.5,0.1-0.7
						c-0.1-0.1-0.1-0.1-0.2-0.2c-0.7-0.1-1.5-0.3-2.2-0.5c-0.5-0.2-1-0.5-1.4-0.9c-0.8-0.7-0.2-1,0.3-1.1c0.4-0.1,0.8-0.2,1.2-0.4
						c0.6-0.3,1.1-0.7,1.3-1.3c0-0.3-0.1-0.7-0.3-0.9l-0.1-0.1c-0.5-0.3-1.2-0.4-1.8-0.1c-0.6,0.2-1.4,0.4-2,0.6
						c-0.3,0.1-0.6,0.2-0.9,0.2c-0.2,0-0.5,0-0.7,0.1c-0.4,0.2-0.7,0.4-1,0.8c-0.3,0.4-0.8,0.6-1.2,0.7c-0.3,0.1-0.8,0-0.7,0.4
						s0.9,0.8,1.1,1.3s-0.3,0.3-0.6,0.1s-0.5-0.7-0.8-0.9s-0.5,0-0.5,0.1s0.2,0.7-0.4,0.5c-0.3-0.1-0.5-0.3-0.9-0.4
						c-0.6,0-1.7,0.7-1,1.5C315.3,138.4,315.6,138.6,315.9,138.7z"/>
					<path class="st3" d="M328.5,186.2c-0.7-0.7-2-0.8-2.2-2.1c0-0.4,0.4-0.9,0.1-1.4c-0.1-0.2-0.4-0.2-0.6-0.3s-1.2-0.6-1.2-1
						s-2.1,0.1-1.7,0.8c0.6,1-1,1.8-0.1,2.2l0.1,0.1c0.1,0.5,0.1,0.9,0.3,1.4c0.3,0.7,1.4,0.7,1.6,1.4s1.1-0.1,1.6,0.3
						s0.8,1.7,0.3,2.1s0,1.6-0.3,1.9s-0.4,0.5-0.1,0.9c0.2,0.2,0.8-0.4,1,0.1s-0.6,0.8-0.2,1.3s0.9,0.1,1.2,0c1.3-0.5,3-1.3,3.6-2.8
						c0.2-0.6,0.6-1.9-0.1-2.2c-0.3-0.1-0.6,0-0.9-0.2c-0.3-0.3-0.6-0.6-0.9-0.9C329.5,187.2,329,186.7,328.5,186.2z"/>
					<path class="st3" d="M238.6,254.9c0.5,0.3,1.7,1.7,2.3,1.5c1-0.3-0.7-2-1-2.2s-2.9-2.9-2.9-2.9c0.1-0.1,0.1-0.3,0.1-0.4
						c-0.1-0.1-0.7-0.4-1.2-0.7c0.3,1.3,0.6,2.6,1,3.9C237.3,254.4,238.1,254.7,238.6,254.9z"/>
					<path class="st3" d="M399,267.5c0.2-2.6,0.1-5.2-0.2-7.8c-0.1-0.5-0.2-1-0.3-1.5c-0.1-0.7-0.4-1.3-0.9-1.9
						c-0.2-0.1-0.3-0.2-0.4-0.4c-0.1-0.1-0.2-0.2-0.3-0.4c-0.1-0.1-0.2-0.3-0.4-0.4c-0.2-0.2-0.9,0.3-0.8,1c0,0.5,0.1,0.9,0.2,1.4
						c0.2,1.9-1,3.2-1.6,4.7c-0.8,2.2,0.1,4.1,0.5,6.1c0.3,1.3,0.1,3.2,0.9,4.2C398.3,276,398.9,269.5,399,267.5z"/>
					<path class="st3" d="M447.3,231.2c-0.3-0.3-0.7-0.5-1.1-0.4c-0.9,0.2-1.8,0.4-2.6,0.7c-0.5,0.1-1,0.2-1.5,0.1
						c-0.3,0-0.5-0.2-0.7-0.4c-0.4-0.6-0.6-1.3-0.6-2c-0.1-0.8-0.5-1.5-1.1-2c-0.2-0.2-0.5-0.5-0.8-0.7c-0.4-0.3-0.9-0.4-1.3-0.8
						c-0.5-0.3-0.8-0.8-0.9-1.4c-0.1-0.3,0-0.7,0.2-1c0.2-0.7,0.2-1.4-0.2-2.1c-0.2-0.4-0.5-0.7-0.6-0.9c-0.3-0.5-0.7-0.9-1-1.3
						c-0.2-0.2-0.4-0.3-0.6-0.5c-1.3-1.5-2.2-3.4-2.6-5.3c-0.1-0.6,0-1.2,0.5-1.3c0.2,0,0.3,0,0.5,0.1c0.4,0.2,0.8,0.5,1.1,0.8
						c0.3,0.3,0.6,0.5,0.7,0.5c1-0.3,2,3.3,2.9,1.5c0.3-0.6,0.8-1,1.1-1.6c0.1-0.2,0.2-0.5,0.4-0.7c0.3-0.7,0.4-1.5,0.4-2.2
						c0-0.5-0.1-0.9-0.3-1.4c-0.7-1.4-1.7-2.6-2.9-3.5c-0.4-0.3-0.7-0.4-0.9-1c-0.4-1.4,0.4-3.2,1.7-3.1c0.8,0.1,1.6-0.3,2-1
						c0.5-0.9,1.1-1.8,1.8-2.5c1.2-0.8,2.3-1.8,3.1-3l0.2-0.4c-1.3-4.2-2.8-8.4-4.6-12.5c-0.2-0.4-0.5-1.2-0.8-1.8
						c-9.4-20.2-24.9-37-44.3-48.1c-0.2,0.1-0.4,0.1-0.6,0.2c-1,0.2-2,0.5-3,0.9c-0.7,0.4-1.2,1.2-1.3,2c0,0.5-0.2,1-0.6,1.4
						c-0.4,0.4-1,0.6-1.5,0.7c-0.4,0.1-1.2,0.3-0.9,0.9s1.6,1.3,2.2,1.8c1.2,1.2-1,0.5-1.6,0.4c-0.6-0.2-1.3-0.3-1.9-0.3
						c-0.4,0-1.2,0-1.1,0.4s0.6,0.9,0.9,1.2c0.4,0.4,0.5,0.6,0.2,0.8s-0.8,0.4-1.2,0.6c-1.4,1-3.3,0.7-4.3-0.7
						c-0.1-0.1-0.2-0.3-0.3-0.4c-0.3-0.5-0.7-0.8-1.2-1.1c-0.4-0.2-0.9-0.3-1.4-0.3c-0.9,0.1-0.8,1-0.4,1.9s-0.4,1.3,0.1,2.1
						c0.6,0.7,1.3,1.3,2.1,1.7c0.6,0.4,1.8,0.9,1.7,1.6c-0.1,1-1.5,0.6-2.4,0.3c-1.3-0.4-2.6-0.7-3.9-1.1c-1.1-0.4-2.2-0.4-3.3-0.3
						c-0.6,0.1-0.9,0.5,0,1c0.4,0.2,1.5,0.6,1.6,1.2s-1.3,0.8-1.7,0.9c-1.1,0.5-2.3,0.8-3.4,1c-0.9,0-1.9,0.1-2.8,0.3
						c-0.4,0.2-0.7,0.4-1,0.7c-0.4,0.4-0.6,0.9-0.7,1.5c0,0.1-0.1,0.3-0.2,0.4c-0.1,0.1-0.3,0.2-0.4,0.2c-0.7,0.1-1.3-0.2-1.6-0.8
						c-0.1-0.5-0.3-1.1-0.8-1.3c-0.6-0.2-1.3-0.1-1.8,0.3c-0.2,0.2-0.2,0.4-0.2,0.6c0,0.4,0.6,1.5,0.7,2.3c0.1,0.4,0,0.9-0.2,1.3
						c-0.2,0.3-0.5,0.5-0.8,0.7c-0.4,0.3-0.6,0.8-0.6,1.3c-0.2,1-0.3,1.9-1.2,2.3s-1.6,0.2-2.7-0.5c-0.8-0.5-1.6-1-2.3-1.6
						c-1.1-0.9,0.7-0.8,1.2-0.8c0.7-0.1,1.3-0.2,2-0.3c0.6-0.1,1.1-0.2,1.6-0.4c0.4-0.2,1.1-0.4,0.9-1.1c-0.5-1.5-4-2.4-5.1-2.7
						c-0.5-0.1-1-0.3-1.5-0.4c-0.8-0.2-2.2-0.5-3.1-0.7c-0.5-0.1-1-0.2-1.5-0.1c-0.8,0.2-1.1,1.3-2.3,0c-0.4-0.6-1.2-1-2-1
						c-1.5,0-3,0.5-4.2,1.4c-0.3,0.3-0.6,0.6-0.9,0.9c-0.3,0.6-0.7,1.3-1.1,1.9c-0.2,0.2-0.5,0.3-0.8,0.4c-1.8,0.3-2,2.1-1.6,4.2
						c0.1,0.6,0.3,1.2,0.4,1.8c0,0.3,0,0.7,0,1c-0.1,0.5-0.3,1.7-0.5,2.7c-0.1,0.6-0.2,1.2-0.3,1.8c-0.3,1.8-0.7,3.6-1.1,5.4
						c-0.4,1.4-0.3,2.8,0.2,4.1c0.5,1,1.4,1.7,2.4,2c1,0.4,2.1,0.1,2.9-0.6c1.2-0.9,2-0.3,3,1.1c0.4,0.7,1,1.3,1.7,1.7
						c0.7,0.2,1.5,0.2,2.1-0.2c0.6-0.4,0.7-1.3,0.3-2.2c-0.4-0.7-0.4-1.6-0.1-2.3c0.3-0.7,0.1-1.6-0.4-2.1c-0.8-1.1-2.1-2.4-2.5-3.2
						c-0.2-0.4-0.4-0.9-0.5-1.4c0-0.4,0-0.8,0-1.2c0.1-0.6,0.6-1.9,1-3c0.2-0.7,0.3-1.5,0.3-2.2c0-0.4,0-0.7,0.1-1.1
						c0.3-0.5,0.8-0.8,1.4-0.8c0.4,0,0.7,0.2,1,0.5c0.4,0.7,0.6,1.5,0.4,2.3c-0.1,0.8-0.7,1.2-0.9,2c-0.1,1,0.1,2,0.5,2.9
						c0.2,1,0.7,2,1.3,2.8c0.9,0.8,2.1,0.2,2.9-0.1c0.4-0.1,0.8-0.3,1.2-0.4c0.6-0.2,1.2-0.2,1.9-0.1c0.3,0.1,0.8,0.8,0.6,1
						c-0.2,0.1-0.4,0.2-0.5,0.3c-0.8,0.3-1.7,0.5-2.5,0.8c-0.5,0.2-1.4,0.4-1.2,1.2c0.1,0.6,0.9,1,1.3,1.3s0.9,0.6,1,1.2
						c0,0.3-0.2,0.5-0.4,0.6l0,0c-0.5,0-1-0.2-1.4-0.4c-0.3-0.2-0.7-0.5-0.9-0.3s0.3,1.8,0.5,2.3c0.4,0.8,0.5,1.7,0.3,2.5
						c-0.5,1.6-2.3,2.1-3.7,2.4c-0.9,0.2-1.8,0.2-2.7,0.2c-0.6,0.1-1.2,0.1-1.8-0.1c-1.4-0.5-1.4-2.8-2-4c-0.7-1.4-1.7,0-1.6,0.9
						c0,1.5,1.6,2.8,1.5,4.2c0,1-1.1,1.3-1.8,1.8c-0.8,0.8-1.1,1.9-0.9,3c0,0.6-0.1,1.2-0.5,1.7c-0.3,0.7-0.7,1.3-1.1,2
						c-0.2,0.5-0.6,0.9-1.1,1.1c-0.4,0.1-0.9,0-1.1,0.3s0.1,0.8-0.3,1.1s-1.2,0.3-1.8,0.6c-0.4,0.2-0.9,0.6-0.3,1
						c0.6,0.3,1.2,0.4,1.8,0.5c1,0.4,1.8,1.3,2.1,2.3c0.6,1.5,0.6,2.9-0.8,3.4s-2.9,0.7-4.1,1.7c-1.1,0.9-0.3,3.3,0.1,4.7
						c0.1,0.6,0.5,1.2,1,1.6c0.4,0.3,0.6,0.8,1,1c0.5,0.2,1.1,0.2,1.6,0c0.5-0.2,1.2-0.2,1.7,0.1c0.1,0.1,0.3,0.1,0.4,0.1
						c0.2,0.1,0.4-0.6,0.7-0.8c0.2-0.1,0.5-0.2,0.8-0.2c0.3,0,0.5-0.1,0.8-0.2c0.2-0.1,0.3-0.4,0.4-0.5c0.6-0.5,0.8-1.3,0.7-2.1
						v-1.2c0.1-0.4,0.2-0.9,0.3-1.3c0-0.3,0-0.7,0.1-1c0.2-0.6,0.7-0.7,1.1-1c0.6-0.4,0.8-1.1,0.7-1.7c-0.1-0.6-0.3-1.2,0.2-1.6
						s1-0.1,1.4-0.2c0.8-0.2,1.2-0.9,1.8-1.5c1.1-1.1,2.2-1,3.5,0.1c0.5,0.5,1.1,1,1.7,1.4c0.5,0.3,1,0.4,1.5,0.7s1.3,0.6,1.9,1
						c0.6,0.6,1,1.4,0.9,2.2c0,0.3-0.1,0.8,0.2,1s0.5-0.2,0.6-0.4c0.4-0.8,0-1.5-0.2-2.3c-0.1-0.4-0.3-0.8,0-1.1
						c0.1-0.1,0.3,0,0.5,0s0-0.8-0.7-1.1c-0.4-0.2-0.8-0.2-1.2-0.2c-0.3,0-1.3-0.7-1.5-0.9c-0.7-0.4-1.4-0.9-2.1-1.4
						c-0.6-0.4-1-0.9-1.3-1.5c-0.3-1,0.7-1.2,1.3-0.9s0.7,0.8,1.1,1.2c0.9,0.9,2,0.8,3,1.1c0.7,0.2,0.9,0.8,1.3,1.4
						c0.4,0.4,0.8,0.9,1.1,1.4c0.2,0.4,0.2,0.4,0.5,0.7c0.3,0.2,0.7,0.4,1,0.5c0.3,0.1,0.7,0.2,1,0.4c0.3,0.2,0.2,0.2,0.2,0.6
						c0.1,0.7,0.3,1.4,1,1.6s0.5-1.1,0.6-1.7c0.1-0.4,0.1-0.8-0.1-1.2c-0.2-0.3-0.7-0.5-1-0.8c-0.6-0.8,0.2-1,0.5-1.4s0.8-1.4,1.6-1
						c0.5,0.2,0.5,0.5,0.6,1c0.2,0.5,0.4,1,0.8,1.4c0.2,0.5,0.5,1,0.8,1.4c0.9,0.8,2.1,1.1,3.3,0.9c0.5-0.1,0.8-0.6,1.3-0.6
						c0.2,0,0.4,0.1,0.6,0.1c0.4,0,0.7,0,1-0.2c0.5-0.2,0.8-0.4,1.3-0.6c0.8-0.2,1-0.1,1.1,0.8c0.1,1.4,0.2,2.8,0.5,4.2
						c0.1,0.5,0.6,1.7,0.4,2.2s-1.2,0-1.6-0.1c-1.2-0.2-2.5,0-3.6,0.4c-0.6,0.2-1.2,0.4-1.8,0.6c-0.5,0.2-1.1,0.3-1.7,0.2
						c-1.1-0.4-3.9-1.8-4.4,0c-0.3,1.2,0.6,3-1.1,3.1c-0.8,0-1.6-0.2-2.3-0.4c-1.1-0.2-2.3-0.4-3.4-0.4c-0.8,0-1.6-0.2-2.3-0.6
						c-1-0.7,0.1-1.3,0-2.3c-0.1-0.9-0.6-1.6-1.4-2c-0.7-0.1-1.4-0.1-2,0.2c-0.3,0.1-0.6,0.1-1,0.2c-0.4,0.2-0.7,0.4-1,0.6
						c-0.7,0.4-1.5,0.7-2.2,0.9c-0.4,0.1-0.8,0.3-1.2,0.4s-0.9,0.2-1,0.4c-0.8,1.2-1.7,2.6-3.2,2.9c-0.9,0-1.8,0.3-2.5,0.8
						c-0.7,0.7-1.3,1.5-1.8,2.3c-0.4,0.7-0.8,1.4-1.2,2.2c-0.3,0.9-0.3,1.9,0.2,2.7c0.2,0.6,0.2,1.2,0,1.7c-0.3,0.9-0.8,1.8-1.4,2.5
						c-0.8,0.7-1.4,1.6-1.6,2.7c-0.2,1-0.4,2-0.4,3.1c-0.1,2.1,0.6,4.2,2,5.9c0.4,0.4,0.2,2.1,0.2,2.7c0,1,0.4,2,1,2.9
						c0.4,0.5,1,1,1.6,1.3c1.2,0.8,2.3,1.7,3.3,2.7c1.1,0.9,2.2,1.6,3.4,2.2c1.5,0.8,3.1,1.1,4.8,0.8c0.8-0.1,1.5-0.5,2.1-1
						c0.3-0.3,0.7-0.5,1.1-0.6c0.8-0.3,1.6-0.8,2.2-1.3c0.3-0.4,0.7-0.7,1-1.1c0.6-0.8,1.5-1.2,2.5-1.1c0.4,0.1,0.8,0.2,1.2,0.4
						c0.8,0.4,1.6,0.7,2.4,0.9c0.4,0.1,0.8,0,1.2-0.1c0.7-0.1,1.4,0,2,0.3c1.6,0.9,1.5,2.8,1.2,4.5c-0.1,1.4,0.5,2.8,1.6,3.7
						c0.5,0.4,0.8,0.9,1.3,1.3c0.5,0.4,1,1,1.4,1.6c0.3,0.6,0.6,1.1,0.9,1.6c0.6,1.1,1,2.3,1.2,3.6c0.1,0.6,0.2,1.2,0.2,1.9
						c0,0.3,0.1,0.6,0.1,0.9c0,0.6,0,1.1,0,1.7c0,0.3-0.1,0.5-0.1,0.8c0,0.6,0.1,1.3,0.2,1.9c0.2,1,0.6,2.9,0.8,3.9
						c0.2,0.6,0.4,1.2,0.7,1.8c1.2,2.5,2.7,4.8,4.4,7c0.7,1.1,1.4,2.2,2.1,3.2c0.4,0.5,0.7,1.1,1.1,1.7c0.4,0.6,0.7,1.2,1,1.9
						c0.6,1.3,1.3,2,2.5,2c1-0.1,1.9-0.5,2.7-1.2c1.8-1.3,3.3-3,4.2-5c0.6-1.4,0.9-2.9,1.1-4.4c0.1-0.7,0.2-1.4,0.1-2.1
						c0-0.8-0.2-1.5-0.2-2.3c0-1.2-0.1-2.4,0-3.6c0.1-1.8-0.1-3.3,0.7-4.9c0.4-0.7,0.8-1.4,1.3-2.1c0.7-1.1,2-3,1.6-4.7
						c-2.1-8.1-6.2-13.8-0.7-21.8c1.3-2.7,2.8-7,2.6-10.5c-0.1-1.7-1.5-2.3-2.3-1.7c-0.5,0.4-1.1,0.8-1.6,1.2
						c-0.5,0.3-1.1,0.6-1.6,0.8c-0.6,0.2-1.2,0.2-1.8,0.1c-0.6,0-1.1-0.4-1.4-0.9c-0.3-0.6-0.6-1.2-0.8-1.8c-0.4-0.5-0.8-0.8-1.4-1
						c-1.1-0.6-2.1-1.4-3-2.4c-0.8-1.1-1.5-2.2-2-3.5c-0.4-0.8-1-1.5-1.8-2.1c-0.7-0.6-1.3-1.3-1.9-2c-0.6-0.7-2.6-3.1-1.7-4.1
						c0.8-0.7,2.1,1.6,2.6,2.2c1,1.2,2,2.2,3,3.2l1.6,1.6c0.9,0.9,1.9,1.9,2.3,2.3c0.3,0.2,0.5,0.5,0.8,0.8c0.5,0.5,1,1,1.4,1.6
						c1.1,2.4,2.3,3.6,3.7,3.1s2.8-2.3,3.8-3.4c1.8-1.8,3.4-3.7,4.8-5.8c0.3-0.7,0.5-1.4,0.7-2.1c0.3-0.8,0.5-1.6,0.5-2.4
						c0-0.7-0.4-1.3-1-1.4c-0.4-0.1-0.8,0.1-1.2,0s-0.7-0.9-1.1-1.2c-0.8-0.6-1.2,0.1-1.7,0.6s-1.6,1.7-2.3,1.4
						c-0.5-0.2-0.4-0.7-0.8-1.1s-0.5-0.1-0.9-0.1c-0.9,0-1.5-1.1-2.1-1.8c-0.5-0.5-1.5-1.6-1.5-2.4c0-1.3,1.7-0.1,2.2,0.2
						s1.2,0.6,1.8,1c0.4,0.3,1,0.5,1.5,0.6c0.5,0.1,1.1,0.2,1.7,0.2c0.4,0,0.8-0.3,1.2-0.3c0.3,0,0.5,0.1,0.7,0.2
						c0.9,0.6,2,0.7,3,0.5c1.1-0.3,2.2-0.9,3.2-1.3c0.8-0.4,1.6-0.5,2.5-0.5c1,0.2,1.9,0.7,2.6,1.5c0.5,0.7,1.1,1.7,2.1,1.9
						s0.9-1.8,1.5-1.6c0.3,0.2,0.5,0.9,0.6,1.2c0.2,0.4,0.3,0.8,0.6,1.2l1.4,2.8c0.9,1.9,2,3.8,3.2,5.6c0.6,0.8,1.4,2.1,2.3,2.2
						c0.4,0,0.9-0.6,1-1.1c0.1-0.5,0.2-0.9,0.1-1.4c0-0.6,0-1.2-0.1-1.8c-0.1-1.1-0.1-2.3-0.1-3.4c0.1-0.5,0.2-1,0.3-1.5
						c0.2-0.9,0.5-1.8,1-2.6c0.4-0.6,0.7-1.2,1-1.8c0.1-0.3,0.2-0.6,0.2-0.9c0.2-0.5,0.4-1.1,0.6-1.6c0.1-0.3,0.2-0.5,0.4-0.7
						c0.2-0.1,0.5-0.3,0.8-0.3c0.5-0.3,0.6-0.8,1-1.2s1-0.1,1.4,0.1c1.1,0.7,1.5,2.2,2,3.5c0.2,0.6,0.5,1.4,1.1,1.3s0.9-0.6,1.5-0.2
						s1,1.4,1.5,2.1s1.1,0.8,1.4,1.6c0.2,0.5,0,0.6-0.1,1.1c0,0.4,0.1,0.8,0.4,1.1c0.3,0.4,0.4,0.9,0.4,1.4c-0.1,0.5-0.1,0.9,0,1.4
						c0.1,0.3,0.3,0.4,0.6,0.4c0.5,0.1,0.9,0.5,1.2,0.9c0.2,0.3,0.3,0.6,0.4,0.8c0.1,0.4,0.3,0.7,0.5,1c0.1,0.1,0.2,0.2,0.2,0.2
						c0.2,0.3,0.4,0.7,0.5,1.1c0.1,0.3,0,0.6-0.1,0.8c-0.2,0.1-0.4,0.1-0.7,0s-1-0.4-1.4-0.5c-0.2-0.1-0.4-0.1-0.6-0.1
						c-1.1,0.2,0.8,2.4,1.2,2.8s0.6,0.5,1,0.8c0.3,0.3,0.5,0.7,0.7,1.1c0.5,0.8,1,1.5,1.7,2.2c0.5,0.7,1.1,1.3,1.8,1.8
						c0.3,0.2,0.6,0.4,1,0.6c0.1,0.1,1,0.2,1,0.3c0.7,3.1,2.8,0.5,4.1,1.1c1.1,0.6,2,0,3-0.4c0.3-0.1,0.5-0.2,0.8-0.4
						c0-0.3,0-0.6,0-0.9C447.8,231.6,447.5,231.5,447.3,231.2z M370.5,195.7c-1,0.1-2,0.1-3,0c-1.4-0.1-3.3,1-4.5,1.6
						c-0.6,0.3-1.2,0.5-1.9,0.6c-1.4,0-1.4-3.1-1.3-4.7c0-0.8,0.2-1.6,0.5-2.3c0.7-1.2,3-0.5,2.8-0.1s0.3,0.7,0.5,1s0.6,0.6,0.9,0.2
						s-0.6-2,0.4-2.9c0.1-0.1,0.2-0.2,0.4-0.3c1.1-0.8,1.9-0.3,2.1,1.3c0.1,0.4,0.2,0.8,0.4,1.1c0.8,1.4,2.4,1.2,2.5,1.4
						s0.7,0.2,1.3,0.6S371.9,195.4,370.5,195.7z M385.6,196.5c0.1,1.2-1.2,1.9-2.7,1.6s-2.2-2.4-2.5-3.8s-2.9-2.1-3.6-3.6
						c-1.2-2.6,0.5-5.4,2.3-5.7c1.4-0.2,1,1.9,0.7,3.4c-0.1,0.5,0.2,0.9,0.8,1.3c1,0.7,2.1,1.2,3.3,1.6c0.7,0.4,0.2,1.3-0.4,1.7
						S385.5,195,385.6,196.5L385.6,196.5z"/>
					<path class="st3" d="M319.4,295.7c0.4-1.2,1.2-2.3,2.3-3c0.7-0.6,1.3-0.7,1.5-1.9c0.2-1.4,0-2.7-0.5-4
						c-0.4-0.8-0.3-1.8-0.5-2.3c-0.8-1.2-1.3-2.5-1.7-3.9c-0.5-2.6,1.3-4.8,0.9-7.5c-0.3-1.7-2.4-2.8-3.8-3.1s-3.3-2-4.7-1.6
						l-0.4,0.1c-1.4,0.4-3.9-0.9-5.4-1c-0.3,0-0.7,0-1,0c-1.8-0.2-3.5-1.1-4.7-2.5c-1.2-1.4-2.2-2.4-3.5-2.7
						c-1.7-0.4-3.4,1.4-5.1,0.1c-0.7-0.6-1.5-1-2.4-1.3c-0.9-0.2-1.7-0.6-2.5-1.1c-1.1-0.8-1.6,0.1-2.7,0c-0.6-0.1-0.9-0.3-1.6-0.2
						c-0.8,0.2-1.6,0.5-2.5,0.7s-1-0.2-1.7-0.4c-1.5-0.6-3.3,0.6-3.8,1.9c-0.2,0.6-0.2,1.5-0.4,2c-0.5,1.2-2.4,0.9-3.6,0.6
						c-0.9-0.2-1.8-0.6-2.5-1.2c-0.9-0.7-1.4-0.8-1.7-2c-0.2-0.8-0.3-2-1.1-2.5c-0.7-0.4-1.4-0.4-2.2-0.2c-0.5,0.1-1.2,0.5-1.8,0.4
						c-0.7-0.2-1.2-0.8-1.3-1.5c0-0.5,0.4-0.9,0.5-1.3c0.1-0.2,0.1-0.5,0.1-0.7c-0.1-0.2-0.2-0.4-0.3-0.6c0.2-1.1-0.1-1.6-0.7-1.6
						c-1.2,0.1-2.2,1.1-2.2,2.3c0.1,1.2-1.6,2.5-2.9,2.3c-2.6-0.4-5-4.5-5-7.7c0-1.5,0.9-3.8,2.1-4.2c1.1-0.3,2.2-0.4,3.3-0.5
						c0.5,0,0.4-0.4,0.3-0.7c-0.1-0.5,0.9-0.8,1.7-1c1.3-0.4,2.6-0.2,3.7,0.6c0.5,0.5,1,1,1.3,1.6c0.9,1.2,2.9,1.6,2.2,0.1
						c-0.5-0.9-1.2-1.9-1.8-2.9c-0.8-1.4-0.2-3.6,0.6-4.6c0.5-0.6,0.9-1.2,1.3-1.9c0.4-0.6,0.6-1.3,0.5-2c-0.2-0.8-0.9-1.4-1.1-2.3
						c-0.1-0.6-0.1-1.2,0-1.9c0.2-1,0.7-1.9,1.4-2.7c0.6-0.6,2-0.9,2.1-2c0-1,0.2-2,0.6-2.9c0.4-0.6,0.9-1.2,1.4-1.7
						c0.9-0.8,0.8,1.1,2,0.7c1.2-0.7,2.3-1.6,3.1-2.7c1-1.1,1.1-2.6,0.6-3s-0.9,2.3-2.2,2.4h-0.4c-1.3-0.2-1.6-2.2-1.8-2.1
						s-0.3-0.2,0-0.4s0.1-2.3-1-1.6c-0.2,0.1-0.4,0.3-0.6,0.5c-1,0.9-1.4,0-0.4-0.9c1.6-1.6,3.8-2.3,5.8-3.4
						c1.2-0.7,1.8-0.1,1.4,1.5s-0.5,2.6,0.5,2.6c1.3-0.1,2.7-1,2.8-0.6c0.1,0.3,0.2,0.6,0.5,0.2c0.5-0.6,1.5,0.3,1.8-0.7
						c0.1-0.5-0.1-1-0.5-1.3c-0.5-0.6-1.2-1.7-2-1.5s-1.4-1.7-1.4-3.4v-0.5c0-1.7-2.3-2.4-3.4-3c-3.4-1.7-2.3-2.2-4.5-5.3
						c-0.8-1.1-1.9-0.6-2.6,0.7c-0.4,0.7-0.9,1.3-1.3,1.4c-1.1,0.1-1.2-3.4-2-3.5c-0.4-0.1-1,0-1.4-0.6c-0.6-1-1.9-1.4-2.9-0.7
						c0,0,0,0-0.1,0c-1.1,0.5-1.7,2.7-1.4,3.9s-0.3,3.2,0.2,4s1.5,2.7,1,4.2c-0.4,0.9-1,1.6-1.2,2.5c-0.5,1.6,1,3.4,0.6,4.3
						c-0.1,0.5-0.6,0.8-1.1,0.7c0,0,0,0,0,0l0,0c-0.9-0.3-1.6-0.9-2-1.8c-0.6-1.8-0.2-3.1-1.8-3.1c-2.2,0-4.4-0.4-6.4-1.2
						c-0.9-0.4-1-1.3-1.4-2.3s-1.4-1.1-0.5-2.9c0.6-1.1,1.6-2.1,1.8-3.6s-1.1-1.3-0.5-2.6s2.5-1.3,3.3-1.9c0.4-0.3,0.8-0.7,0.9-1.2
						c0.2-1.1-0.6-0.9-0.8-1.4c-0.1-0.1,0.2-0.3,0.4-0.4c0.4-0.1,0.7-0.3,1.1-0.6c0.2-0.2,0.3-0.4,0.4-0.7c0-0.3,0.1-0.5,0.2-0.8
						c0.1-0.2,0.3-0.4,0.6-0.6c0.5-0.2,1-0.5,1.4-0.9c0.7-0.7,1.2-1.5,1.5-2.4c0.1-0.6,0.1-1.3,0-1.9c-0.2-0.3-0.6-0.2-0.6-0.7
						c-0.2-1.7,1.5-2.2,2.2-2.5c0.9-0.4,1.9-0.9,1.9,0.8c0,0.8,0.2,2.6,1,1.4c0.4-0.7,0.6-1,1-0.6c0.5,0.3,0.8,0.8,0.7,1.4
						c0,0.6-0.2,1.2-0.7,1.6c-0.5,0.6-0.8,3.2-1.8,3.7c-0.2,0.1-0.3,0.1-0.5,0.2c-1,0.5-0.5,3,0.5,2.2c1-0.6,2.3-0.5,3.2,0.3
						c1.2,1,3,1.9,3.8,1.8c1.1-0.3-0.1-2.6,0.4-2.9c0.3-0.2,0.6-0.4,0.9-0.5c0.2,0,0-1.5,0-1.7c-0.1-0.4-0.3-0.8-0.7-1.1
						c-0.6-0.5-1.3-0.4-1.8-1.3s0.4-2.2,1-2c0.3,0.2,0.6,0.5,0.8,0.9c0.4,0.6,1,0.9,1.3,0.7c0.2-0.1,0.3-0.3,0.4-0.5
						c0.1-0.5,0.2-1,0.3-1.6c0.3-0.8,1-0.8,1.3-1.6c0.3-0.4,0.1-1-0.4-1.3c0,0,0,0,0,0l-0.2-0.1c-1-0.4-2-0.6-2.9-1
						c-0.2-0.1-0.4-0.1-0.5-0.2s-0.5-1-0.5-1.6c0-0.4,0-0.7-0.1-1.1c-0.1-0.4-0.4-0.8-0.9-1c-0.4-0.3-0.8-0.5-1.2-0.7
						c-0.7-0.3-2.1,0-2.8-0.7s-1.2-1.7-1.9-1.5c-0.1,0-0.3,0.4-0.4,0.4c-0.1,0.1-0.3,0.2-0.5,0.1c-0.3,0-0.6-0.2-0.9-0.3
						c-0.7-0.2-1.5,0.1-1.9,0.6c-0.2,0.3-0.5,0.5-0.8,0.7c-0.5,0.3-1,0.5-1.6,0.7c-0.7,0.5-1.4,1.2-1.9,2c-0.4,0.5-0.7,1.1-0.9,1.7
						c-0.3,0.9-0.4,2.4,0.2,2.4c0.7-0.2,1.5-0.4,2.2-0.6c0.7-0.1,2-0.5,1.8,1.1c-0.2,1.2-1.5,1.2-1.4,2.5c0,0.4,0.3,0.8,0.1,1.4
						c-0.2,0.5-0.4,1-0.7,1.4c-0.2,0.4-0.5,0.7-0.8,1c-0.4,0.4-1,0.4-1-0.2s0.4-1,0.4-1.6c0-0.3-0.2-0.6-0.5-0.7l0,0
						c-0.2,0-0.3,0-0.5,0c-0.4,0-0.7-0.2-0.9-0.4c-0.1-0.2-0.3-0.3-0.4-0.5c-0.2-0.3-0.4-0.6-0.6-1c-0.3-0.7-0.3-1.6,0.1-2.3
						c0.1-0.2,0.3-0.4,0.5-0.8c0.4-0.6,0.7-1.3,0.9-2c0.6-1.5,0.5-2.8-0.4-2.5c-1.3,0.7-2.3,2-2.5,3.5c-0.1,1-0.3,2-0.6,2.9
						c-0.3,0.9-0.9,1.6-1.2,2.5c-0.2,0.8-0.2,1.5-0.3,2.3c-0.2,0.8-0.4,0.7-0.7,1c-0.8,0.8-0.4,2.5-1.2,3.4
						c-0.3,0.3-0.6,0.5-0.9,0.6c-0.5,0.3-1.1,0.4-1.7,0.4c-0.2,0-0.4,0-0.3-0.4c0.1-0.6,0.5-0.8,0.8-1.1c0.8-1,1.1-2.3,1-3.6
						c-0.2-0.6-0.7-0.4-1-0.6c-0.7-0.5-1-1.3-0.9-2.2c-1.1,2.7-2,5.4-2.8,8.1c0.2,0,0.4,0.1,0.5,0.2c0.2,0.2,0.1,0.6,0,1.1
						c-0.1,0.3-0.1,0.6-0.2,0.9c-0.1,0.5-0.4,2.4-1,2.1c-0.2-0.1-0.3-0.2-0.4-0.2c-1.2,4.6-2.1,9.2-2.7,13.9
						c-1.5,12.2-0.9,24.6,1.7,36.6c0.3-0.2,0.6-0.2,0.9,0c1.1,0.6,2.1,2.7,3.3,3.3c2.1,1,3.9,2.4,5.4,4.1c0.9,1.2,2.1,2.9,3.4,3.4
						c2.6,0.9,5.4,1.4,7.7,0.8c2.2-0.7,5.5,2.8,7.5,1.1c0.2-0.2,1.8,1.4,2,1.6c0.8,0.7,1.8,1.3,2.9,1.6c1.1,0.4,2.2,0.6,3.3,0.7
						c2.1,0.3,4.6,0.9,4.8,3.9c0,1.8-0.2,3.6-0.4,5.4c-0.1,1.8-0.1,3.8,1.2,5.3s3,2.4,4.3,3.9s1.4,3.7,2.8,5.3c1.7,2,3.5,2.1,6,2.5
						c1.9,0.3,3.6,1.2,4.8,2.6c3,3.2,5.7,6.7,8,10.4c2.9,4.7,5.6,9.7,9.5,13.6c1.8,2,4,3.6,6.4,4.8c1.5,0.7,3,0.5,2.5-1.6
						c-0.3-1.2-1.5-2.1-2.2-3.1s-0.4-2.1-0.7-3.3c-0.2-1-1.4-2.3-0.9-3.2s1.6-0.6,1.8-1.7c0.2-1.4-1.3-1.7-1.8-2.7s1.3-1.4,1.7-2.4
						c0.2-0.7-0.1-1.4,0-2s0.4-0.7,0.6-1.1c0.4-0.8,0.5-1.7,0.4-2.6C320.9,298.5,319.2,297.1,319.4,295.7z M250.5,224.2
						c0.9-1.2,2.3-3.8,3.4-3.5c0.6,0.3,1.1,0.7,1.5,1.2c0.9,1,2.6,1,3.7,1.3s-0.1,1.5,0,2.5s-0.6,1.5-0.6,0.9c0-0.3-0.1-0.6-0.5-0.3
						c-0.6,0.4-0.5-0.1-0.5-0.7c0.1-0.8-1.7-1-1.9,0.5c0,0.4,0,0.9,0,1.3c0,1.6-1.4,1.8-1.5,0.3v-0.6c0.1-1.6-0.8-3.3-2-2.9
						C250.8,224.7,249.6,225.4,250.5,224.2L250.5,224.2z"/>
					<path class="st3" d="M245.6,177.3c0.3,0.5,1-0.1,1.1-0.4s0.6-1.9,0.2-2.5c-0.2-0.3-0.6-0.1-0.9,0.2c-0.3,0.6-0.6,1.2-0.9,1.8
						C245.2,176.7,245.4,177,245.6,177.3z"/>
					<path class="st3" d="M321.6,193.7c0.6,0.9,1.6,0,2.1-0.3c0.7-0.6,1.1-1.4,1.1-2.3c0-0.7-0.3-1.3-0.8-1.8
						c-0.4-0.4-1.5-1.2-1.9-0.6c-0.2,0.2,0,0.5-0.2,0.7s-0.8,0.2-1.1,0.4c-0.8,0.4,0.1,1.2,0.4,1.7c0.2,0.3,0.3,0.7,0.2,1.1
						C321.5,192.9,321.3,193.3,321.6,193.7z"/>
					<path class="st3" d="M345.2,203.9c0.2-1.5-2-5.2-2.1-3.6c0,0.3,0,0.6,0,0.9C343.2,202.8,345.1,205.4,345.2,203.9z"/>
					<path class="st3" d="M447.9,217.1c0.3-1.1,0.1-2.4-0.9-2.3s-1.2,1.3-1.8,2.3c-0.7,1.2-1.4,2.3-2.3,3.3
						c-0.5,0.6-1.7,0.4-1.6,1.7c0.3,1.9,1.3,3.5,2.8,4.7c1.2,0.9,2.8,0.6,3.7-0.6c0-0.1,0.1-0.1,0.1-0.2c0.2-0.2,0.3-0.5,0.3-0.8
						c0.1-0.5,0.1-1.4,0.3-2c0-1.5-0.1-2.9-0.2-4.4C447.8,218.4,447.7,217.7,447.9,217.1z"/>
					<path class="st3" d="M272.4,250.9c-1,0.2-2,0.1-3-0.2c-1-0.3-2.1-0.6-2.9,0c-0.6,0.5,0.4,1,1,1.2c0.4,0.1,0.8,0.3,1.2,0.4
						c0.7,0.2,1.6,0.6,2.1,0.7c0.3,0.1,0.6,0.1,0.9,0c1.1-0.4,2.1-1.4,3.4-0.9c0.3,0.1,0.9,0.6,1.3,0.5h0.1c0.3-0.2,0.1-0.9-0.2-1.2
						C275.2,250,273.4,250.6,272.4,250.9z"/>
					<path class="st3" d="M350.7,206.5c0.1-0.6-0.4-1.2-1-1.2h0c-0.4-0.1-0.4,0.4-0.2,0.8S350.6,207.6,350.7,206.5z"/>
					<path class="st3" d="M339.4,205.8c0.3-0.6,0.1-1.1-1.2-0.6c-0.2,0.1-0.4,0.5-0.5,1C337.5,206.7,338.9,206.8,339.4,205.8z"/>
					<path class="st3" d="M310.8,172.9c0.3-1.6-2-3.4-2.7-3.1c-0.4,0.2-0.8,0.7-1.1,1c-0.5,0.2-0.9,0.4-1.4,0.5
						c-0.8,0.3-1.3,1.6-2.1,1s-0.7,2,0.5,3.2C306.8,178.3,310.3,175.3,310.8,172.9z"/>
					<path class="st3" d="M253.1,194.2c-0.2,1.5,0,2.8,0.7,2.9s2-1.2,3.1-1.8c1.5-0.9,0-1.3-1.4-2.1
						C254.6,192.7,253.3,192.7,253.1,194.2z"/>
					<path class="st3" d="M296.9,159.5c0.7-0.9,1.9-2.5,1.1-4.1c-0.5-0.9-1.1-1.1-1.4-2.2c-0.1-0.4-0.2-0.8-0.1-1.3
						c0.1-0.7,0.3-1.4,0.5-2.1c0.1-0.4,0.1-0.8-0.2-1.1c-0.5-0.7-1.2-0.6-1.7-0.9c-2.5-1.8,2.5-8,1.5-9c-0.2-0.1-0.4-0.2-0.6-0.2
						c-0.5,0-0.9,0.1-1.4,0.2c-0.3,0.1-0.5,0.2-0.7,0.3c-0.3,0.3-0.5,0.6-0.7,1c-0.3,0.7-0.7,1.5-1,1.3s-0.2-0.2-0.4-0.4
						c-0.6-0.6-0.5,0-1,0.4c-0.2,0.2-1.1,0.5-1.4-0.2s0.4-1.8,0.5-2.3c0.1-0.4,0.3-0.7,0.5-1c0.4-0.4,0-1.4-0.8-1.9
						c-0.8-0.4-1.6-0.5-2.5-0.4c-1.6,0.1-3.2,0.7-4.4,1.8c-0.7,0.6-1.4,1.3-1.9,2c-0.8,1.1-1.3,3.3-2.2,4.6
						c-0.4,0.6-1.1,0.9-1.8,0.8c-1.1,0-2.6,0-4,2.5c-0.8,1.6,0,1.4-0.2,2.7s-1.6,1.4-2,1.7c-0.9,0.7-1.3,1.8-1,2.9
						c0.1,0.2,0.1,0.5-0.5,1.3c-0.7,1-1.5,1.9-2.3,2.8c-0.7,0.7-1.2,1.6-1.4,2.6c-0.2,1,0.1,0.9,0.4,1.1c0.2,0.1,0.3,0.3,0.4,0.4
						c0.2,0.3,0.5,1.2,1,1.3s1.6-0.9,2.6-1.6c1.6-1.1,3-2,4.2-0.8c0.4,0.4,0.7,0.9,0.8,1.5c0.2,1.5,0.3,3,0.1,4.4
						c-0.1,0.7,0,1.3,0.3,1.9c0.6,0.9,1.9,0.6,2.6,1.6c0.5,1.1,0.6,2.3,0.3,3.4c-0.3,1.4-0.9,2.1-1.4,3.3s0.1,2.3,0.2,3.5
						c0.2,1.4,0.6,2.7,1.3,3.9c0.7,1.3,1.5,2.6,2.3,3.9c0.3,0.5,0.7,0.9,1.1,1.2c0.7,0.5,2.3,0.2,3.3-0.3c0.7-0.4,1.2-0.9,1.5-1.6
						c0.8-1.7,0-3.7,0-5.6c0-1.4,0.5-2.7,1.6-3.6c0.9-0.8,2.1-1.5,2.7-2.8c0.5-1,0.5-2.5,1.1-3.5c0.7-1.3,2.3-1.7,3.2-2.5
						c0.7-0.5,2-1.7,1.8-2.9c-0.1-0.6-0.4-0.9-0.3-1.6c0.1-0.4,0.3-0.7,0.6-1c0.2-0.1,0.3-0.3,0.5-0.4c0.3-0.2,0.2-1-0.1-1.4
						s-0.5-0.4-0.6-0.6C296.5,161.6,296.1,160.6,296.9,159.5z"/>
					<path class="st3" d="M246.2,181.1c0.4-0.5,0.8-1.1,0.5-1.2c-0.1-0.1-0.2,0-0.3-0.1s-0.8,0.1-1.8,1.1s-1,2.1-1.8,2.7
						s0.3,2,1.1,2.2c1.2,0.3,2.3-1.3,2.8-2.6C247.3,181.4,245.7,181.7,246.2,181.1z"/>
				</g>
				<path class="st6" d="M353.7,127.1c-70.9-8.9-76.3,39.3-35.8,62.8s103.6,23.4,108.9,2.9S406.4,133.7,353.7,127.1z"/>
				<g class="st7">
					<path class="st3" d="M305,294c-63.8-26.1-62.5-130.6-13.8-163.9l0,0c-1.9,1-3.7,2-5.5,3c-51.1,30.4-68,96.5-37.6,147.7
						s96.5,68,147.7,37.6c24.8-14.8,42.7-38.9,49.6-67C436.1,276,372,321.4,305,294z"/>
				</g>
			</g>
		</g>
		<g id="freepik--character-6--inject-17">
			<g id="freepik--Character--inject-17">
				<path class="st2" d="M461.7,378.8c-16.5,0-29.8-13.4-29.8-29.8c0-16.5,13.4-29.8,29.8-29.8c16.5,0,29.8,13.4,29.8,29.8
					c0,0,0,0,0,0l0,0C491.5,365.5,478.1,378.8,461.7,378.8z"/>
				<path class="st3" d="M461.7,319.9c16.1,0,29.1,13,29.1,29.1c0,16.1-13,29.1-29.1,29.1c-16,0-29.1-13-29.1-29l0,0
					C432.6,332.9,445.6,319.9,461.7,319.9 M461.7,318.4c-16.9,0-30.6,13.7-30.6,30.6c0,16.9,13.7,30.6,30.6,30.6
					c16.9,0,30.6-13.7,30.6-30.6l0,0l0,0C492.3,332.1,478.6,318.4,461.7,318.4L461.7,318.4z"/>
				<g id="freepik--character--inject-17-2">
					<path class="st8" d="M392.7,332.7c0.7-0.2,1.5-0.1,2.1,0.2c1.1,0.5,2.1,1.1,3,1.7c1.6,0.9,4.1,2.2,5.9,2.2
						c0.4,0,1.1-0.2,0.6-0.6c-0.7-0.6-1.3-1.2-1.9-1.8c-0.6-0.7-0.8-1.6-0.7-2.5c0-0.3,0.2-0.5,0.4-0.7c0.3-0.2,0.5-0.1,0.8,0.1
						c0.2,0.2,0.5,0.3,0.8,0.5l1.7,1c3.3,1.9,6.6,4.2,8.5,7.5c0.3,0.5,2,4.3,3.1,6.5c0.9,2,7.6,14.4,7.6,14.4l12-11.7
						c2.7-2.7,5.4-5.2,7.8-6.1c1.4-0.6,2.8-1.4,4.2-2.2l-4.5,21.2c0,0-12.7,9.6-14.5,10.9c-2.7,2-8.1,5.1-10.8,1.8
						c-3.6-4.5-5.4-10.9-7.1-15.9s-2.6-7.9-3.6-9.6s-2.6-1.8-3.7-2.2c-1.6-0.4-3-1.1-4.4-1.9c-1.2-0.7-2.4-1.5-3.4-2.5
						c-0.5-0.4-1-1-1.3-1.6c-0.1-0.6-0.2-1.1-0.3-1.7c-0.4-0.5-0.7-1.1-1-1.7c-0.1-0.5-0.1-1-0.1-1.6c-0.1-0.8-0.5-1.4-1.1-1.9
						c-0.3-0.2-0.6-0.5-0.7-0.9C391.9,333.1,392.2,332.8,392.7,332.7z"/>
					<path class="st9" d="M449.1,340.6c-2.6,0.6-5.1,1.8-7.2,3.5c-2.9,2.3-17.2,14.9-17.2,14.9l-6.1-8.9c0,0-0.1,2.3-3.5,4.3
						c-3.6,2.1-4.9,1.4-4.9,1.4s2.7,10.6,5.6,15.9s4.6,7,9.3,4.8s21-14.3,21-14.3L449.1,340.6z"/>
					<path class="st10" d="M405.9,338.3c0.8,2,2.2,3.8,4,5.1c-1.2-0.1-2.2-0.7-3-1.5C406,340.8,405.7,339.6,405.9,338.3z"/>
					<path d="M424.8,359c1.8,3.1,2.6,6.7,2.2,10.3c1.7-3.8,1.3-8.1-0.9-11.5L424.8,359z"/>
					<path class="st11" d="M483,357.1c-0.6,3.6-1.9,9.4-2.8,14.3c-11.2,9.2-27.5,8.8-38.1-1v-4.1c-2.2-2.4-3.2-5.6-2.8-8.9
						c0.5-5.7,7.9-14.9,9.9-16.8c1.5-0.6,8.4-1.8,8.4-1.8c5.6,0,11.2,0.6,16.6,2c2.1,0.5,4.8,1.5,4.8,1.5
						C480,344.5,484,350.9,483,357.1z"/>
					<g id="freepik--Head--inject-17">
						<g id="freepik--head--inject-17-2">
							<path class="st12" d="M446.9,317.2c-3.2-11.8,7.7-17.9,18.5-15.9c3.6,0.6,8.2,2.7,8.7,7.8c4.7,1.5,7,7.8,4.1,14.5
								c-2.1,4.9-6.3,7.3-8.2,10.3L446.9,317.2z"/>
							<path class="st8" d="M474.3,318.9c-3-1.3-4.5,1.8-4.5,1.8c-2,1.2-3.1-2.7-3.5-3.9c-0.8-2.1-1.5-5-3.8-5.9
								c-1.7-0.6-3.6,0-5.2,0.9c-0.9,0.6-2.1,0.7-3.1,0.4c-0.9-0.3-1.2-1.7-2.1-2.2c-2.5-1.3-4.1,2.8-4.7,4.7
								c-0.6,2.4-0.9,4.8-0.8,7.3c0.2,8.8,2.3,12.7,4.8,13.7c2,0.8,4.2,1.1,6.3,0.8v2.6c-1.9,2.6-2.7,5.8-2.1,9
								c4.9-0.6,12.1-3.2,14.4-7.7v-13c0.6,1.1,3.2,1.7,4.8-0.4C476.8,324.5,477.2,320.2,474.3,318.9z"/>
							<path class="st13" d="M454.6,329.8l4.1-0.9c0.3,1.1-0.3,2.3-1.5,2.7c0,0,0,0,0,0l0,0C456,331.7,454.9,331,454.6,329.8
								C454.6,329.8,454.6,329.8,454.6,329.8z"/>
							<path class="st14" d="M456.3,331.5c0.3,0.1,0.6,0.1,0.9,0c0.8-0.2,1.4-0.8,1.5-1.6C457.7,329.8,456.7,330.5,456.3,331.5z"/>
							<path class="st10" d="M457.6,336.6c2.9-0.4,8-1.8,8.9-4.2c-0.1,1.5-0.8,2.8-2.1,3.6c-1.8,1.4-6.9,2.3-6.9,2.3L457.6,336.6z"
								/>
						</g>
						<path class="st15" d="M448.7,316l2.9-0.8c-0.2-0.8-1-1.3-1.8-1.1c0,0,0,0,0,0h-0.1C449,314.3,448.5,315.2,448.7,316z"/>
						<path class="st15" d="M461.7,316.9l-2.9-0.9c0.2-0.8,1-1.2,1.8-1h0.1C461.4,315.3,461.9,316.1,461.7,316.9z"/>
						<path class="st9" d="M448.9,320.6c0,0.7,0.5,1.3,1.2,1.3c0.6,0,1.2-0.4,1.3-1v-0.1c0.1-0.7-0.4-1.3-1.1-1.4l0,0
							C449.5,319.3,448.9,319.9,448.9,320.6z"/>
						<path class="st9" d="M458.2,321.2c0,0.7,0.5,1.3,1.1,1.3c0.7,0,1.3-0.5,1.3-1.2c0.1-0.7-0.4-1.3-1.1-1.4
							C458.9,320,458.3,320.5,458.2,321.2L458.2,321.2C458.3,321.2,458.3,321.2,458.2,321.2z"/>
						<path class="st10" d="M461.1,320.6c0-0.1,0.1-0.1,0.2-0.1l0.4-0.1l0.5-0.2l0.5-0.1l0.3,0c0.1,0,0.2,0,0.4,0
							c0.1,0,0.1,0.1,0.1,0.2c0,0.1-0.1,0.2-0.2,0.2l-0.2,0.1h-0.4l-0.5,0.1c-0.2,0.1-0.4,0.1-0.6,0.1c-0.1,0-0.2,0-0.3,0
							C461.2,320.8,461.1,320.7,461.1,320.6z"/>
						<path class="st10" d="M461.2,321.6c0.1-0.1,0.3-0.2,0.5-0.3c0.3,0,0.5,0,0.8,0c0.3,0,0.6,0,0.9,0c0.3,0,0.1,0.5-0.1,0.5
							c-0.4,0-0.7,0-1.1,0h-0.8c-0.1,0-0.1,0-0.1-0.1C461.2,321.7,461.2,321.6,461.2,321.6C461.2,321.6,461.2,321.6,461.2,321.6
							L461.2,321.6z"/>
						<path class="st10" d="M461.3,322.2c0.1-0.1,0.2,0,0.3,0l0.2,0l0.4,0.1l0.4,0.1h0.1l0.2,0.1c0.1,0,0.1,0.1,0.1,0.1l0,0
							c0,0.1,0,0.2-0.1,0.2c-0.1,0-0.1,0-0.2,0h-0.2h-0.2l-0.4-0.1c-0.2-0.1-0.3-0.1-0.5-0.2c0,0-0.1-0.1-0.1-0.1
							C461.2,322.3,461.2,322.3,461.3,322.2z"/>
						<path class="st11" d="M443.5,317.6c0.1,0.5,0.3,0.9,0.6,1.3c0.1,0.1,0.2,0.3,0.2,0.5c0.2,1.2,0.5,2.3,0.9,3.5
							c0.6,1.6,2.1,2.6,3.8,2.7c0.4,0,0.8,0,1.3,0h0.1c0.3-0.1,0.7-0.2,1-0.4h0.1l0.1,0l0.1-0.1l0.1-0.1l0.1-0.1l0.1-0.1l0.2-0.2
							c0.3-0.4,0.6-0.8,0.8-1.3c0.5-1.2,0.4-2.9,1.2-3h0.2c1.2,0.1,1.1,1.9,1.8,3.3c0.8,1.7,2.5,2.9,4.4,2.9h0.6c0.2,0,0.4,0,0.6,0
							h0.2h0.2h0.1c0.2-0.1,0.5-0.2,0.7-0.3l0.2-0.1c0.1-0.1,0.3-0.2,0.4-0.3c0.3-0.3,0.6-0.7,0.8-1.2c0.3-1.1,0.6-2.3,0.7-3.5
							c0-0.2,0.1-0.3,0.2-0.5c0.3-0.3,0.5-0.8,0.6-1.2c0-0.5-0.3-0.9-0.7-1.1l-0.6-0.1c-2.1-0.4-4.2-0.5-6.3-0.3c-2,0.4-2.7,1-3.8,1
							s-1.7-0.8-3.6-1.6c-1.9-0.5-3.9-0.7-5.9-0.6H444C443.7,316.6,443.4,317,443.5,317.6z M456.7,319.6c0.2-0.2,0.3-0.3,0.6-0.4
							l0.1,0h0l0.3-0.1l0.3-0.1c0.3-0.1,0.6-0.2,0.9-0.2l0.3-0.1c0.3,0,0.6-0.1,0.9-0.1h0.2c1.3-0.1,2.5,0.2,3.6,0.9
							c0.4,0.4,0.3,2.2,0.1,3.1v0.1c0,0.1,0,0.2-0.1,0.4c0,0.1,0,0.1,0,0.2l0,0c0,0.1-0.1,0.3-0.1,0.4l0,0l-0.1,0.1v0.1v0.1
							l-0.1,0.1l-0.1,0.1l-0.1,0.1l-0.1,0.1c-0.6,0.8-1.6,1.3-2.7,1.1c-1.1,0-2.1-0.5-2.9-1.2l0,0c-0.5-0.5-0.8-1.2-1-1.9
							C456.5,321.3,456.3,320.1,456.7,319.6L456.7,319.6z M445.3,318c0.1-0.1,0.3-0.2,0.5-0.3l0,0c0.1,0,0.1-0.1,0.2-0.1h0.1h0.3
							l0.5,0h1c0.3,0,0.6,0.1,0.9,0.1c1.2,0.2,2.3,0.7,3.2,1.5c0.3,0.9,0.4,1.8,0.1,2.8c0,0.2-0.1,0.5-0.2,0.7v0.3
							c0,0.1,0,0.1-0.1,0.2c0,0,0,0.1-0.1,0.1v0v0.1l-0.1,0.1l0,0c-0.6,0.9-1.7,1.4-2.8,1.1c-0.5,0-1-0.2-1.5-0.4
							c-1-0.7-1.8-1.8-1.9-3C445.2,320.2,444.9,318.4,445.3,318L445.3,318z"/>
						<path class="st11" d="M465.1,318.2l6,1.1c-0.5,0.3-0.8,0.7-1.1,1.2l-4.8-0.8L465.1,318.2z"/>
						<path class="st10" d="M454.8,320.4l-0.8,7.2l-4.2-1.5l4.6-5.9C454.5,320.3,454.7,320.3,454.8,320.4z"/>
						<path class="st16" d="M471.1,326.1c0,0.6,0.5,1.1,1.1,1.2c0.6,0,1.1-0.5,1.2-1.1s-0.5-1.1-1.1-1.2c0,0,0,0-0.1,0
							C471.6,325,471.1,325.5,471.1,326.1z"/>
					</g>
					<path class="st8" d="M449.6,381.8c-2-0.2-3.9-2-6.5-3s-4.7-1-6.5-1.7c-0.7,0.4-0.4,1.9,0.5,2.6c1.3,1,3.4,1.7,2.9,2.2
						c-0.7,0.8-3.5,0.2-4.3,0.1c-2.6-0.5-5.3-2.1-8-1.5c-0.3,0-0.6,0.2-0.7,0.4c-0.2,0.4-0.1,0.8,0.2,1.1c0.3,0.3,0.6,0.5,1,0.7
						c0.4,0.2,0.6,0.5,0.7,0.9c-0.1,0.4-0.1,0.7-0.1,1.1c0,0.2,0.2,0.4,0.3,0.6c0.3,0.3,0.6,0.6,1,0.9c0.3,0.2,0.6,0.4,0.9,0.6
						c0.6,0.4,1.1,1,1.5,1.5c1.4,2.3,4.4,3,6.9,3.4c5.2,0.9,7.6-0.2,10.7-0.1s16.2-0.3,23-0.8c7.1-0.5,7.9-1.8,9.9-8.5
						c2.3-7.9,4-16,5.3-24.1c1.1-8.5,0-12.9-8.4-15.5c-2.3,1.6-5.3,7.4-6.7,18.6l-3,17C470.3,378.3,451.6,382,449.6,381.8z"/>
					<path class="st9" d="M479.1,342.2c3.8,0.8,7.2,1.8,9.2,4.9s1.2,6.4,0.4,12.7s-5.2,22.8-6.3,26.4s-1.8,4.3-5.5,5s-23,0.8-23,0.8
						c0.5-1.7,0.7-3.6,0.4-5.4c-0.3-3.7-1.5-5.2-1.5-5.2L470,378c0,0,2.6-15.9,3.6-20.8S475.6,346.8,479.1,342.2z"/>
					<path d="M470,377.9c2.3-0.2,6.1,1.3,7.3,3.4c-0.5-2.2-2.9-4.7-7-4.7L470,377.9z"/>
				</g>
				<circle class="st3" cx="381.7" cy="283.6" r="1.8"/>
				<polygon class="st3" points="438.6,331.1 397.8,284 381.7,284 381.7,283.2 398.2,283.2 439.2,330.6 				"/>
			</g>
		</g>
		<g id="freepik--character-5--inject-17">
			<g id="freepik--character--inject-17-3">
				<path class="st2" d="M217.7,380.8c-16.5,0-29.9-13.4-29.9-29.8s13.4-29.9,29.8-29.9c16.5,0,29.9,13.4,29.9,29.8c0,0,0,0,0,0l0,0
					C247.5,367.4,234.2,380.8,217.7,380.8z"/>
				<path class="st3" d="M217.7,321.9c16.1,0,29.1,13,29.1,29.1c0,16.1-13,29.1-29.1,29.1c-16,0-29-13-29.1-29l0,0
					C188.7,334.9,201.7,321.9,217.7,321.9 M217.7,320.4c-16.9,0-30.6,13.7-30.6,30.6s13.7,30.6,30.6,30.6
					c16.9,0,30.6-13.7,30.6-30.6c0,0,0,0,0,0l0,0C248.4,334.1,234.6,320.3,217.7,320.4L217.7,320.4z"/>
				<g id="freepik--character--inject-17-4">
					<path class="st17" d="M272.3,322.8c0.4-2.3,0.6-3.2,0.3-3.9s-0.5-0.7-0.9-0.6c0.1-0.7,0.1-1.8-1-2.1l0.1-1.1
						c0.1-0.9-0.3-1.5-0.9-1.5c0.6-1.5,0.5-2.7-0.3-3c-0.3-0.1-1.7,1-2.5,1.8c-2.8,2.7-2.8,1.5-4.9,6.6c-0.7,1.7-2.1,4.2-2.7,7.1
						c-0.3,1.6,0.8,7-0.9,11.2c-2.3,5.1-5,10.1-7.9,14.8c0,0-3.3-3.1-7.2-7.2c-7-7.5-7.5-8.9-12.6-10c-5.1,2.3-2.4,13.7,0.6,19.1
						c5.4,5,11.2,9.6,17.3,13.8c6.2,4.1,9.3,3.3,11.6-1.3c3.1-6.3,7.4-22.8,8.3-25.9c0.8-2.8,2.7-3.2,3.3-6c0.9-4.1-0.6-6.8-0.2-8.7
						C271.9,324.9,272.1,324,272.3,322.8z"/>
					<path class="st18" d="M250.8,352c-2,3.4-3,5.6-2.5,9.2c-1.4-3.2-0.5-7,1.6-10.2L250.8,352z"/>
					<path class="st18" d="M266.4,328.4c2,2,2.6,6.3,1.2,8.6C269.6,335.4,270,331.1,266.4,328.4z"/>
					<path class="st18" d="M262.3,318.7l-0.1,0.2c-0.1,0.3-0.3,0.6-0.4,1l0.6,3.6l-1.1,1.1c-0.7,0.7-1.1,1.7-1.1,2.7l3.1-2.3
						L262.3,318.7z"/>
					<path class="st3" d="M230.1,334.4c3.8,0.8,4.9,1.2,7,3.2s11.3,11.9,11.3,11.9s-3,0.6-5.7,4.7c-1.5,2.2-2.4,4.8-2.5,7.5
						l-9.1-7.7C231.2,354,223.8,340.6,230.1,334.4z"/>
					<path class="st19" d="M230.1,334.4c3.8,0.8,4.9,1.2,7,3.2s11.3,11.9,11.3,11.9s-3,0.6-5.7,4.7c-1.5,2.2-2.4,4.8-2.5,7.5
						l-9.1-7.7C231.2,354,223.8,340.6,230.1,334.4z"/>
					<g id="freepik--Mobile--inject-17">
						<path class="st3" d="M272,304.6l-10.2,5.9c-0.3,0.2-0.5,0.5-0.5,0.9l3.4,23.5c0.1,0.4,0.3,0.7,0.7,0.9
							c0.4,0.1,0.8,0.1,1.2-0.1l10.1-5.9c0.4-0.2,0.6-0.6,0.5-1l-3.4-23.4c-0.1-0.4-0.3-0.7-0.7-0.9
							C272.8,304.4,272.4,304.4,272,304.6z"/>
						<g class="st20">
							<path d="M272,304.6l-10.2,5.9c-0.3,0.2-0.5,0.5-0.5,0.9l3.4,23.5c0.1,0.4,0.3,0.7,0.7,0.9c0.4,0.1,0.8,0.1,1.2-0.1l10.1-5.9
								c0.4-0.2,0.6-0.6,0.5-1l-3.4-23.4c-0.1-0.4-0.3-0.7-0.7-0.9C272.8,304.4,272.4,304.4,272,304.6z"/>
						</g>
						<path class="st3" d="M266.4,335.7c-0.3,0.1-0.7,0.1-1,0c-0.4-0.2-0.6-0.5-0.7-0.9l-3.4-23.5c0-0.2,0-0.3,0.1-0.5l1.1,0.5
							c-0.2,0.2-0.2,0.4-0.2,0.6l3.3,23.2c0,0.3,0.3,0.5,0.5,0.5C266.3,335.8,266.3,335.7,266.4,335.7z"/>
						<g class="st5">
							<path d="M266.4,335.7c-0.3,0.1-0.7,0.1-1,0c-0.4-0.2-0.6-0.5-0.7-0.9l-3.4-23.5c0-0.2,0-0.3,0.1-0.5l1.1,0.5
								c-0.2,0.2-0.2,0.4-0.2,0.6l3.3,23.2c0,0.3,0.3,0.5,0.5,0.5C266.3,335.8,266.3,335.7,266.4,335.7z"/>
						</g>
						<path class="st3" d="M262.7,311.2c-0.3,0.2-0.5,0.5-0.5,0.9l3.3,23.2c0.1,0.5,0.5,0.6,0.9,0.4l10.2-5.9c0.3-0.2,0.5-0.6,0.5-1
							l-3.4-23.4c0-0.3-0.4-0.5-0.7-0.3L262.7,311.2z"/>
						<g class="st7">
							<path d="M262.7,311.2c-0.3,0.2-0.5,0.5-0.5,0.9l3.3,23.2c0.1,0.5,0.5,0.6,0.9,0.4l10.2-5.9c0.3-0.2,0.5-0.6,0.5-1l-3.4-23.4
								c0-0.3-0.4-0.5-0.7-0.3L262.7,311.2z"/>
						</g>
						<path class="st16" d="M263.4,312.5c-0.3,0.2-0.5,0.5-0.5,0.9l3,20.9c0,0.2,0.2,0.4,0.4,0.4c0.1,0,0.2,0,0.2-0.1l9.6-5.5
							c0.3-0.2,0.5-0.5,0.5-0.9l-3-20.9c0-0.3-0.3-0.5-0.6-0.3L263.4,312.5z"/>
						<path class="st12" d="M272.9,313.3l-2.6,1.4c-0.4,0.2-0.7,0.2-0.8-0.1s0.2-0.6,0.6-0.8l2.6-1.4c0.4-0.2,0.7-0.2,0.8,0.1
							S273.3,313.1,272.9,313.3z"/>
						<path class="st12" d="M273.2,315.1l-2.6,1.4c-0.4,0.2-0.7,0.2-0.8-0.1s0.2-0.6,0.6-0.8l2.6-1.4c0.4-0.2,0.7-0.2,0.8,0.1
							S273.6,314.9,273.2,315.1z"/>
						<path class="st12" d="M273.7,319l-2.6,1.4c-0.4,0.2-0.7,0.2-0.8-0.1s0.2-0.6,0.6-0.8l2.6-1.4c0.4-0.2,0.7-0.2,0.8,0.1
							S274.1,318.8,273.7,319z"/>
						<path class="st12" d="M274,320.8l-2.6,1.4c-0.4,0.2-0.7,0.2-0.8-0.1s0.2-0.6,0.6-0.8l2.6-1.4c0.4-0.2,0.7-0.2,0.8,0.1
							S274.4,320.6,274,320.8z"/>
						<path class="st12" d="M274.6,324.7l-2.6,1.4c-0.4,0.2-0.7,0.2-0.8-0.1s0.2-0.6,0.6-0.8l2.6-1.4c0.4-0.2,0.7-0.2,0.8,0.1
							S275,324.5,274.6,324.7z"/>
						<path class="st12" d="M274.9,326.4l-2.6,1.4c-0.4,0.2-0.7,0.2-0.8-0.1s0.2-0.6,0.6-0.8l2.6-1.4c0.4-0.2,0.7-0.2,0.8,0.1
							S275.2,326.2,274.9,326.4z"/>
						<path class="st12" d="M264.9,316.1l3.6-2.1c0.1-0.1,0.2-0.1,0.3,0c0,0,0,0,0,0c0,0,0.1,0.1,0,0.2l0.5,3.5
							c0,0.2-0.1,0.5-0.3,0.6l-3.6,2.1c-0.1,0.1-0.3,0.1-0.3-0.1c0,0,0,0,0,0c0,0-0.1-0.1,0-0.1l-0.5-3.5
							C264.6,316.4,264.7,316.2,264.9,316.1z"/>
						<path class="st12" d="M265.6,321.6l3.6-2.1c0.1-0.1,0.3-0.1,0.3,0c0,0,0,0,0,0c0,0,0,0.1,0,0.1l0.5,3.5c0,0.2-0.1,0.5-0.3,0.6
							l-3.6,2.1c-0.1,0.1-0.3,0.1-0.3-0.1c0,0,0,0,0,0c0,0,0-0.1,0-0.1l-0.5-3.5C265.4,322,265.5,321.8,265.6,321.6z"/>
						<path class="st12" d="M266.4,327.2l3.6-2.1c0.1-0.1,0.3,0,0.3,0.1c0,0,0,0.1,0,0.1l0.5,3.5c0,0.2-0.1,0.4-0.3,0.6l-3.6,2
							c-0.1,0.1-0.2,0.1-0.3,0c0,0,0-0.1,0-0.1l-0.5-3.5C266.2,327.5,266.3,327.3,266.4,327.2z"/>
						<path class="st15" d="M263.5,313.8v-0.1c0,0,0,0,0-0.1l0,0V313.8z"/>
						<path class="st15" d="M263.6,313.7v-0.2v-0.1l0,0V313.7C263.7,313.7,263.7,313.7,263.6,313.7L263.6,313.7
							C263.6,313.7,263.6,313.7,263.6,313.7z"/>
						<path class="st15" d="M263.8,313.6l0-0.3c0,0,0,0,0-0.1l0,0L263.8,313.6C263.8,313.6,263.8,313.6,263.8,313.6L263.8,313.6z"/>
						<path class="st15" d="M263.9,313.6l-0.1-0.6c0,0,0,0,0-0.1l0,0l0,0L263.9,313.6L263.9,313.6L263.9,313.6
							C263.9,313.6,263.9,313.6,263.9,313.6z"/>
						<path class="st15" d="M264.2,313.4L264.2,313.4L264.2,313.4h-0.1l0,0v-0.1l0.1-0.4l0,0v0.3l0,0L264.2,313.4L264.2,313.4
							L264.2,313.4z M264.2,313.2V313V313.2L264.2,313.2z"/>
						<path class="st15" d="M264.4,313.3c0,0-0.1-0.1-0.1-0.2c0-0.1,0-0.1,0-0.2c0-0.1,0.1-0.1,0.1-0.1h0.1v0h-0.1
							c0,0,0,0.1-0.1,0.1c0,0.1,0,0.1,0,0.2C264.4,313.1,264.4,313.1,264.4,313.3C264.4,313.2,264.4,313.2,264.4,313.3L264.4,313.3
							l0.1-0.3h-0.1l0,0l0,0l0,0l0.1-0.1l0,0v0.2l0,0C264.5,313.2,264.4,313.2,264.4,313.3L264.4,313.3z"/>
						<path class="st15" d="M272.9,307.8l-0.4,0.2c0,0-0.1,0.1,0,0.2v0.3c0,0,0,0.1,0,0.1l0,0l0.4-0.2c0,0,0-0.1,0-0.2L272.9,307.8
							C272.9,307.9,273,307.8,272.9,307.8L272.9,307.8z M272.6,308.5v-0.3c0,0,0-0.1,0-0.1l0.4-0.2l0,0v0.3c0,0,0,0.1,0,0.1
							L272.6,308.5L272.6,308.5z"/>
						<path class="st15" d="M272.8,308l0,0.3l-0.2,0.1l0,0v-0.2c0,0,0-0.1,0-0.1L272.8,308z"/>
						<path class="st15" d="M273.1,307.9L273.1,307.9v0.3l0,0V307.9z"/>
						<path class="st15" d="M265.1,312.8c0,0.1,0,0.1-0.1,0.2c0,0-0.1,0-0.1-0.1c0-0.1,0-0.1,0.1-0.1
							C265.1,312.7,265.1,312.7,265.1,312.8z"/>
						<path class="st15" d="M265,312.5c-0.1,0.1-0.1,0.2-0.2,0.3 M264.8,312.8L264.8,312.8C264.8,312.8,264.8,312.8,264.8,312.8
							c0-0.1,0.1-0.2,0.1-0.2c0,0,0.1,0,0.1,0l0,0h0v-0.1c0-0.1-0.1-0.1-0.2-0.1L264.8,312.8z"/>
						<path class="st15" d="M265,312.3c-0.1,0.1-0.2,0.2-0.2,0.4v0.1l0,0c0,0,0,0,0,0c0-0.1,0.1-0.2,0.2-0.3c0.1-0.1,0.2,0,0.3,0
							l0,0v-0.1C265.2,312.4,265.1,312.3,265,312.3z"/>
						<path class="st9" d="M267.4,309.3l1.7-1c0.1,0,0.2,0,0.2,0c0,0,0,0,0,0c0,0.1-0.1,0.2-0.2,0.3l-1.7,1c-0.1,0-0.2,0-0.2,0
							c0,0,0,0,0,0C267.2,309.4,267.2,309.3,267.4,309.3z"/>
						<path class="st9" d="M270.2,307.6c0,0,0.1,0,0.2,0c0,0,0,0,0,0c0,0,0,0.1,0,0.1c0,0.1-0.1,0.2-0.1,0.3c-0.1,0-0.1,0-0.2,0
							c0,0,0,0,0,0C270.1,307.7,270.1,307.6,270.2,307.6z"/>
						<path class="st9" d="M270.9,307.2c0,0,0.1,0,0.2,0c0,0,0,0,0,0c0,0,0,0,0,0.1c0,0.1-0.1,0.2-0.1,0.3c-0.1,0-0.1,0-0.2,0
							c0,0,0,0,0,0C270.8,307.3,270.8,307.2,270.9,307.2z"/>
						<path class="st9" d="M265.4,310.4c0.1,0,0.1,0,0.2,0c0,0,0,0,0,0.1c0,0.1,0,0.2-0.1,0.3c0,0-0.1,0.1-0.2,0c0,0,0,0,0,0v-0.1
							C265.3,310.5,265.3,310.4,265.4,310.4z"/>
						<path class="st9" d="M266.2,310c0.1,0,0.2,0,0.2,0c0,0,0,0,0,0c0,0.1-0.1,0.2-0.1,0.3c-0.1,0-0.1,0-0.2,0v-0.1
							C266,310.2,266.1,310.1,266.2,310z"/>
					</g>
					<path class="st17" d="M259.6,331.4c0-3.4,0.5-5.3,2.2-6.7c2.2-1.8,3-5.2,3.8-5.1c1,0.2,1.9,2.4,0.6,5.2c-1.5,3.1-2.3,5.2-2,6.9
						C264.5,333.7,259.6,331.4,259.6,331.4z"/>
					<path class="st9" d="M237.4,372.3c-11.5,10.6-29.4,10.2-40.4-1v-8.5l0.2-3l0,0l1.9-24.4c4.5-1.3,9-2.2,13.7-2.7
						c3.9-0.4,7.9-0.2,11.7,0.6c7.4,1.2,10.7,1,11.6,13.9C236.6,352.7,237.1,363,237.4,372.3z"/>
					<g id="freepik--head--inject-17-3">
						<path d="M210.1,321.9l-0.2-3.9c0,0,2.5-3.4,2.7-6.2c0.3-3.6-0.4-5.1-0.4-5.1c-1.3-1-4.1-3.3-5.7-3.5c-2.3-0.2-3.7,3.2-4,4.4
							c-0.8,4.3-0.1,8.7,2,12.5c1.1,2,3.5,4.2,4.5,7.2C209.7,325.6,210.1,323.8,210.1,321.9z"/>
						<path d="M206.5,303c-1.4,5.6,10.2,17.4,16,17.4s9.7-7.7,9.7-13.5s-2.9-9.8-11.2-10.5C215.1,295.9,207.8,297.8,206.5,303z"/>
						<path class="st17" d="M205.3,323.5c1.2,0.6,2.6,0.3,3.5-0.6l0.4,12c0.9,1.8,2.4,3.2,4.2,4c2.9,1.2,6.5,1.8,8.9,0.9
							s3.7-2.8,0.2-5.7l-0.1-3.5c1.4,0.1,2.7,0.1,4.1,0c2.6-0.4,4.2-2.5,4.9-5.2c1.2-4.5,0.9-11.2-0.9-19.9
							c-2.9-2.2-12.3-2.5-18.4,1.4c0.3,5.1-0.4,6.9-0.6,7.6s-1.1,2.8-1.8,2.9c-1.2,0.2-1.4-1.1-2.2-2c-1.5-1.1-3.6-0.7-4.7,0.8
							c0,0,0,0,0,0c-0.1,0.2-0.3,0.4-0.4,0.6C201.1,319.5,203.5,322.8,205.3,323.5z"/>
						<path class="st18" d="M222.4,330.5c-4.1-0.4-9.2-2.2-10.5-4.1c-0.8-1-1.4-2.1-1.8-3.3c0,0,0.2,3.2,1.2,4.9s4.8,4.4,11.2,4.8
							L222.4,330.5z"/>
						<path class="st9" d="M220,315.2c0,0.6-0.5,1.2-1.1,1.2c0,0,0,0,0,0l0,0c-0.7,0.1-1.3-0.4-1.3-1c-0.1-0.7,0.4-1.3,1-1.3
							c0.1,0,0.1,0,0.2,0C219.4,314,220,314.5,220,315.2L220,315.2z"/>
						<path class="st9" d="M219.8,310.5l-2.6,1.1c-0.3-0.7,0-1.6,0.8-1.9C218.7,309.4,219.5,309.7,219.8,310.5L219.8,310.5z"/>
						<path class="st9" d="M230,311.4l-2.8-0.7c0.1-0.7,0.9-1.2,1.6-1.1c0,0,0,0,0,0h0.1C229.7,309.8,230.2,310.6,230,311.4z"/>
						<path class="st9" d="M230.1,315c0,0.6-0.5,1.2-1.1,1.2l0,0c-0.7,0-1.2-0.5-1.2-1.1c0,0,0,0,0,0c0-0.7,0.5-1.2,1.1-1.3
							C229.5,313.8,230.1,314.3,230.1,315z"/>
						<path class="st15" d="M214.2,311.5l-8.9,3.1c1-0.1,2,0.4,2.6,1.2l6.3-2.4L214.2,311.5z"/>
						<path class="st15" d="M234.6,311l-0.6,0c-1.9-0.2-3.9-0.1-5.8,0.3c-1.9,0.6-2.5,1.3-3.5,1.3s-1.8-0.6-3.7-1.1
							c-2.1-0.4-4.2-0.4-6.2-0.1l-0.6,0.1c-0.5,0.2-0.7,0.6-0.7,1.1c0.1,0.4,0.3,0.9,0.6,1.2c0.1,0.2,0.2,0.3,0.2,0.5
							c0.1,1.1,0.4,2.2,0.7,3.3c0.2,0.4,0.5,0.8,0.8,1.2c0.1,0.1,0.2,0.2,0.4,0.4l0.2,0.2c0.2,0.1,0.4,0.2,0.7,0.3h0.1l0.2,0h0.2
							c0.2,0,0.4,0.1,0.6,0.1h0.6c1.8,0.1,3.5-0.9,4.3-2.6c0.6-1.3,0.5-3.1,1.7-3.1h0.2c0.9,0.2,0.7,1.8,1.2,3
							c0.2,0.5,0.5,0.9,0.8,1.3l0.2,0.2l0.1,0.1l0.1,0.1l0.1,0.1l0.1,0.1l0.1,0.1l0,0c0.3,0.2,0.7,0.3,1,0.4h0.1
							c0.4,0.1,0.8,0.1,1.2,0.1c1.6,0.1,3.1-0.9,3.6-2.4c0.3-1.1,0.6-2.2,0.8-3.4c0-0.2,0.1-0.3,0.2-0.4c0.3-0.4,0.5-0.8,0.6-1.2
							C235.1,311.6,234.9,311.2,234.6,311z M222.3,316c-0.1,0.7-0.5,1.3-0.9,1.8c-0.7,0.7-1.8,1.1-2.8,1.1c-1,0.1-2-0.4-2.6-1.2
							c0,0-0.1-0.1-0.1-0.1l-0.1-0.1l-0.1-0.1l-0.1-0.1c0,0,0-0.1,0-0.1V317l-0.1-0.1c0-0.1-0.1-0.2-0.1-0.4l0,0c0-0.1,0-0.2,0-0.2
							c-0.1-0.1-0.1-0.2-0.1-0.4s0,0,0-0.1v-0.1c-0.2-0.9-0.4-2.6,0.1-3c1-0.7,2.3-0.9,3.5-0.7h0.2c0.3,0,0.6,0.1,0.9,0.1l0.3,0.1
							c0.3,0.1,0.6,0.2,0.8,0.3l0.3,0.1l0.3,0.1h0.1h0.1c0.2,0.1,0.4,0.3,0.6,0.5C222.7,314.2,222.6,315.1,222.3,316L222.3,316z
							 M233.3,315.5c-0.2,1.2-0.8,2.2-1.8,2.9c-0.4,0.2-0.9,0.3-1.4,0.3c-1.1,0.1-2.2-0.4-2.8-1.3l0,0v-0.1c0,0,0-0.1-0.1-0.1l0,0
							c0-0.1-0.1-0.1-0.1-0.1c0-0.1-0.1-0.1-0.1-0.2c0,0,0,0,0-0.1v-0.1c0,0,0,0,0-0.1c-0.1-0.2-0.1-0.4-0.2-0.6
							c-0.2-0.9-0.2-1.8,0.1-2.7c0.9-0.8,2-1.3,3.1-1.4c0.3,0,0.6-0.1,0.9-0.1h1c0.1,0,0.3,0,0.4,0.1h0.3h0.1l0.2,0.1l0,0
							c0.2,0.1,0.3,0.2,0.5,0.3C233.8,312.8,233.6,314.5,233.3,315.5L233.3,315.5z"/>
						<path class="st18" d="M229,319.7l-4.1,1.1l-0.7-6.5c0.1-0.1,0.3-0.2,0.5-0.2h0.2c0.1,0,0.2,0.1,0.2,0.1
							C225.2,314.3,229,319.7,229,319.7z"/>
						<path class="st18" d="M220.3,322.4l4.8,1c-0.2,1.3-1.4,2.2-2.7,2c0,0,0,0,0,0h-0.1C220.9,325.1,220.1,323.8,220.3,322.4z"/>
						<path class="st21" d="M220.9,323.2c-0.2,0-0.4,0-0.6,0c0.1,1.3,1.1,2.3,2.4,2.3c0.1,0,0.2,0,0.3,0
							C223,324.2,222.1,323.3,220.9,323.2z"/>
					</g>
					<path class="st17" d="M205.4,381.8c1.9,1.1,4.7,0.7,7.6,1.4s4.8,2.1,6.8,2.6c0.4,0.8-0.9,1.9-2.1,2c-1.8,0.1-4-0.7-3.9,0.1
						c0.1,1.2,2.9,2.4,3.7,2.8c2.6,1.1,6,1.5,8,3.7c0.2,0.2,0.4,0.5,0.4,0.8c-0.1,0.4-0.4,0.8-0.9,0.8c-0.4,0.1-0.9,0.1-1.3,0
						c-0.4,0-0.9,0.1-1.2,0.4c-0.3,0.3-0.3,0.8-0.6,1c-0.2,0.2-0.4,0.3-0.7,0.4c-0.5,0.1-0.9,0.2-1.4,0.2c-0.4,0-0.8,0-1.1,0
						c-0.8,0-1.6,0.2-2.3,0.4c-2.7,1.1-5.8-0.2-8.2-1.3c-5.2-2.5-6.9-4.7-9.3-6.8c-3.3-2.9-9.8-8.8-14.7-13.9
						c-5.3-5.5-6-6.6-3.4-13.8c2.8-7.4,3.3-8.8,6.1-14.2c3.6-7,4.8-10.9,12.2-12.4c2.3,2.2,3.8,8.2,0.8,19.6l-5.4,11.4
						C194.6,367,203.5,380.8,205.4,381.8z"/>
					<path class="st3" d="M200.8,355.4l-5.7,10.7c-2.8,0-10.8-3.3-12.8-7.8c3-7.4,3.9-9.3,6.2-14.2c3.2-6.7,5.9-8,12.7-9.2
						C204.8,341.9,201.7,353.1,200.8,355.4z"/>
					<path class="st19" d="M200.8,355.4l-5.7,10.7c-2.8,0-10.8-3.3-12.8-7.8c3-7.4,3.9-9.3,6.2-14.2c3.2-6.7,5.9-8,12.7-9.2
						C204.8,341.9,201.7,353.1,200.8,355.4z"/>
				</g>
				<circle class="st3" cx="304.5" cy="277.9" r="1.8"/>
				<polygon class="st3" points="240.8,333.1 240.2,332.6 287.9,277.5 304.5,277.5 304.5,278.3 288.3,278.3 				"/>
			</g>
		</g>
		<g id="freepik--character-4--inject-17">
			<g id="freepik--character--inject-17-5">
				
					<ellipse transform="matrix(0.1602 -0.9871 0.9871 0.1602 187.6157 682.8758)" class="st2" cx="495.1" cy="231.2" rx="29.8" ry="29.8"/>
				<path class="st3" d="M495.1,202.1c16.1,0,29.1,13,29,29.1c0,16.1-13,29.1-29.1,29c-16,0-29-13-29-29.1l0,0
					C466,215.1,479,202.1,495.1,202.1L495.1,202.1 M495,200.6c-16.9,0-30.6,13.7-30.6,30.6s13.7,30.6,30.6,30.6
					c16.9,0,30.6-13.7,30.6-30.6C525.7,214.3,512,200.6,495,200.6C495.1,200.6,495.1,200.6,495,200.6z"/>
				<g id="freepik--character--inject-17-6">
					<g id="freepik--Ponytail--inject-17">
						<path class="st11" d="M512.3,236.4c-4.4,1.2-11.1,1.2-14.4-2.6c-3.1-3.6-3.2-7.6-3.4-12c0-0.6-0.1-1.2-0.2-1.7
							c-0.4-1.5-0.6-3-0.8-4.6c-0.2-1.6-0.3-3.1-0.4-4.7c-0.1-3.1,0-6.1,0.4-9.2c0.1-1.7,0.5-3.3,1-4.9c0.6-1.6,1.6-2.9,3-3.9
							c1.1-0.7,2.3-1,3.6-1c3,0,5.9,1.5,7.6,4c1.8,2.5,1.9,5.8,1.9,8.9c0.3,10.1,1.1,20.2,2.4,30.2c0.1,0.4,0,0.7-0.2,1.1
							C512.7,236.2,512.5,236.3,512.3,236.4z"/>
						<path class="st3" d="M497,194.2c0.8-0.8,4-0.3,6,1.7s2.6,5,1.4,5.9S495.7,196.4,497,194.2z"/>
					</g>
					<path class="st3" d="M485.5,231.2l-1.8,18.5c0,0-2.5,2.9-4.8,5.6c-4.2-2.8-7.7-6.7-9.9-11.3c1.9-2.9,3.6-5.4,4.6-6.6
						C476.6,233.7,477.9,231.9,485.5,231.2z"/>
					<path class="st22" d="M485.5,231.2l-1.8,18.5c0,0-2.5,2.9-4.8,5.6c-4.2-2.8-7.7-6.7-9.9-11.3c1.9-2.9,3.6-5.4,4.6-6.6
						C476.6,233.7,477.9,231.9,485.5,231.2z"/>
					<path class="st16" d="M512.9,245.7c-0.6,2.7-1.4,6.3-2.2,10.1c-4.1,2.6-8.8,4.1-13.7,4.4c-0.6,0-1.2,0.1-1.9,0.1
						c-5.8,0-11.4-1.7-16.2-5c-0.9-0.6-1.8-1.3-2.6-2c-1.3-1.1-2.5-2.3-3.5-3.5v-0.3c-0.1-4.4,1.1-6.8,5-11.8c2-2.5,4.1-5,6.4-7.2
						c0.1-0.1,0.1-0.1,0.2-0.2l0.1-0.1l0.1-0.1c0.1-0.1,0.1-0.1,0.2-0.2l0.1-0.1l0,0l11.6-1.8l3.9,1.2l6.3,2
						C508.6,231.7,515.2,235.7,512.9,245.7z"/>
					<path class="st3" d="M485,229.7L485,229.7c0,0-0.1,0.1-0.1,0.1c-0.1,0.1-0.1,0.1-0.2,0.2l-0.1,0.1l-0.1,0.1l-0.2,0.2
						c-2.6,2.9-5.4,8.9-6.5,12.7c-0.8,1.7-1.2,5.5-1.4,10.1c-1.3-1.1-2.5-2.3-3.5-3.6c-0.3-0.3-0.6-0.7-0.8-1
						c0.2-1.9,0.7-3.8,1.5-5.6C475.3,239.8,482.2,231.2,485,229.7z"/>
					<g class="st23">
						<path d="M485,229.7L485,229.7c0,0-0.1,0.1-0.1,0.1c-0.1,0.1-0.1,0.1-0.2,0.2l-0.1,0.1l-0.1,0.1l-0.2,0.2
							c-2.6,2.9-5.4,8.9-6.5,12.7c-0.8,1.7-1.2,5.5-1.4,10.1c-1.3-1.1-2.5-2.3-3.5-3.6c-0.3-0.3-0.6-0.7-0.8-1
							c0.2-1.9,0.7-3.8,1.5-5.6C475.3,239.8,482.2,231.2,485,229.7z"/>
					</g>
					<path class="st9" d="M488.9,230.1c-1.9,1.3-10.6,7.3-12.3,18.8c0.1-5,1.4-9.9,3.7-14.3c2.2-3.6,5.2-7,8.5-8L488.9,230.1z"/>
					<path class="st3" d="M512.8,254.2c-0.3,0.3-0.7,0.5-1,0.7s-0.8,0.5-1.1,0.8c-4.1,2.6-8.8,4.1-13.7,4.4v-3.4
						c0.1-7.9,3.5-24.2,3.6-26.4v-1.2c0.1-0.4,0.1-0.7,0-1.1l5,2.1c0,0,3.4,0.9,5.5,1.6c2.6,0.8,2.3,3.9,2.7,7.3
						C514.3,243.2,513.5,248.9,512.8,254.2z"/>
					<g class="st23">
						<path d="M512.8,254.2c-0.3,0.3-0.7,0.5-1,0.7s-0.8,0.5-1.1,0.8c-4.1,2.6-8.8,4.1-13.7,4.4v-3.4c0.1-7.9,3.5-24.2,3.6-26.4
							v-1.2c0.1-0.4,0.1-0.7,0-1.1l5,2.1c0,0,3.4,0.9,5.5,1.6c2.6,0.8,2.3,3.9,2.7,7.3C514.3,243.2,513.5,248.9,512.8,254.2z"/>
					</g>
					<path class="st15" d="M480.5,198.3c-5.3,0.2-8.3,8.2-4.7,13.7c6.4,9.8,21.9,4,21.9,4l2.9,8.4c0,0,2.9-3.2,4.9-5.9
						c3.6-4.8,4-16.2-1.8-17.3C504.5,195.2,488.3,188.1,480.5,198.3z"/>
					<path class="st8" d="M480.5,202.3c-0.9,1.7-2.9,4.4-2.6,14c0.2,7.5,2.9,9.1,5.3,10.1c1.2,0.5,3.1,0.5,5.6,0.2l0.1,3.5
						c0,0-4.7,4.3-3.2,13c14.5-6.1,14.7-13.5,14.7-13.5l0.4-11.7c0.5,0.8,2.8,1.8,4.6-0.5c2.1-2.7,1.6-6-0.2-7.2s-4.2-0.1-5.1,2.2
						c-2,0.9-4.8-1.3-4.6-9.2c-2.5-1.3-7.3,0.5-8.9,0.4C484.3,203.3,482.9,201,480.5,202.3z"/>
					<path class="st3" d="M504.3,216.3c0.1,0.6-0.3,1.1-0.9,1.2c0,0,0,0,0,0c-0.6,0.1-1.1-0.3-1.2-0.9c-0.1-0.6,0.3-1.1,0.9-1.2l0,0
						C503.6,215.3,504.2,215.8,504.3,216.3L504.3,216.3z"/>
					<path class="st10" d="M488.9,226.6c6.3-1.4,9.9-3.9,10.5-6.5c0,0-0.4,3.3-2.2,4.8c-2.5,2.1-8.3,3.4-8.3,3.4L488.9,226.6z"/>
					<path class="st13" d="M485.5,220l4.4-1.6c0.5,1.1,0,2.4-1.2,2.9c0,0,0,0,0,0l-0.1,0.1C487.4,221.8,486,221.2,485.5,220z"/>
					<path class="st14" d="M487.6,221.5c0.3,0,0.7,0,1-0.1c0.8-0.3,1.4-1,1.5-1.9C488.9,219.5,487.9,220.3,487.6,221.5z"/>
					<ellipse class="st9" cx="490.1" cy="212.4" rx="1.3" ry="1.3"/>
					<path class="st9" d="M482.4,212c0,0.7-0.6,1.3-1.3,1.3c-0.7,0-1.3-0.6-1.3-1.3c0-0.7,0.6-1.3,1.3-1.3c0,0,0,0,0,0l0,0
						C481.8,210.7,482.4,211.3,482.4,212C482.4,212,482.4,212,482.4,212z"/>
					<polygon class="st10" points="486.6,209.6 485.9,218.1 481.8,216.5 					"/>
					<path class="st9" d="M479.1,209.9l2.9-1c-0.2-0.8-1.1-1.2-1.9-1c0,0,0,0,0,0h-0.1C479.3,208.2,478.8,209.1,479.1,209.9z"/>
					<path class="st9" d="M492.6,210.3l-2.9-1.2c0.3-0.8,1.2-1.2,1.9-0.9c0,0,0,0,0,0h0.1C492.5,208.6,492.9,209.5,492.6,210.3z"/>
					<path class="st9" d="M500.6,225.8c1,0,1.2,0.6,2.5,2c0.7,0.8,1.5,1.6,2.4,2.3c-1.2,7.2-6.9,16.2-8.5,24.7
						c-0.1-6.9,1.8-16.3,3.5-26.8L500.6,225.8z"/>
					<path class="st3" d="M522.2,241.7c-2.1,5.3-5.7,10-10.4,13.3c-1.3-2.3-2.3-4-2.3-4s-4.3-12,1.5-19.3c4.9,1.2,7.5,2.6,9,5.7
						C520.7,238.7,521.4,240.2,522.2,241.7z"/>
					<path class="st22" d="M522.2,241.7c-2.1,5.3-5.7,10-10.4,13.3c-1.3-2.3-2.3-4-2.3-4s-4.3-12,1.5-19.3c4.9,1.2,7.5,2.6,9,5.7
						C520.7,238.7,521.4,240.2,522.2,241.7z"/>
				</g>
				<path class="st3" d="M378.6,239.1c0,1,0.8,1.8,1.8,1.8c1,0,1.8-0.8,1.8-1.8c0-1-0.8-1.8-1.8-1.8c0,0,0,0,0,0l0,0
					C379.4,237.3,378.6,238.1,378.6,239.1z"/>
				<polygon class="st3" points="398.4,239.5 380.5,239.5 380.5,238.8 398.1,238.8 408.2,230.8 466,230.8 466,231.6 408.5,231.6 
									"/>
			</g>
		</g>
		<g id="freepik--character-3--inject-17">
			<g id="freepik--character--inject-17-7">
				<circle class="st2" cx="186.8" cy="208.4" r="29.8"/>
				<path class="st3" d="M186.8,179.3c16.1,0,29.1,13,29.1,29.1c0,16.1-13,29.1-29.1,29.1c-16.1,0-29.1-13-29.1-29.1c0,0,0,0,0,0
					l0,0C157.7,192.3,170.7,179.3,186.8,179.3 M186.8,177.7c-16.9,0-30.6,13.7-30.6,30.6s13.7,30.6,30.6,30.6s30.6-13.7,30.6-30.6
					c0,0,0,0,0,0C217.4,191.4,203.7,177.7,186.8,177.7L186.8,177.7z"/>
				<g id="freepik--character--inject-17-8">
					<g id="freepik--Top--inject-17">
						<path class="st9" d="M213.3,220.2c-1.9,4.4-4.9,8.2-8.7,11.1c-0.4,0.3-0.8,0.6-1.3,0.9c-0.5-0.6-0.7-0.9-0.7-0.9l-3.5-23
							c3.6,0.8,5.4,1.1,7.7,3.4C209.2,214.3,211.4,217.2,213.3,220.2z"/>
						<g id="freepik--top--inject-17-2">
							<path class="st11" d="M204.6,231.3c-0.4,0.3-0.8,0.6-1.2,0.9c-10.4,7.2-24.3,6.9-34.4-0.9c-0.3-0.2-0.6-0.5-0.9-0.7
								c-1.3-1.1-2.4-2.2-3.5-3.5c0-2.6,0.2-5.2,0.6-7.8c0.4-2.4,0.6-4.9,0.6-7.4v-0.6l14.4-5.4l11.7,0.8l7.3,1.5
								c2.5,2.1,4.2,6,4.9,13.1C204.3,223.9,204.5,227.4,204.6,231.3z"/>
							<g id="freepik--head--inject-17-4">
								<path class="st11" d="M175.6,174.8c-1.7,0.4-3.1,1.7-3.6,3.4c-0.8,2.3,0,6.4,1,11.4s1.7,7.1,2.4,8.5
									c0.4,0.9,1.2,1.5,2.1,1.8l0.1-5.9l-0.1-4.1c0,0,2.7-3.5,3.1-6.4c0.5-3.8-0.2-5.3-0.2-5.3L175.6,174.8z"/>
								<path class="st11" d="M175.6,174.8c0.7-3.3,5.4-7.2,11.9-6.5s9.8,2.6,12,6.5s0.5,6.7,0.5,6.7l-19.8-0.8L175.6,174.8z"/>
								<path class="st13" d="M172.5,195.4c2.1,1.5,4.1-0.7,4.1-0.7l0.5,12.1c0,0-0.3,2.3,3.3,4.5c5.2,3.1,8.1,2.2,10.2,5.4
									c2.4-4.4,3.3-7.6-0.6-10.5v-2.8c1.4,0.2,2.8,0.2,4.2,0.1c2.7-0.3,4.5-2.4,5.4-5.3c1.4-4.6,1.5-12.8-0.7-21.1
									c-3.5-2.8-12.2-2.7-18.7,1c0.1,5.4-1.4,7.7-1.5,9.6c-0.3,0.6-0.7,1.1-1.2,1.5c-1,0.8-1.7-1.4-2.5-2.3s-3.4-2.1-4.9,0.6
									S170.6,194.2,172.5,195.4z"/>
								<path class="st9" d="M186.9,184l-2.8,1.6c-0.4-0.8-0.2-1.8,0.6-2.3c0.7-0.4,1.7-0.2,2.1,0.6
									C186.9,183.9,186.9,183.9,186.9,184C186.9,183.9,186.9,184,186.9,184z"/>
								<path class="st9" d="M198.4,184.1l-3.1-1c0.2-0.8,1.1-1.3,1.9-1.1h0.1C198.2,182.3,198.7,183.3,198.4,184.1z"/>
								<path class="st9" d="M185.4,187.2c0,0.7,0.6,1.3,1.3,1.3s1.3-0.6,1.3-1.3c0-0.7-0.6-1.3-1.3-1.3c0,0,0,0,0,0l0,0
									C186,185.9,185.4,186.5,185.4,187.2C185.4,187.2,185.4,187.2,185.4,187.2z"/>
								<circle class="st9" cx="196.5" cy="186.6" r="1.3"/>
								<path class="st24" d="M190.6,183.9l0.9,8l4.7-1.1C195.1,188,193.1,185.6,190.6,183.9z"/>
								<path class="st11" d="M178.8,187.1c0.4,5.7,2.2,6.5,4.3,6.8c2.7,0.4,5.2-0.9,8.9-1.2c2.9-0.2,4,0.9,5.7,1.6
									c1.2,0.5,2.2,0.5,2.5-0.9c0.4-2.6,0.5-5.2,0.3-7.8c0.4,3.5,0.5,6.9,0.2,10.4c-0.4,2.7-1,5.2-2.5,6.5c-2,1.8-6.4,2.1-11.8,1
									s-7.4-2.9-8.1-4.8c-2.2-6.2-1.4-9.1-2.1-10.2S178.8,187.1,178.8,187.1z"/>
								<path class="st24" d="M188.9,194.7l3.6,0.9c-0.2,1-1.2,1.6-2.2,1.4h-0.1C189.2,196.7,188.6,195.7,188.9,194.7z"/>
								<path class="st14" d="M189.3,195.3h-0.5c0.1,0.8,0.6,1.5,1.4,1.7c0.2,0,0.4,0,0.6,0C190.8,196.1,190.2,195.4,189.3,195.3z"
									/>
								<path class="st9" d="M190.6,216.8c-1.1-1.3-4.7-3.2-6.4-1.5s-1.1,3.2-2.3,3.1c-1.6-0.1-4.8-3-6.4-4.8
									c-1.2-1.5-2.2-3.1-3-4.9c0.9-0.6,1.7-1.3,2.3-2.2c0.9-1.2,1-2.5,2-2.5l0.1,2.8c0,0,0.6,1.4,3.4,3.2S188.6,212.5,190.6,216.8
									z"/>
								<path class="st9" d="M190.6,216.8c0.9-0.8,2.1-2.9,3.6-2.5s2.3,3,2.3,2.2c-0.4-2.5-1.3-4.9-2.5-7.1c-1.1-1.7-3-4.5-4-4.7
									v2.2c0,0,2.4,3.7,2.2,5.1S190.8,215.4,190.6,216.8z"/>
							</g>
						</g>
					</g>
					<g id="freepik--Arm--inject-17">
						<path class="st13" d="M168.1,230.6c-4.8-4-8.1-9.4-9.6-15.5c2.2-1.5,4.7-2.6,7.2-3.2l0.1,0.1c1.7,2.8,2.7,5.9,3,9.1
							C169.1,224.3,168.8,227.5,168.1,230.6z"/>
						<path class="st9" d="M169.3,229.9l-0.3,1.5c-1.6-1.2-3.1-2.7-4.4-4.2c-3-3.5-5.1-7.7-6.2-12.2c2.3-1.5,4.7-2.7,7.3-3.5
							C171.1,216.8,169.3,229.9,169.3,229.9z"/>
					</g>
				</g>
				<path class="st3" d="M256.7,216.3c0,1-0.8,1.8-1.8,1.8s-1.8-0.8-1.8-1.8c0-1,0.8-1.8,1.8-1.8c0,0,0,0,0,0
					C255.8,214.5,256.7,215.3,256.7,216.3z"/>
				<polygon class="st3" points="254.8,216.7 236.9,216.7 226.8,208.7 215.8,208.7 215.8,208 227.1,208 237.2,215.9 254.8,215.9 
									"/>
			</g>
		</g>
		<g id="freepik--character-2--inject-17">
			<g id="freepik--character--inject-17-9">
				<circle class="st2" cx="427.5" cy="96.7" r="29.8"/>
				<path class="st3" d="M427.5,67.6c16.1,0,29.1,13,29.1,29.1c0,16.1-13,29.1-29.1,29.1c-16.1,0-29.1-13-29.1-29.1c0,0,0,0,0,0l0,0
					C398.4,80.6,411.4,67.6,427.5,67.6L427.5,67.6 M427.4,66.1c-16.9,0-30.6,13.7-30.6,30.6s13.7,30.6,30.6,30.6
					c16.9,0,30.6-13.7,30.6-30.6C458.1,79.8,444.4,66,427.4,66.1C427.4,66,427.4,66.1,427.4,66.1z"/>
				<g id="freepik--character--inject-17-10">
					<path class="st21" d="M405,97.1c-2.6,2.3-13.4,11.1-13.4,11.1c-1.5-3-3.2-6.6-4.6-9.8c-1.5-3.5-2.5-7.1-3-10.8
						c-0.2-1.4-0.5-2.8-0.9-4.2c-0.4-1.4-0.5-2.8-0.4-4.3c0.1-0.7-1.7-1-2.6,1.2c-0.5,1.4-0.7,2.9-0.7,4.4c-0.8-0.4-1.9-1.3-3.6-2.2
						s-4.3-2.9-5.7-1.1c-0.5,0.8,0,1.6,0,1.8s-0.3,0.4-0.5,0.6c-0.6,0.7-0.8,1.7-0.5,2.6c0.1,0.2,0.2,0.4,0.2,0.6
						c0,0.4-0.4,0.8-0.5,1.1c-0.1,0.5-0.1,0.9,0,1.4c0.1,0.7,0.4,1.3,0.6,2c0.1,0.4,0.2,0.8,0.3,1.2c0.3,0.9,0.9,1.7,1.7,2.1
						c1.1,0.6,2.2,1.3,3.9,2.2c1.3,0.7,1.9,2.8,2.6,6.1c2.1,7.9,2.3,13,4.2,17.2c2.5,5.6,6.3,4.8,13.3,0.8
						c8.6-4.8,14.8-8.1,14.8-8.1l6.9-22.2C412.6,91.2,407.6,94.8,405,97.1z"/>
					<path class="st11" d="M420.5,89.8c-5.9,0.2-7.2,1.3-10.6,3.6s-13.5,11-13.5,11c1.1,4.9,3.8,9.4,7.6,12.7l11.3-6.5L420.5,89.8z"
						/>
					<path class="st14" d="M377.2,84.8c1.3,0.6,1.6,1.5,1.4,3.4c-0.1,1.2,0,3.3,1.1,4.3c-0.6-0.1-1.1-0.4-1.5-0.9
						c-0.5-0.7-0.7-0.8-1-0.4c-0.3,0.2-0.6,0.3-0.9,0.4c0.4,0.5,0.4,1.3,0,1.8c-0.7,0.9-3.7,0.2-5.8-1.2c0,0,3.8,2,4.7,0.9
						s-1.2-3.2-2.6-3.7c0,0,3.7,1.7,4.3,0.6s-1-2.6-3-3.3c0,0,3.1,1.3,3.7,0.4C378.1,86.4,377.9,85.4,377.2,84.8z"/>
					<path class="st14" d="M391.6,108.2c1.7,3.2,2.4,7,2,10.6c0,0,2.2-4.7-0.5-11.8L391.6,108.2z"/>
					<path class="st3" d="M448.7,116.6c-10.1,10.8-26.8,12.3-38.7,3.3c0.2-6.8,0-12.3,0.2-15c1.1-11.5,4.3-14.6,10.1-15.1l9.7-0.7
						c2.8,0.7,13.2,4.2,15.9,5.8c1.9,1.2,2.6,5.6,2.7,12.7C448.8,110.6,448.8,113.4,448.7,116.6z"/>
					<path class="st15" d="M412.2,62.7c0.3,0.3,0.6,0.6,1,0.8c-0.7,0-1.4,0.5-1.6,1.2c-0.2,0.7-0.1,1.4,0.2,2.1
						c0.3,0.9,0.9,1.7,1.6,2.3c0.8,0.6,1.7,1,2.7,1.4c0.6,0.4,1.2,0.9,1.7,1.4c0.8,0.6,1.6,1.3,2.5,1.9c1.7,1.2,3.4,2.3,5.2,3.3
						c1.7,1,3.5,1.8,5.4,2.5c1.6,0.6,3.3,0.9,5,0.9l0.4,5c0,0,0.7-1.3,1.5-2.9c0.7-1.3,3.5-8.2,3.5-8.2c1.1-2.7,2.2-5.5,2-8.5
						c-0.1-2.4-0.9-4.2-2.7-5.2c0.5-2.3-0.4-4.6-2.2-6c-1.4-1-3.1-1.6-4.8-1.8c-2-0.2-3.9-0.1-5.9,0.2c-5.4,0.9-11,2.5-16.2-0.2
						c-0.1,0.8,0,1.7,0.4,2.5c0.7,1.7,1.7,3.2,3.1,4.5l-3-0.4c-0.1,0-0.2,0-0.3,0c-0.1,0.1-0.1,0.2-0.1,0.3
						C411.2,61,411.5,62,412.2,62.7z"/>
					<path class="st21" d="M431.2,61c0,1.8,1.7,4.9,4.2,7c-0.4,2-0.4,4-0.1,6c0.1,0.4,0.2,0.8,0.5,1.2c0.2,0.4,0.6,0.6,1,0.7
						c0.5,0,0.9-0.3,1-0.8c0.3-0.6,0.5-1.1,0.9-1.7c0.1-0.2,0.3-0.4,0.5-0.6c0.9-0.8,3.5-1.8,4.7,0.9s-1,6.7-3.1,7.2
						c-3.6,1-4.4-1.4-4.4-1.4l0.1,11.9c-1,3-6.6,6-11.1,5.4s-3.1-3.3-1.3-5.1l-0.2-4.1c-1.6,0.2-3.2,0.1-4.8-0.1
						c-2.3-0.6-4.1-2.4-4.6-4.7c-1.5-5.4-1-13.3-0.3-16.7s2.5-5.6,3.5-6.1c0,0.7,0.6,2.5,4.2,3C425.9,63.3,428.5,62.2,431.2,61z"/>
					<path class="st14" d="M424,87.6c2.7-0.2,5.4-0.8,7.9-1.8c2.7-1.4,3-4.3,3.3-5.2c0,0,0,4.5-2.3,6.2c-2.9,2.1-8.8,2.5-8.8,2.5
						L424,87.6z"/>
					<path class="st15" d="M427.4,67.7l2.9,1.4c0.4-0.8,0-1.8-0.8-2.2C428.7,66.5,427.8,66.8,427.4,67.7L427.4,67.7z"/>
					<path class="st13" d="M427.1,79.3l-4.7,1.7c0.4,1.3,1.8,2,3.1,1.6c0,0,0,0,0,0l0,0C426.9,82.1,427.6,80.7,427.1,79.3z"/>
					<path class="st14" d="M424.4,82.7c0.1-1.2,1.1-2.1,2.3-2.1c0.2,0,0.4,0,0.6,0.1c-0.2,0.9-0.8,1.6-1.6,1.9
						C425.2,82.7,424.8,82.8,424.4,82.7z"/>
					<path class="st15" d="M415.7,68.7l2.8-1.5c-0.4-0.7-1.3-1-2.1-0.6C415.6,66.9,415.3,67.9,415.7,68.7z"/>
					<polygon class="st14" points="423,78 418.7,76.6 423.6,68.6 					"/>
					<path class="st9" d="M418.8,71.5c0,0.7-0.6,1.3-1.3,1.3c-0.7-0.1-1.2-0.7-1.2-1.4c0.1-0.6,0.5-1.1,1.2-1.2l0,0
						C418.2,70.2,418.8,70.8,418.8,71.5C418.8,71.5,418.8,71.5,418.8,71.5z"/>
					<path class="st9" d="M429,71.6c0,0.7-0.5,1.3-1.2,1.3s-1.3-0.5-1.3-1.2s0.5-1.3,1.2-1.3c0,0,0,0,0,0l0,0
						C428.4,70.3,429,70.9,429,71.6C429,71.6,429,71.6,429,71.6z"/>
					<path class="st11" d="M454.6,107c-2.5,6.6-7.3,12-13.5,15.3c-0.6-3-1.9-8.5-2.2-10.6c-0.5-2.9-1.4-14.5,7-16.8
						c1.9,0.8,3.6,1.9,5.2,3.2c0.8,0.8,2,1.4,2.9,5.8C454.3,104.7,454.5,105.7,454.6,107z"/>
				</g>
				<polygon class="st3" points="408.8,158.7 408.4,158.1 427.1,143.7 427.1,125.7 427.9,125.7 427.9,144.1 427.7,144.2 				"/>
				<path class="st3" d="M406.8,158.4c0,1,0.8,1.8,1.8,1.8c1,0,1.8-0.8,1.8-1.8c0-1-0.8-1.8-1.8-1.8c0,0,0,0,0,0l0,0
					C407.6,156.6,406.8,157.4,406.8,158.4C406.8,158.4,406.8,158.4,406.8,158.4z"/>
			</g>
		</g>
		<g id="freepik--character-1--inject-17">
			<g id="freepik--character--inject-17-11">
				<circle class="st2" cx="235.9" cy="96.7" r="29.8"/>
				<path class="st3" d="M235.9,67.6c16.1,0,29.1,13,29.1,29.1c0,16.1-13,29.1-29.1,29.1s-29.1-13-29.1-29.1c0,0,0,0,0,0l0,0
					C206.9,80.6,219.9,67.6,235.9,67.6C235.9,67.6,235.9,67.6,235.9,67.6 M235.9,66.1c-16.9,0-30.6,13.7-30.6,30.6
					s13.7,30.6,30.6,30.6s30.6-13.7,30.6-30.6l0,0C266.5,79.8,252.8,66.1,235.9,66.1z"/>
				<g id="freepik--character--inject-17-12">
					<path class="st11" d="M255,99.6c-1.4,3.3-3.6,6.3-6.4,8.5c-1.8,1.6-3.8,2.9-6.1,3.9c-1.9,0.7-3.8,1.2-5.8,1.5
						c-7.9,1.3-20.2,1.2-24.4-7.1c-1.1-2-1.2-4.5-0.2-6.6c0.6-1.2,1.7-2.3,1.8-3.8c0.1-1.9-1.5-3.4-2.1-5.2
						c-0.9-2.8,1.3-5.2,3.4-6.8c2.6-2,2.9-3,3-5.3c0-1.1-0.3-2.1-0.4-3.1c-0.1-2.2,0.5-4.5,1.5-6.5c1.1-1.8,2.8-3.2,4.8-3.9l22-0.6
						c0.3,1.3,0.6,2.5,0.8,3.8c0.3,2,1.5,3.2,2.7,4.8c1.3,1.8,2.7,3.6,2.6,5.8s-1.6,4.6-1,6.7c0.4,1.6,1.8,2.7,2.8,3.9
						C256,92.5,256.2,96.3,255,99.6z"/>
					<path class="st21" d="M245.7,94.5c9-0.8,10.1,0.8,17.8,6l12.1,8.1c0,0,4.6-14.9,4.5-17.1c-0.2-2.6-1.5-4-2.2-6.7
						s-0.7-4.6-1.5-5.7s1.5-1.6,2.6-0.2s1.4,3.4,2,3s0.7-4.8-0.2-7.9s0.8-4.1,1.5-3.1c0.4,0.5,0.8,1,1,1.6c0.3-0.1,0.5-0.2,0.8-0.2
						c0.4-0.1,0.9-0.1,1.2,0.2c0.4,0.3,0.6,0.6,1,0.8c0.4,0.2,0.8,0.3,1.2,0.4c3,1.1,3.2,6.1,3.4,8.7c0.3,5.4-1.9,8.4-2.5,10.5
						c-0.2,0.8-0.2,3.2-0.6,8.4c-0.4,5.9-0.6,12-2.7,18.1c-1.8,5.1-5.3,4.9-9.1,3.4c-5.4-2.2-21.1-10.8-21.1-10.8
						C248.6,105.2,245.7,94.5,245.7,94.5z"/>
					<path class="st14" d="M282.6,83c0,0,3.5,1.8,3,7c0,0,1.6-2.8,0.2-5C285.1,83.8,283.9,83.1,282.6,83z"/>
					<path class="st14" d="M275.6,108.6c0,0-1.4,3.1-0.5,8.6c-1.6-2.9-1.9-6.3-0.8-9.4L275.6,108.6z"/>
					<g id="freepik--Chest--inject-17">
						<path class="st3" d="M259.4,113.9c-9.5,12.9-27.6,15.7-40.5,6.3c-0.5-0.4-1-0.8-1.5-1.2c-0.2-3.2-0.3-6.4-0.1-9.6
							c0-1.7,0.2-3.4,0.6-5.1c0.3-1.4,0.9-2.7,1.6-3.9c1.1-1.8,3.2-2.7,5.4-3.2c1.8-0.4,3.6-0.7,5.2-1l2.2-0.5l9.8-0.8l3.5-0.3
							c4.4,2.2,10.2,8.5,12.9,14.6C259.1,110.6,259.4,112.2,259.4,113.9z"/>
						<path class="st25" d="M259.4,113.9c-9.5,12.9-27.6,15.7-40.5,6.3c-0.5-0.4-1-0.8-1.5-1.2c-0.2-3.2-0.3-6.4-0.1-9.6
							c0-1.7,0.2-3.4,0.6-5.1c0.3-1.4,0.9-2.7,1.6-3.9c1.1-1.8,3.2-2.7,5.4-3.2c1.8-0.4,3.6-0.7,5.2-1l2.2-0.5l9.8-0.8l3.5-0.3
							c4.4,2.2,10.2,8.5,12.9,14.6C259.1,110.6,259.4,112.2,259.4,113.9z"/>
					</g>
					<path class="st21" d="M228.2,109.2c-0.6,3.2-1.6,6.2-3,9.1l-1.9,4.5c-4.4-2.2-8.3-5.4-11.1-9.4c0.8-2.3,1.9-5.3,3.2-8
						c2.4-5.2,3.4-7.2,9.5-8.2C228.2,99.3,228.8,104.5,228.2,109.2z"/>
					<g id="freepik--head--inject-17-5">
						<path class="st11" d="M229.7,90c0.2-0.8-1.6-3.9-2.5-5.2c-3-3.7-4.5-4.7-5.6-9.4c-0.9-3.6,0.1-7.4,2.6-10.2
							c2.1-5.3,5.6-7.8,11.9-8.7c2.7-0.3,5.5-0.2,8.2,0.3c1.2,0.3,2.3,0.6,3.5,0.8c1.2,0.2,2.4,0.1,3.6-0.3c0.6-0.2,1.3-0.6,1.8-0.3
							c0.3,0.2,0.4,0.6,0.4,0.9c0,1.5-0.7,2.9-2,3.7c1.8-0.4,3.6,0.7,4,2.5c0.4,1.5-0.3,3-1.7,3.7c0.9,0.9,1.1,2.3,0.4,3.4
							c-0.7,1-1.7,1.8-2.9,2.3c-3.4,1.8-6.3,4.3-9.3,6.7l-8.5,6.7l-2.8,2.2C230.6,89.3,229.7,89.9,229.7,90z"/>
						<path class="st21" d="M247,62.7c3.3,1.4,6.2,3.5,6.1,14.8c-0.1,8.8-2.9,11.2-4.3,11.9c-2.1,0.9-4.4,1.2-6.7,0.9v5.3
							c0,0,8.5,7,5.6,12.3c-14-3.3-17.7-11.4-17.7-11.4l-0.5-12.8c-1.1,0.9-2.5,1-3.7,0.3c-2.4-1.1-3.4-4-2.2-6.4c0,0,0,0,0,0
							c0.2-0.4,0.4-0.7,0.7-1c1.2-1.5,3.4-1.7,4.9-0.5c0.3,0.2,0.5,0.5,0.7,0.9c0,0-1.4-8.2,3.5-12C239.1,60.8,243.1,61.1,247,62.7z
							"/>
						<path class="st14" d="M228.4,77.7v-0.1c-0.1-0.5-0.4-0.8-0.8-1.1c-0.3-0.3-0.6-0.5-0.9-0.6c-0.9-0.2-1.9,0.1-2.4,0.9
							c-0.5,0.6-0.9,1.4-1.1,2.2c-0.1-0.5-0.1-1.1,0.1-1.6c0.3-1,1-1.9,1.9-2.4c0.9-0.6,2-0.7,3-0.3c0.9,0.4,1.6,1.2,1.7,2.2
							c0.2,1.2-0.5,2-1.3,2.8c-0.1,0.1-0.2,0.2-0.4,0.3c-0.1,0.1-0.3,0-0.4-0.1c-0.1-0.1-0.1-0.3,0-0.5c0.1-0.3,0.3-0.5,0.5-0.8
							C228.3,78.4,228.4,78.1,228.4,77.7z"/>
						<path class="st16" d="M228.8,81.2c0,0.2,0,0.4-0.1,0.6c-0.3,0.5-1.1,0.5-1.6,0.3c-0.6-0.2-1.1-0.5-1.6-1
							c-0.7-0.9-1.1-2.4,0-3.2c0.7-0.5,1.7-0.4,2.2,0.3c0,0,0,0,0,0l0,0c0.2,0.5,0.3,1,0.3,1.5c0,0.2,0.1,0.5,0.2,0.6
							c0.2,0.2,0.4,0.4,0.5,0.6C228.7,81.1,228.8,81.1,228.8,81.2z"/>
						<path class="st13" d="M241.3,83c-0.2,1.1,0.5,2.2,1.7,2.4h0.2c1.3,0.2,2.5-0.6,2.8-1.8L241.3,83z"/>
						<path class="st14" d="M244,85.4c0-1-0.9-1.8-1.9-1.7H242c-0.2,0-0.4,0.1-0.6,0.1c0.2,0.9,1,1.6,1.9,1.6
							C243.5,85.5,243.8,85.5,244,85.4z"/>
						<path class="st9" d="M241.2,75.6c0,0.7-0.6,1.2-1.2,1.2c-0.6,0.1-1.2-0.4-1.2-1c0,0,0-0.1,0-0.1c0-0.7,0.6-1.2,1.2-1.2
							C240.6,74.4,241.1,74.9,241.2,75.6C241.2,75.5,241.2,75.5,241.2,75.6C241.2,75.5,241.2,75.6,241.2,75.6z"/>
						<path class="st9" d="M250.4,74.5c0,0.7-0.6,1.2-1.2,1.2c-0.6,0.1-1.2-0.4-1.2-1c0,0,0,0,0,0c0,0,0-0.1,0-0.1
							c0-0.7,0.6-1.2,1.2-1.2c0.6-0.1,1.2,0.4,1.2,1C250.4,74.4,250.4,74.4,250.4,74.5C250.4,74.4,250.4,74.4,250.4,74.5z"/>
						<polygon class="st14" points="244.5,73.7 245.2,80.4 249.5,79.2 						"/>
						<path class="st14" d="M242,90.4c-2.6-0.2-8.3-1.2-10.8-5.2c0.3,1.5,1,3,2.1,4.1c2.5,2.3,8.7,3.2,8.7,3.2L242,90.4z"/>
						<path class="st9" d="M239.9,71.6l-2.7,2.2c-0.6-0.7-0.4-1.8,0.3-2.3C238.2,70.8,239.3,70.9,239.9,71.6z"/>
						<path class="st9" d="M251.1,71.6l-3.2-1c0.3-0.9,1.3-1.4,2.2-1.1c0.8,0.3,1.3,1.1,1.1,2C251.1,71.5,251.1,71.5,251.1,71.6
							L251.1,71.6z"/>
						<path class="st11" d="M243.9,66.2c-1.4,0.3-3.2-1.8-6.1-0.7c-3.1,1.2-2.1,4.5-4.3,6.4c-1.7,1.5,0,5.2-1.8,6.1
							c-0.8,0.4-1.9-0.8-1.9-0.8s-1.6-2.1-1.2-7.2s7.5-9,12.7-9.5s10.5,2.4,10.6,6.9c0,0-1.3-2.8-3.7-3S245.2,65.9,243.9,66.2z"/>
					</g>
				</g>
				<polygon class="st3" points="316.1,206 235.5,144.1 235.5,125.7 236.3,125.7 236.3,143.7 316.5,205.4 				"/>
				<path class="st3" d="M318.1,205.7c0,1-0.8,1.8-1.8,1.8c-1,0-1.8-0.8-1.8-1.8c0-1,0.8-1.8,1.8-1.8c0,0,0,0,0,0l0,0
					C317.3,203.9,318.1,204.7,318.1,205.7z"/>
			</g>
		</g>
		<g id="WA_Logo">
			<g id="shape_4">
				<path class="st2" d="M257.3,56.2l2.6-9.6c-5.1-8.8-2-20.1,6.8-25.2s20.1-2,25.2,6.8c5.1,8.8,2,20.1-6.8,25.2
					c-2.8,1.6-6,2.5-9.2,2.5l0,0c-3.1,0-6.1-0.8-8.8-2.2L257.3,56.2z M267.5,50.3l0.6,0.3c2.4,1.4,5.1,2.1,7.8,2.1l0,0
					c8.5,0,15.4-6.9,15.4-15.3c0-8.5-6.9-15.4-15.3-15.4s-15.4,6.9-15.4,15.3c0,2.9,0.8,5.7,2.3,8.2l0.4,0.6l-1.5,5.7L267.5,50.3z"
					/>
			</g>
			
				<linearGradient id="shape_3_00000002354074724207403050000015979980023018878123_" gradientUnits="userSpaceOnUse" x1="275.8251" y1="369.7256" x2="275.8251" y2="405.7273" gradientTransform="matrix(1 0 0 -1 0 425.2756)">
				<stop  offset="0" style="stop-color:#20B038"/>
				<stop  offset="1" style="stop-color:#60D66A"/>
			</linearGradient>
			<path id="shape_3" style="fill:url(#shape_3_00000002354074724207403050000015979980023018878123_);" d="M257.9,55.5l2.5-9.2
				c-4.9-8.5-2-19.4,6.5-24.4c7-4,15.8-2.9,21.6,2.9c3.4,3.3,5.2,7.9,5.2,12.6c0,9.8-8,17.8-17.8,17.8l0,0c-3,0-5.9-0.7-8.5-2.2
				L257.9,55.5z"/>
			<g id="shape_2">
				
					<linearGradient id="SVGID_00000103233660984480490730000014730116341146101138_" gradientUnits="userSpaceOnUse" x1="275.8294" y1="369.0856" x2="275.8294" y2="406.3587" gradientTransform="matrix(1 0 0 -1 0 425.2756)">
					<stop  offset="0" style="stop-color:#F9F9F9"/>
					<stop  offset="1" style="stop-color:#FFFFFF"/>
				</linearGradient>
				<path style="fill:url(#SVGID_00000103233660984480490730000014730116341146101138_);" d="M257.3,56.2l2.6-9.6
					c-5.1-8.8-2-20.1,6.8-25.2s20.1-2,25.2,6.8c5.1,8.8,2,20.1-6.8,25.2c-2.8,1.6-6,2.5-9.2,2.5l0,0c-3.1,0-6.1-0.8-8.8-2.2
					L257.3,56.2z M267.5,50.3l0.6,0.3c2.4,1.4,5.1,2.1,7.8,2.1l0,0c8.5,0,15.4-6.9,15.4-15.3c0-8.5-6.9-15.4-15.3-15.4
					s-15.4,6.9-15.4,15.3c0,2.9,0.8,5.7,2.3,8.2l0.4,0.6l-1.5,5.7L267.5,50.3z"/>
			</g>
			<g id="shape_1">
				<path class="st28" d="M271.3,29.7c-0.4-0.8-0.7-0.8-1-0.8h-0.9c-0.5,0-0.9,0.2-1.2,0.6c-1.1,1-1.6,2.4-1.6,3.9
					c0.2,1.7,0.8,3.4,1.9,4.8c0.2,0.3,3.2,5.1,7.9,7c3.9,1.5,4.7,1.2,5.5,1.2c1.3-0.3,2.5-1.1,3.1-2.2c0.3-0.7,0.4-1.5,0.3-2.2
					c-0.1-0.2-0.4-0.3-0.9-0.5s-2.7-1.3-3.1-1.5s-0.7-0.2-1,0.2s-1.2,1.5-1.5,1.8s-0.5,0.3-1,0.1c-1.4-0.5-2.7-1.3-3.8-2.3
					c-1-0.9-1.9-2-2.6-3.2c-0.3-0.5,0-0.7,0.2-0.9s0.5-0.5,0.7-0.8c0.2-0.2,0.3-0.5,0.5-0.8c0.1-0.3,0.1-0.6,0-0.8
					C272.6,32.9,271.7,30.6,271.3,29.7z"/>
			</g>
		</g>
		<g id="WA_Logo-2">
			<g id="shape_4-2">
				<path class="st2" d="M514.7,205.8l2.8-10.3c-5.5-9.5-2.2-21.7,7.3-27.1c9.5-5.5,21.7-2.2,27.1,7.3c5.5,9.5,2.2,21.7-7.3,27.1
					c-3,1.7-6.4,2.7-9.9,2.7l0,0c-3.3,0-6.6-0.8-9.5-2.4L514.7,205.8z M525.7,199.4l0.6,0.4c2.5,1.5,5.4,2.3,8.4,2.3l0,0
					c9.1,0,16.5-7.4,16.5-16.5c0-9.1-7.4-16.5-16.5-16.5s-16.5,7.4-16.5,16.5c0,3.1,0.9,6.2,2.5,8.8l0.4,0.6l-1.6,6.1L525.7,199.4z"
					/>
			</g>
			
				<linearGradient id="shape_3-2_00000064319521577063824710000009967508993721038254_" gradientUnits="userSpaceOnUse" x1="534.6804" y1="220.2056" x2="534.6804" y2="258.9188" gradientTransform="matrix(1 0 0 -1 0 425.2756)">
				<stop  offset="0" style="stop-color:#20B038"/>
				<stop  offset="1" style="stop-color:#60D66A"/>
			</linearGradient>
			<path id="shape_3-2" style="fill:url(#shape_3-2_00000064319521577063824710000009967508993721038254_);" d="M515.4,205.1
				l2.7-9.9c-5.3-9.2-2.1-20.9,7-26.2c9.2-5.3,20.9-2.1,26.2,7s2.1,20.9-7,26.2c-2.9,1.7-6.2,2.6-9.6,2.6l0,0
				c-3.2,0-6.4-0.8-9.2-2.3L515.4,205.1z"/>
			<g id="shape_2-2">
				
					<linearGradient id="SVGID_00000043442619646624694160000000698499829451373954_" gradientUnits="userSpaceOnUse" x1="534.6749" y1="219.5156" x2="534.6749" y2="259.5989" gradientTransform="matrix(1 0 0 -1 0 425.2756)">
					<stop  offset="0" style="stop-color:#F9F9F9"/>
					<stop  offset="1" style="stop-color:#FFFFFF"/>
				</linearGradient>
				<path style="fill:url(#SVGID_00000043442619646624694160000000698499829451373954_);" d="M514.7,205.8l2.8-10.3
					c-5.5-9.5-2.2-21.7,7.3-27.1c9.5-5.5,21.7-2.2,27.1,7.3c5.5,9.5,2.2,21.7-7.3,27.1c-3,1.7-6.4,2.7-9.9,2.7l0,0
					c-3.3,0-6.6-0.8-9.5-2.4L514.7,205.8z M525.7,199.4l0.6,0.4c2.5,1.5,5.4,2.3,8.4,2.3l0,0c9.1,0,16.5-7.4,16.5-16.5
					c0-9.1-7.4-16.5-16.5-16.5s-16.5,7.4-16.5,16.5c0,3.1,0.9,6.2,2.5,8.8l0.4,0.6l-1.6,6.1L525.7,199.4z"/>
			</g>
			<g id="shape_1-2">
				<path class="st28" d="M529.8,177.2c-0.4-0.8-0.8-0.8-1.1-0.9h-1c-0.5,0-1,0.2-1.3,0.6c-1.1,1.1-1.8,2.6-1.7,4.1
					c0.2,1.9,0.8,3.7,2,5.1c0.2,0.3,3.4,5.5,8.5,7.5c4.2,1.7,5,1.3,6,1.2s2.9-1.2,3.3-2.4c0.3-0.7,0.4-1.6,0.3-2.4
					c-0.1-0.2-0.5-0.3-1-0.6s-2.9-1.4-3.4-1.6s-0.8-0.2-1.1,0.2s-1.3,1.6-1.6,1.9s-0.6,0.4-1.1,0.1c-1.5-0.6-2.8-1.4-4-2.5
					c-1.1-1-2-2.2-2.8-3.4c-0.2-0.3-0.1-0.8,0.2-1c0.2-0.2,0.5-0.6,0.8-0.9c0.2-0.2,0.4-0.5,0.5-0.8c0.2-0.3,0.2-0.6,0-0.9
					C531.2,180.7,530.2,178.2,529.8,177.2z"/>
			</g>
		</g>
		<g id="WA_Logo-3">
			<g id="shape_4-3">
				<path class="st2" d="M156.7,335.9l1.9-7.1c-3.8-6.6-1.5-15,5-18.7c6.6-3.8,15-1.5,18.7,5c3.8,6.6,1.5,15-5,18.7
					c-2.1,1.2-4.5,1.8-6.9,1.8l0,0c-2.3,0-4.5-0.6-6.5-1.6L156.7,335.9z M164.3,331.5l0.4,0.2c1.8,1,3.8,1.6,5.8,1.6l0,0
					c6.3,0,11.4-5.1,11.4-11.4c0-6.3-5.1-11.4-11.4-11.4c-6.3,0-11.4,5.1-11.4,11.4c0,0,0,0,0,0c0,2.1,0.6,4.2,1.7,6.1l0.3,0.4
					l-1.1,4.2L164.3,331.5z"/>
			</g>
			
				<linearGradient id="shape_3-3_00000047026863338279147660000018344018354632180878_" gradientUnits="userSpaceOnUse" x1="170.4571" y1="89.8956" x2="170.4571" y2="116.6078" gradientTransform="matrix(1 0 0 -1 0 425.2756)">
				<stop  offset="0" style="stop-color:#20B038"/>
				<stop  offset="1" style="stop-color:#60D66A"/>
			</linearGradient>
			<path id="shape_3-3" style="fill:url(#shape_3-3_00000047026863338279147660000018344018354632180878_);" d="M157.2,335.4
				l1.9-6.9c-3.7-6.3-1.5-14.4,4.9-18.1s14.4-1.5,18.1,4.9c3.7,6.3,1.5,14.4-4.9,18.1c-2,1.2-4.3,1.8-6.6,1.8l0,0
				c-2.2,0-4.4-0.6-6.3-1.6L157.2,335.4z"/>
			<g id="shape_2-3">
				
					<linearGradient id="SVGID_00000043451620131788489390000000664557078672382088_" gradientUnits="userSpaceOnUse" x1="170.465" y1="89.4156" x2="170.465" y2="117.0979" gradientTransform="matrix(1 0 0 -1 0 425.2756)">
					<stop  offset="0" style="stop-color:#F9F9F9"/>
					<stop  offset="1" style="stop-color:#FFFFFF"/>
				</linearGradient>
				<path style="fill:url(#SVGID_00000043451620131788489390000000664557078672382088_);" d="M156.7,335.9l1.9-7.1
					c-3.8-6.6-1.5-15,5-18.7c6.6-3.8,15-1.5,18.7,5c3.8,6.6,1.5,15-5,18.7c-2.1,1.2-4.5,1.8-6.9,1.8l0,0c-2.3,0-4.5-0.6-6.5-1.6
					L156.7,335.9z M164.3,331.5l0.4,0.2c1.8,1,3.8,1.6,5.8,1.6l0,0c6.3,0,11.4-5.1,11.4-11.4c0-6.3-5.1-11.4-11.4-11.4
					c-6.3,0-11.4,5.1-11.4,11.4c0,0,0,0,0,0c0,2.1,0.6,4.2,1.7,6.1l0.3,0.4l-1.1,4.2L164.3,331.5z"/>
			</g>
			<g id="shape_1-3">
				<path class="st28" d="M167.1,316.2c-0.3-0.6-0.5-0.6-0.8-0.6h-0.6c-0.4,0-0.7,0.2-0.9,0.4c-0.8,0.7-1.2,1.8-1.2,2.9
					c0.1,1.3,0.6,2.5,1.4,3.5c0.2,0.2,2.4,3.8,5.9,5.2c2.9,1.1,3.5,0.9,4.1,0.9c1-0.2,1.8-0.8,2.3-1.6c0.2-0.5,0.3-1.1,0.2-1.6
					c-0.1-0.1-0.3-0.2-0.7-0.4s-2-1-2.3-1.1s-0.5-0.2-0.8,0.2s-0.9,1.1-1.1,1.3s-0.4,0.3-0.7,0.1c-1-0.4-1.9-1-2.8-1.7
					c-0.8-0.7-1.4-1.5-1.9-2.4c-0.2-0.3,0-0.5,0.1-0.7s0.4-0.4,0.5-0.6c0.1-0.2,0.3-0.4,0.3-0.6c0.1-0.2,0.1-0.4,0-0.6
					C168.1,318.5,167.4,316.9,167.1,316.2z"/>
			</g>
		</g>
	</g>
</g>
</svg>
