<svg xmlns="http://www.w3.org/2000/svg" xmlns:xlink="http://www.w3.org/1999/xlink" viewBox="0 0 710.76 426.26"><defs><style>.cls-1{isolation:isolate;}.cls-2{fill:url(#linear-gradient);}.cls-3,.cls-6{mix-blend-mode:multiply;}.cls-3{fill:url(#radial-gradient);}.cls-4{fill:url(#linear-gradient-2);}.cls-5{fill:url(#linear-gradient-3);}.cls-6{fill:url(#radial-gradient-2);}.cls-7{fill:url(#linear-gradient-4);}.cls-8{fill:url(#linear-gradient-5);}.cls-15,.cls-20,.cls-23,.cls-44,.cls-47,.cls-9{mix-blend-mode:screen;opacity:0.45;}.cls-9{fill:url(#radial-gradient-3);}.cls-10{fill:#8cc63f;}.cls-11,.cls-16{fill:#ccc;}.cls-11,.cls-12{fill-rule:evenodd;}.cls-12,.cls-24{fill:#fff;}.cls-13{fill:url(#linear-gradient-6);}.cls-14{fill:url(#linear-gradient-7);}.cls-15{fill:url(#radial-gradient-4);}.cls-17{fill:#f2f2f2;}.cls-18{fill:url(#linear-gradient-8);}.cls-19{fill:url(#linear-gradient-9);}.cls-20{fill:url(#radial-gradient-5);}.cls-21{fill:url(#linear-gradient-10);}.cls-22{fill:url(#linear-gradient-11);}.cls-23{fill:url(#radial-gradient-6);}.cls-25{fill:#f5f5f5;}.cls-26{fill:#e1e1e1;}.cls-27{fill:url(#linear-gradient-12);}.cls-28{fill:#1a2e35;}.cls-29{fill:#375a64;}.cls-30{fill:#fafafa;}.cls-31{fill:#ececec;}.cls-32{fill:url(#linear-gradient-13);}.cls-33{fill:#ff9a6c;}.cls-34{fill:#ffbf9d;}.cls-35,.cls-36{opacity:0.2;}.cls-37{fill:#ff4f5b;}.cls-38{opacity:0.3;}.cls-39{fill:url(#linear-gradient-14);}.cls-40{fill:url(#linear-gradient-15);}.cls-41{opacity:0.7;}.cls-42{fill:url(#linear-gradient-16);}.cls-43{fill:url(#linear-gradient-17);}.cls-44{fill:url(#radial-gradient-7);}.cls-45{fill:url(#linear-gradient-18);}.cls-46{fill:url(#linear-gradient-19);}.cls-47{fill:url(#radial-gradient-8);}</style><linearGradient id="linear-gradient" x1="203.81" y1="-94.75" x2="477.16" y2="460.49" gradientUnits="userSpaceOnUse"><stop offset="0" stop-color="#8cc63f"/><stop offset="0.13" stop-color="#82c03e"/><stop offset="0.35" stop-color="#69ae3d"/><stop offset="0.64" stop-color="#3f923b"/><stop offset="0.97" stop-color="#056b37"/><stop offset="0.99" stop-color="#006837"/></linearGradient><radialGradient id="radial-gradient" cx="-591.53" cy="-1078.84" r="44.43" gradientTransform="translate(2433.36 582.23) scale(3.49 0.2)" gradientUnits="userSpaceOnUse"><stop offset="0" stop-color="#999"/><stop offset="0.26" stop-color="#9b9b9b" stop-opacity="0.98"/><stop offset="0.42" stop-color="#a0a0a0" stop-opacity="0.93"/><stop offset="0.56" stop-color="#aaa" stop-opacity="0.83"/><stop offset="0.67" stop-color="#b8b8b8" stop-opacity="0.7"/><stop offset="0.78" stop-color="#c9c9c9" stop-opacity="0.53"/><stop offset="0.88" stop-color="#dfdfdf" stop-opacity="0.31"/><stop offset="0.98" stop-color="#f8f8f8" stop-opacity="0.07"/><stop offset="1" stop-color="#fff" stop-opacity="0"/></radialGradient><linearGradient id="linear-gradient-2" x1="154.37" y1="328.15" x2="488.14" y2="354.11" gradientTransform="translate(0.26 205.55) scale(1 0.42)" gradientUnits="userSpaceOnUse"><stop offset="0" stop-color="#8cc63f"/><stop offset="0.99" stop-color="#006837"/></linearGradient><linearGradient id="linear-gradient-3" x1="177.83" y1="345.55" x2="565.63" y2="381.04" gradientTransform="matrix(1, 0, 0, 0.42, -0.02, 206.24)" xlink:href="#linear-gradient-2"/><radialGradient id="radial-gradient-2" cx="-646.78" cy="-843.82" r="20.06" gradientTransform="translate(3011.07 479.33) scale(4.08 0.15)" gradientUnits="userSpaceOnUse"><stop offset="0" stop-color="#ccc"/><stop offset="0.24" stop-color="#cdcdcd" stop-opacity="0.99"/><stop offset="0.39" stop-color="#cfcfcf" stop-opacity="0.95"/><stop offset="0.51" stop-color="#d2d2d2" stop-opacity="0.88"/><stop offset="0.61" stop-color="#d7d7d7" stop-opacity="0.78"/><stop offset="0.71" stop-color="#dedede" stop-opacity="0.65"/><stop offset="0.8" stop-color="#e6e6e6" stop-opacity="0.49"/><stop offset="0.89" stop-color="#f0f0f0" stop-opacity="0.3"/><stop offset="0.97" stop-color="#fbfbfb" stop-opacity="0.08"/><stop offset="1" stop-color="#fff" stop-opacity="0"/></radialGradient><linearGradient id="linear-gradient-4" x1="138.99" y1="385.77" x2="135.57" y2="450.99" gradientTransform="translate(527.63 -300.5) rotate(19.87)" xlink:href="#linear-gradient-2"/><linearGradient id="linear-gradient-5" x1="113.72" y1="395.07" x2="168.83" y2="447.89" gradientTransform="translate(527.63 -300.5) rotate(19.87)" gradientUnits="userSpaceOnUse"><stop offset="0" stop-color="#8cc63f"/><stop offset="1" stop-color="#009245"/></linearGradient><radialGradient id="radial-gradient-3" cx="114.19" cy="386.54" r="58.85" gradientTransform="translate(527.63 -300.5) rotate(19.87)" gradientUnits="userSpaceOnUse"><stop offset="0" stop-color="#fff"/><stop offset="0.32" stop-color="#a8a8a8" stop-opacity="0.66"/><stop offset="0.79" stop-color="#303030" stop-opacity="0.19"/><stop offset="1" stop-opacity="0"/></radialGradient><linearGradient id="linear-gradient-6" x1="-1267.13" y1="-762.05" x2="-1270.52" y2="-697.4" gradientTransform="translate(426.38 1727.95) rotate(63.3)" xlink:href="#linear-gradient-2"/><linearGradient id="linear-gradient-7" x1="-1292.18" y1="-752.83" x2="-1237.55" y2="-700.47" gradientTransform="translate(426.38 1727.95) rotate(63.3)" xlink:href="#linear-gradient-5"/><radialGradient id="radial-gradient-4" cx="-1291.71" cy="-761.29" r="58.33" gradientTransform="translate(426.38 1727.95) rotate(63.3)" xlink:href="#radial-gradient-3"/><linearGradient id="linear-gradient-8" x1="-579.89" y1="1471.07" x2="-583.28" y2="1535.71" gradientTransform="matrix(0.95, -0.3, 0.3, 0.95, 373.3, -1531.74)" xlink:href="#linear-gradient-2"/><linearGradient id="linear-gradient-9" x1="-604.94" y1="1480.29" x2="-550.31" y2="1532.64" gradientTransform="matrix(0.95, -0.3, 0.3, 0.95, 373.3, -1531.74)" xlink:href="#linear-gradient-5"/><radialGradient id="radial-gradient-5" cx="-604.47" cy="1471.83" r="58.33" gradientTransform="matrix(0.95, -0.3, 0.3, 0.95, 373.3, -1531.74)" xlink:href="#radial-gradient-3"/><linearGradient id="linear-gradient-10" x1="-1881.01" y1="-964.41" x2="-1885.17" y2="-885.12" gradientTransform="matrix(-0.73, 0.69, -0.69, -0.73, -1795.24, 822.95)" xlink:href="#linear-gradient-2"/><linearGradient id="linear-gradient-11" x1="-1911.74" y1="-953.11" x2="-1844.72" y2="-888.88" gradientTransform="matrix(-0.73, 0.69, -0.69, -0.73, -1795.24, 822.95)" xlink:href="#linear-gradient-5"/><radialGradient id="radial-gradient-6" cx="-1911.15" cy="-963.49" r="71.55" gradientTransform="matrix(-0.73, 0.69, -0.69, -0.73, -1795.24, 822.95)" xlink:href="#radial-gradient-3"/><linearGradient id="linear-gradient-12" x1="407.35" y1="267.29" x2="486.27" y2="267.29" gradientUnits="userSpaceOnUse"><stop offset="0" stop-color="#20b038"/><stop offset="1" stop-color="#60d66a"/></linearGradient><linearGradient id="linear-gradient-13" x1="328.23" y1="160.77" x2="460.26" y2="160.77" xlink:href="#linear-gradient-12"/><linearGradient id="linear-gradient-14" x1="279.13" y1="248.9" x2="330.36" y2="248.9" xlink:href="#linear-gradient-12"/><linearGradient id="linear-gradient-15" x1="309.76" y1="245.78" x2="330.17" y2="245.78" xlink:href="#linear-gradient-12"/><linearGradient id="linear-gradient-16" x1="-662.52" y1="1138.34" x2="-665.97" y2="1204.05" gradientTransform="translate(571.48 -1001.5) rotate(-16.53)" xlink:href="#linear-gradient-2"/><linearGradient id="linear-gradient-17" x1="-687.99" y1="1147.71" x2="-632.45" y2="1200.93" gradientTransform="translate(571.48 -1001.5) rotate(-16.53)" xlink:href="#linear-gradient-5"/><radialGradient id="radial-gradient-7" cx="-687.5" cy="1139.11" r="59.29" gradientTransform="translate(571.48 -1001.5) rotate(-16.53)" xlink:href="#radial-gradient-3"/><linearGradient id="linear-gradient-18" x1="-444.6" y1="935.82" x2="-448.48" y2="1009.76" gradientTransform="translate(571.48 -1001.5) rotate(-16.53)" xlink:href="#linear-gradient-2"/><linearGradient id="linear-gradient-19" x1="-473.26" y1="946.36" x2="-410.76" y2="1006.25" gradientTransform="translate(571.48 -1001.5) rotate(-16.53)" xlink:href="#linear-gradient-5"/><radialGradient id="radial-gradient-8" cx="-472.71" cy="936.69" r="66.72" gradientTransform="translate(571.48 -1001.5) rotate(-16.53)" xlink:href="#radial-gradient-3"/></defs><g class="cls-1"><g id="Layer_1" data-name="Layer 1"><rect class="cls-2" width="710.76" height="426.26" rx="14.81"/><ellipse class="cls-3" cx="369.47" cy="363.88" rx="155.03" ry="8.99" transform="translate(-0.69 0.7) rotate(-0.11)"/><ellipse class="cls-4" cx="369.44" cy="350.26" rx="119.22" ry="4.67" transform="translate(-0.66 0.7) rotate(-0.11)"/><path class="cls-5" d="M488.66,350c0,2.58-53.37,4.77-119.21,4.89s-119.23-1.86-119.23-4.44l0,13.31h0c0,2.58,53.38,4.57,119.22,4.45s119.22-2.32,119.21-4.9h0Z"/><ellipse class="cls-6" cx="369.44" cy="350.44" rx="81.94" ry="3.06" transform="translate(-0.66 0.7) rotate(-0.11)"/><circle class="cls-7" cx="515.51" cy="137.24" r="27.55"/><circle class="cls-8" cx="512.36" cy="134.12" r="27.25"/><circle class="cls-9" cx="512.36" cy="134.12" r="27.25"/><path class="cls-10" d="M503,159.92a27.44,27.44,0,1,1,35.13-16.47A27.46,27.46,0,0,1,503,159.92Zm18.53-51.26a27.07,27.07,0,1,0,16.26,34.67A27.1,27.1,0,0,0,521.56,108.66Z"/><path class="cls-11" d="M523.61,141.88c-1.14-1-2.65-2.09-4.29-1.86-1.26.18-2.35,1.65-3.28,2.32a1.25,1.25,0,0,1-1.51,0,20.34,20.34,0,0,1-8.48-9.93,1.05,1.05,0,0,1,.48-1.48,6.21,6.21,0,0,0,2.41-2.27,5.39,5.39,0,0,0-.15-3.34c-.36-1.31-.68-3.13-1.86-4.08a4,4,0,0,0-4-.31,6.9,6.9,0,0,0-3.93,5,7.41,7.41,0,0,0-.13,1.82,14.18,14.18,0,0,0,1.07,4.33,31.08,31.08,0,0,0,1.41,3.12,30.27,30.27,0,0,0,7.09,9,28,28,0,0,0,4.89,3.43c2,1.07,3.72,2.12,6.07,2.22s5.1-.71,6.49-2.55a3,3,0,0,0,.67-1.87C526.52,144,524.68,142.78,523.61,141.88Z"/><path class="cls-12" d="M522,139.84c-1.14-1-2.65-2.09-4.29-1.86-1.26.17-2.35,1.64-3.28,2.31a1.23,1.23,0,0,1-1.51,0,20.33,20.33,0,0,1-8.48-9.93,1,1,0,0,1,.48-1.48,6.16,6.16,0,0,0,2.41-2.28,5.44,5.44,0,0,0-.15-3.33c-.36-1.31-.68-3.13-1.86-4.08a4,4,0,0,0-4-.31,6.88,6.88,0,0,0-3.93,5,7,7,0,0,0-.13,1.82,14.45,14.45,0,0,0,1.06,4.33,33.59,33.59,0,0,0,1.42,3.12,30.23,30.23,0,0,0,7.09,9,28.59,28.59,0,0,0,4.89,3.43c2,1.07,3.71,2.12,6.07,2.22s5.1-.71,6.48-2.56a3,3,0,0,0,.68-1.86C524.93,142,523.09,140.74,522,139.84Z"/><circle class="cls-13" cx="510.48" cy="265.5" r="27.31"/><circle class="cls-14" cx="510.33" cy="261.11" r="27.01"/><circle class="cls-15" cx="510.33" cy="261.11" r="27.01"/><path class="cls-10" d="M486,273.33a27.19,27.19,0,1,1,36.51,12.07A27.22,27.22,0,0,1,486,273.33Zm48.26-24.28a26.83,26.83,0,1,0-11.91,36A26.86,26.86,0,0,0,534.3,249.05Z"/><path class="cls-16" d="M500.78,277.57l6-3,10.3-.52a2.69,2.69,0,0,0,2.54-2.81l-1.1-21.76a2.7,2.7,0,0,0-2.82-2.54l-12.24.63a2.67,2.67,0,0,0-2.54,2.81l1,20.09-2.1,6.4A.62.62,0,0,0,500.78,277.57Zm7-7.19a.84.84,0,0,1-.88-.8L506,252.36a.86.86,0,0,1,.8-.89l.8,0a.84.84,0,0,1,.88.8l.88,17.23a.84.84,0,0,1-.8.88Zm5.39-.27a.85.85,0,0,1-.88-.8l-.88-17.23a.85.85,0,0,1,.8-.88l.8,0a.84.84,0,0,1,.88.8l.88,17.22a.86.86,0,0,1-.8.89Z"/><path class="cls-17" d="M502.07,276.19l6-3,10.3-.52a2.67,2.67,0,0,0,2.54-2.81l-1.1-21.75a2.67,2.67,0,0,0-2.81-2.54l-12.25.62a2.68,2.68,0,0,0-2.54,2.81l1,20.09-2.09,6.4A.61.61,0,0,0,502.07,276.19Zm7-7.19a.84.84,0,0,1-.88-.79L507.33,251a.84.84,0,0,1,.79-.88l.81,0a.84.84,0,0,1,.88.79l.87,17.23a.83.83,0,0,1-.79.88Zm5.39-.27a.84.84,0,0,1-.88-.79l-.87-17.23a.83.83,0,0,1,.79-.88l.8,0a.84.84,0,0,1,.89.79l.87,17.23a.84.84,0,0,1-.8.88Z"/><circle class="cls-18" cx="275.71" cy="74.82" r="27.31"/><circle class="cls-19" cx="271.36" cy="74.27" r="27.01"/><circle class="cls-20" cx="271.36" cy="74.27" r="27.01"/><path class="cls-10" d="M279.62,100.18A27.19,27.19,0,1,1,297.26,66,27.22,27.22,0,0,1,279.62,100.18ZM263.2,48.71a26.84,26.84,0,1,0,33.72,17.4A26.86,26.86,0,0,0,263.2,48.71Z"/><path class="cls-16" d="M267.86,88.66l13.5-10.43a2.32,2.32,0,0,0,.42-3.25l-.68-.87,7.12-1.37a1.18,1.18,0,0,0,.67-1.94c-2.85-3.62-5.42-7.49-8.55-10.87-1.4-1.51-3.6-1-4-.2l-1.15,6.76L274,65c-.78-1-3-1-4-.25L257.78,75.61a2.31,2.31,0,0,0-.42,3.25L263.49,89C264.64,89.85,265.88,90,267.86,88.66Z"/><path class="cls-17" d="M265.81,88.67l13.5-10.43a2.31,2.31,0,0,0,.41-3.25l-.67-.88,7.12-1.37a1.18,1.18,0,0,0,.67-1.94l-8.55-10.87a1.29,1.29,0,0,0-2.18.14l-2.95,6.42-.68-.89a2.31,2.31,0,0,0-3.25-.41L255.72,75.62a2.31,2.31,0,0,0-.41,3.25l7.25,9.38A2.32,2.32,0,0,0,265.81,88.67Z"/><circle class="cls-21" cx="211.11" cy="205.7" r="33.5"/><circle class="cls-22" cx="216.22" cy="203.99" r="33.14"/><circle class="cls-23" cx="216.22" cy="203.99" r="33.14"/><path class="cls-10" d="M193.33,179.73A33.35,33.35,0,1,1,192,226.88,33.39,33.39,0,0,1,193.33,179.73Zm45.48,48.2a32.92,32.92,0,1,0-46.54-1.35A32.95,32.95,0,0,0,238.81,227.93Z"/><rect class="cls-16" x="207.05" y="182.33" width="15.35" height="29.4" rx="4.34" transform="translate(-1.22 1.34) rotate(-0.36)"/><path class="cls-16" d="M226.42,202.39a1.33,1.33,0,0,0-1.32,1.34v.39a10.33,10.33,0,1,1-20.66.26v-.53a1.34,1.34,0,0,0-2.67,0v.36a13.13,13.13,0,0,0,11.76,13l0,6.82a1,1,0,0,0,1,1h.6a1,1,0,0,0,1-1l-.05-6.83a13,13,0,0,0,11.61-13v-.52A1.32,1.32,0,0,0,226.42,202.39Z"/><rect class="cls-24" x="208.28" y="181.22" width="15.35" height="29.4" rx="4.34" transform="translate(-1.22 1.35) rotate(-0.36)"/><path class="cls-24" d="M227.65,201.28a1.33,1.33,0,0,0-1.32,1.33v.4a10.34,10.34,0,1,1-20.67.26v-.53a1.33,1.33,0,1,0-2.66,0v.36a13.13,13.13,0,0,0,11.76,13l0,6.82a1,1,0,0,0,1,1h.6a1,1,0,0,0,1-1l-.05-6.82a13,13,0,0,0,11.61-13v-.52A1.32,1.32,0,0,0,227.65,201.28Z"/><path class="cls-24" d="M367.24,54.78l.11.31-1.25.37-.19.09,0,.13h-.29V56l-.42,0-.8.15-.55.2-.82.41-1.73.92-1.84,1.07-2.25,1.15-2.42,1.31-2.42,1.31L350,63.76,348,65,346.21,66l-.24-.29,1.6-1,0,0,1-.82,1.09-.83,1.85-1,2.05-1.13,2.17-1,2-1,2-1.09,1.13-.51-1.34.41-.68.29L356,59.1l-3,1.06-2.45,1.12-1.45.85-1.43,1.14-.83.86-.29-.22.88-.93,1.29-1-.49.2-.92.62-1.57,1.38-.43-.49-1.31,1.06-.24-.29,1.29-1-1.54-1.74,1.67-1.53,2.21-1.48,2.45-1.34,2.61-1.11L353,56l-1.34,0-5,.27-5.89.74-6,.86-5.35.87-4.49.71-3.43.61-2.41.46-1.44.4-.81.47-.61.34-.18-.37.61-.34,0,0-.05-.16.71-.26.16-.05.27-.14,2.21-.73,3.32-.91,3.94-1-2.25.48-4.11,1-2.95.8-1.83.68-1.12.87-.23-.3,1.17-.94,1.9-.62,2.95-.8L325,57.88l5.28-1.08,1-.17-4.66.64-4.6.86-3.14.83-2.08,1-1.46-3.05,2.39-1.11,3.57-.95,4.79-1,5.84-.78,6.64-.69,6.94-.4,2.68.08-1.52-.18-4.13,0-.13,0-5.76.21-.32,0-5.37.45-4.88.48-4.12.53-3.72.68-1.91.49,0,0-.69.46-.23-.3.24-.16v-.06l.52-.24h.06l.5-.19,2.14-.5,3.08-.52,5.21-.69,6.17-.59,3-.16.15,0h.16l3.39-.24h2.5l5.52-.11,5.23.19,4.32.64-.05.37.37,0-.21,1.79,2.1-.58,1.45-.11-1.53-.92L358.3,52l-1.75-.92L354.48,50,352.61,49l-1.93-1-2.15-1.46,1.65-2.41L350,44l-.64-.14.08-.4.71.2.17.07.06-.07.64.43.32.18.05-.13.88.49.33.25,1,.45,2.52,1.28L359,48.14l2.94,1.71,2,1.35.32.19,2.16,1.29-.14.18.29.22-.22.29-2.1-1.53-.46-.29-1.42-.85L364.12,52l.53,3.15.85-.22.9-.29.49,0v.23Zm-43.79,4.29-2,.57,3.43-.61,4.49-.72,5.35-.86,6-.86,5.89-.75,5.07-.21h1.14l-.75-.06-4.61-.12-3.28.26-5.66.69-5.62.77-5.15.91Zm4.75-1.44,4.63-.83,5.62-.78,3.31-.36-2.94.18-1.29.11-1.47.21-5.74,1Zm28.92-5-3.9-.67-3.13-.09,2.34.23v.07Zm-1.63,6.08.4-.16-2.18.7-1.9.84,1.18-.42Zm.21,1.53-2,1-2.05,1.13-1.8.93-.43.35.47-.32,2.37-1.24,2.42-1.31ZM366,55.15l.46-.16-.84.21-1.16.33v.06Z"/><path class="cls-24" d="M515.14,179.24l.3.09v.12l.41.24,1.08.86,1.43,1.2,1.54,1.37,1.62,1.54,1.53,1.51,1.37,1.35,1,1,0,0,.1.1.78.76.48.37-.15.27-.54-.43-.32-.32-.14.08-.41-.62-1.45-1.27L522.23,186l-1.68-1.55L519,182.88l-1.48-1.36-1.15-1-.88-.67-.05.37,0,.31.12.33.07.07.1.09.07-.08,1,.91.49.48,1.19.3,2,1.83,2.08,2.06,2.23,2.15,2,2-2.39,2.3-1.93-1.95-2.23-2.15-2.08-2L517,185.68l-.16-.42.08,1.22-.1.42.95.93.6-.28,2.19,3.76.38.84,1.64,2.76,1.71,4.32,1.29,4.8.57,4.75.07,4.42-.49,4-.93,3.49-1,2.61-1.19,1.92-.31-.2,1.19-1.93.92-2.56.93-3.48.56-3.95-.12-4.36-.57-4.76L524,199.26l-1.44-3.54,1.45,4.64,1,4.73.44,4.63-.18,4.22-.85,3.72-1.09,3.12-.34.48-.07.2-1.28,2.46-1.39,1.42-1.16,1-.85.2-.55,0,0-.35.5.08.73-.22,1.11-.93,1.39-1.41.29-.55L520,224.69l-3.28,1.37-2.82-.13-.37-2.49-1.13-.08,0-.35,1.14.14-.14-1,1.11.11,0-.17.39.19.47,0,1.87-.79.41-.48-.7.45-1.89.1-1.88-.56,0-.29,1.82.5,1.78-.11,1.46-.83.87-2.25.77-3.12.59-3.66.27-4-.09-4.07,0-.5-.08-.7-1.12-4-1.1-2.59-.28-.17.11-.25-.19-.39-1.53-2.8.27-.15L518,194l-.72-1.55-1.19-2-.91,2.67L513.73,196l-3.42-2.13.06-.19-.95,1.29-.26-.26,1.06-1.39,1-1.78,1.08-2.2.43-1.28.3-1.67-.68,2.12-.85,2-.84,1.77-.31-.21.84-1.76.84-2,.63-2.07.49-2.06-.25.58-.79,1.71-.91,2.1-1.19,2-.15.21-.28.55-.74,1.66-.31-.21.19-.38-.26-.2,1.09-1.62.73-1.4.89-2.13.8-2.11.69-1.75.6-1.38.18-.64.37.15-.24.7-.6,1.38-.69,1.74-.27.67.58-1.24.71-1.63.51-1,.2-.79.13.07.2-.79.3.15v-.4H515l.11.21.07-.14v-.52l-1-.56,0-.05-.09,0,.14-.27.65.38.28.17Zm-.19,1.63,0-.17,0,0,0,0Zm.91,1.1.06.06.09,0-.49-.74-.1.56,0,0,.08,0,.07.07.23,0Zm-1.25-1.34-.18.7-.43,1.34-.5,1.63-.11.3.87-1.67.34-1.32Zm2,7.44.35-.49.45.39,0,0-.68-.68Zm0,0-.06.25.22-.09Zm2.21,7.77.27.63,0-.21Zm.67,22.4.31-.89.79-3.15.56-3.69-.06-4.1,0-.35v1.36l-.27,4-.53,3.73Zm2-11.48v3.84l-.49,3.75-.8,3.15-.59,1.44.27-.41.92-2.56.61-2.56.08-.54.2-3.84Z"/><path class="cls-24" d="M461.89,69l.29-.11.09.09.46,0,1.38,0,1.87.11,2,.17,2.23.27,2.12.3,1.9.26,1.36.19h0l.14,0,1.08.15h.6l.05.31-.69,0-.45-.06-.06.14-.71-.24-1.91-.16-2.13-.25-2.27-.24-2.18-.3-2-.21-1.5-.09h-1.11l.19.33.14.28.3.19h.09l.14,0V70l1.37.11.68.1,1.12-.48,2.68.3,2.89.4,3.08.38,2.8.43-.54,3.27-2.71-.41-3.08-.39-2.89-.4L467.23,73l-.38-.24.79.93.18.4,1.31.18.31-.59,4,1.7.81.45,3,1.23,3.95,2.44,3.9,3.07,3.3,3.47,2.7,3.5,2,3.51,1.34,3.35.78,2.68.2,2.26-.37,0-.2-2.26-.79-2.6-1.34-3.35-1.91-3.5-2.71-3.43-3.3-3.47-3.82-3-3.27-2,3.94,2.85,3.61,3.21,3.12,3.45,2.37,3.49,1.55,3.49,1,3.15V98l.07.19.45,2.74-.27,2-.35,1.48-.55.67-.46.31-.24-.26.45-.23.45-.61.34-1.41.27-2-.1-.61-.36,2.22-1.8,3.07-2.34,1.57-1.78-1.77-1,.61-.24-.26,1-.57-.69-.69.95-.57-.07-.16.43-.09.4-.24,1-1.76,0-.62-.29.77L487.2,103l-1.84.67-.16-.24,1.76-.69,1.36-1.15L489,100l-.65-2.32-1.25-3-1.71-3.29-2.16-3.35-2.51-3.21-.32-.38-.48-.51-3.29-2.54-2.43-1.41-.33,0-.05-.27-.39-.2-2.9-1.34.13-.28L473,79.07l-1.5-.8-2.18-.93.87,2.68.58,3.21-4,.34-.07-.2V85l-.36,0V83.18l-.28-2-.45-2.41-.42-1.29L464.43,76l.73,2.11.49,2.08.38,1.91-.37,0-.38-1.92-.5-2.07-.73-2-.84-1.94.15.62.39,1.84.52,2.23.24,2.3v.26l.1.61.4,1.77-.38,0-.08-.42h-.32l-.1-2-.24-1.55-.57-2.24-.62-2.17-.49-1.82-.35-1.46-.23-.63.38-.09.22.7.35,1.46.49,1.82.18.69L463,74.75,462.58,73l-.21-1.15-.31-.75h.14l-.31-.75.33-.07L462,70l.25-.19.22.11,0-.15-.32-.42-1.17.17v-.07l-.1,0-.05-.3.75-.08.33,0Zm.82,1.42-.07-.16h0v0Zm1.38.34h.09l.1,0-.83-.3.25.52h0l.06-.07h.09l.2-.12Zm-1.8-.33.28.67.46,1.33.56,1.61.1.31-.3-1.87-.51-1.26Zm6.08,4.75v-.6l.59,0v0l-.95-.13Zm0,0,.1.24.12-.21Zm6.42,4.9.6.35-.17-.14Zm13.94,17.56-.3-.9-1.24-3-1.76-3.29-2.5-3.25-.24-.26.82,1.08,2.16,3.35,1.81,3.3Zm-5.3-10.37,2.29,3.07,1.85,3.3,1.25,3,.39,1.51,0-.49-.79-2.6-1.05-2.41-.26-.49L485,89Z"/><path class="cls-24" d="M225.27,123.86l3.09-6.57,2.34-1.75q1.45-1.11,3.77-2.68c1.54-1,3-2,4.36-2.76a21.87,21.87,0,0,1,3.78-1.8c1.15-.4,1.9-.42,2.25-.07s.33,1.46,0,3.27-.69,3.75-1.16,5.8a24.8,24.8,0,0,0-.72,3.85c0,.42,0,.85,0,1.28s.13.91.23,1.45.17,1,.2,1.22l-3.09,6.57a10.23,10.23,0,0,0-.16-1.26c-.09-.52-.17-1-.21-1.45s-.08-.86-.09-1.24a24.55,24.55,0,0,1,.7-3.89c.48-2,.86-4,1.17-5.8s.29-2.89,0-3.23a.44.44,0,0,0-.1-.15l-2.09,4.44a43,43,0,0,0-7.36,6.86,63.31,63.31,0,0,0-5.91,8.64q-4.73,11.57-4,16.22a9.46,9.46,0,0,0,.4,1.7c.2.58.44,1.23.73,1.94l.63,1.61L221,162.63c-.12-.4-.32-1-.61-1.67s-.53-1.36-.72-1.94a11,11,0,0,1-.42-1.64,11.63,11.63,0,0,1-.08-2.54,19.31,19.31,0,0,1,.51-3.17l.81-3.07a34.35,34.35,0,0,1,1.17-3.39l1.12-3,1.25-3c.61-1.5.93-2.27,1-2.3l3.08-6.57a88.55,88.55,0,0,1,5.66-9,39.9,39.9,0,0,1,6.36-6.72,28.66,28.66,0,0,0-7.41,3.89Q227.9,121.73,225.27,123.86Z"/><path class="cls-24" d="M219,280c0-.11-.07-.22-.11-.33.19.53.4,1.06.64,1.59s.49,1.06.78,1.58a32,32,0,0,1-1.31-3.7c-.36-1.22-.62-2.35-1-3.29.18-.11.31-.74.48-1.32l0-.21.06-.21c0-.13.07-.25.11-.36a.93.93,0,0,0,.07-.37,7.06,7.06,0,0,1,.37-1.38c-.05.16-.12.31-.17.47s-.1.32-.13.48c0-.16.09-.32.13-.48s.12-.31.17-.47a8.54,8.54,0,0,1,3.14-3.74l.54-.37a4.85,4.85,0,0,1,.51-.25,5.73,5.73,0,0,1,1.18-.34,5.81,5.81,0,0,1,2.46.05,2.88,2.88,0,0,1,1.39.74,2.39,2.39,0,0,1,.28.35l0,.05,0,.07.08.15a2.75,2.75,0,0,1,.17.29,8.51,8.51,0,0,1,.54,1.2c.07.19.12.39.17.58s.06.38.07.56a3,3,0,0,1-.12,1,3.52,3.52,0,0,1-.9,1.37l-.13.14-.15.13-.31.26.21-.17.14-.11c.09-.07.17-.15.33-.3a7.79,7.79,0,0,1-1.16,1.21c-.1.09-.22.17-.33.26l-.08.06,0,0-.06,0a.62.62,0,0,1-.37.08.64.64,0,0,0,.38.16h-.32a1.36,1.36,0,0,1-.87-.13,6.93,6.93,0,0,1-1-.52c.07,0,0-.06-.08-.15s-.26-.23-.4-.37l.08.14a17.46,17.46,0,0,1-1.64-1.68,17.17,17.17,0,0,1-1.39-1.8,1.19,1.19,0,0,1-.19-.38c-.26-.35-.51-.71-.76-1.08.08,0,0-.23-.13-.42s-.15-.32,0-.06c-.61-.8-1-1.72-1.51-2.53a33.29,33.29,0,0,1-1.82-4.84,24.1,24.1,0,0,1-.93-5.17l0,.08c0-.61-.09-1.18-.08-1.8a7.43,7.43,0,0,1,.31-2,11.55,11.55,0,0,1,.41-1.72,9.13,9.13,0,0,0,.39-1.26l.23-.39c.07-.12.15-.22.21-.33s.27-.4.39-.58a8,8,0,0,1,1-1.17c-.17.06.05-.16.25-.36l.21-.23c0-.05,0-.05-.12,0a3.39,3.39,0,0,0-.73.5,7,7,0,0,1-.6.51h0a10.57,10.57,0,0,0-2.72,4.44,15,15,0,0,0-.65,5.15,28.22,28.22,0,0,0,1.49,6.93,29.46,29.46,0,0,0,3.36,6.56,9.18,9.18,0,0,1,.64,1.17,26.18,26.18,0,0,0,2.1,2.57,13,13,0,0,0,1.33,1.23,7.3,7.3,0,0,0,1.6,1l-.11-.06a5.93,5.93,0,0,0,.94.37,3.32,3.32,0,0,0,1.06.11,2.54,2.54,0,0,0,1.13-.36,7.08,7.08,0,0,0,.72-.49s.13-.13.19-.2a4,4,0,0,0,.94-.82,6.54,6.54,0,0,0,.75-1,4.78,4.78,0,0,0,.77-2.81,5.61,5.61,0,0,0-.21-1.26c-.21-.72-.45-1.18-.47-1.29l-.18-.34c-.14-.29-.28-.57-.43-.84l-.11-.21-.12-.21c-.1-.16-.21-.31-.32-.46a4.4,4.4,0,0,0-1.73-1.28,6.24,6.24,0,0,0-1.93-.46,7.15,7.15,0,0,0-1.81.1,6.55,6.55,0,0,0-1.36.58,1.07,1.07,0,0,0-.43.18c-.11.07-.23.15-.45.27a4.13,4.13,0,0,0-.76.32,2.15,2.15,0,0,0-.44.27c-.19.15-.17.21.1.07a15.62,15.62,0,0,0-2,1.89l-.36.48-.33.51a1.82,1.82,0,0,1-.46.55c-.41.79-.35.52-.76,1.37a1.26,1.26,0,0,0-.19.43,7,7,0,0,0-.19.81c-.11.59-.13,1.18-.16,1.31v-.15l-.06.38-.06.36c0,.23-.07.45-.1.67a5.05,5.05,0,0,0-.06.68,6.26,6.26,0,0,0,0,.74,14.17,14.17,0,0,0,1.12,4.28,23.66,23.66,0,0,0,2,3.68c.11,0-.33-.47-.23-.57a27.36,27.36,0,0,0,2.67,3.77,5.52,5.52,0,0,1,.43.63c.32.38.24.17.49.44l0,.1c.43.32.48.62.88.93.05,0,.19.11.32.23-.06.08.42.36.34.41h0a1.5,1.5,0,0,1,.24.21c.09.05.56.33,1,.58s1,.48,1.07.52l.08.07c.24.15.39.15.25,0l.31.19,0,0,.3.19c.05,0,.1.11,0,.1a4,4,0,0,1,.59.27,9.47,9.47,0,0,1-1.46-1.15c.21.11.55.38.78.5a7.14,7.14,0,0,0,1.21.83c.11,0,.22,0,.44.11s.27.1.46.23l-.36-.1-.34-.15c0,.05.13.12.29.19l.44.18a2.71,2.71,0,0,1,.36.1,4,4,0,0,0,.54.11c-.08,0,0,.06.09.09l.19,0,.18,0c.23,0,.4,0,.3,0s0,0-.11-.06l-.28-.05c-.2,0-.35-.09-.19-.11l.11,0a1.18,1.18,0,0,0,.21,0,3.46,3.46,0,0,0,.45,0c0-.05-.17,0,0-.09a1.9,1.9,0,0,0,.41,0,1.55,1.55,0,0,1,.34,0,1.33,1.33,0,0,1-.26.05c.19,0-.31.15-.79.2l-.35,0h-.27c-.14,0-.2,0-.09,0-.05,0,.45,0,1-.08a2.48,2.48,0,0,0,.88-.24c-.12,0-.08,0-.05-.05s.07-.06,0,0l-.24.11c-.32,0-.45-.07-.34-.12s.1,0,0,.06a3,3,0,0,1-.47.11c-.37.06-.74.05-.53.06l-.16-.05.41,0a3.17,3.17,0,0,1,.43.06c0-.05.25-.05.47-.1h.07c.22-.05.55-.12.38-.15-.33.07-.43,0-.44,0s.09-.12.18-.21.17-.17.16-.23-.1-.06-.36,0c.11,0,.16,0,.16.05s0,0-.11,0a2.6,2.6,0,0,1-.65,0,1.88,1.88,0,0,0-.55-.21c-.27-.05-.17,0-.23,0s-.41-.17-.36-.21c-.23,0-.3-.15-.55-.22s0,0-.16,0a10.45,10.45,0,0,1-.95-.48c-.07-.1-.29-.34-.05-.31.43.25-.24,0,.23.27-.14-.22.43.17.56.12a3.14,3.14,0,0,0-.68-.39l0,.05c-.12-.06-.28-.13-.45-.23a1.5,1.5,0,0,1-.41-.3c.08,0,0-.09.16,0l-.28-.18c-.05,0-.09,0,0,0A1.11,1.11,0,0,1,227,291s-.4-.23-.78-.46a6.25,6.25,0,0,1-.72-.44c-.19-.15-.19-.25-.41-.36a7.91,7.91,0,0,0,.92.65,8.73,8.73,0,0,0,.76.46c-.07-.08-.66-.43-1.23-.82a5.93,5.93,0,0,1-1.13-.89c-.14-.12-.31-.26-.31-.2-.2-.23.13,0,0-.19,0,0,0,0-.06,0l-.11-.18c-.39-.28-.81-.84-1.21-1.15a2.66,2.66,0,0,1,.56.33l0,.06s.24.2.27.16a3.64,3.64,0,0,0-.62-.62l-.09-.16v0c0-.1,0-.09,0-.08h0c0-.12-.23-.32-.47-.56a4.11,4.11,0,0,1-.67-.75c-.11-.11,0,0-.17-.14-.3-.48-.5-.81-.8-1.32-.16-.11-.19-.11-.11.11-.08-.13-.16-.25-.23-.38.35.25-.32-.78.06-.49a2.06,2.06,0,0,0-.32-.55s-.12,0-.28-.27a6.32,6.32,0,0,1-.25-.64c0-.1.09,0,.12,0a1,1,0,0,1-.21-.46,1.38,1.38,0,0,0-.14-.46l-.27-.53c-.09-.18-.17-.32-.22-.31C218.8,280,218.86,280,219,280Z"/><path class="cls-24" d="M482.93,313.15l-.37.21a8.7,8.7,0,0,0,.84-.55l.19-.14.15-.13.06-.07.1-.1.19-.21c.51-.56,1-1.12,1.5-1.68-.57.57-1.18,1.16-1.81,1.77l-.12.12-.07.05-.08.07-.1.07-.22.14-.24.15c-.33.19-.68.38-1,.55-1.43.71-2.85,1.28-4,1.89a5.6,5.6,0,0,0-1.81-.07,12.45,12.45,0,0,0-1.58.08,11.67,11.67,0,0,1-1.88.09h.66l.64,0-.64,0h-.66a10.09,10.09,0,0,1-3-.58l-.18-.07-.18-.07-.36-.16-.71-.35c-.22-.14-.46-.27-.67-.41s-.42-.31-.62-.48a7.67,7.67,0,0,1-2-2.45,3.3,3.3,0,0,1-.35-1.35,1.94,1.94,0,0,1,.32-1.17,1.53,1.53,0,0,1,.23-.33c0-.05.09-.12.14-.17l.18-.17a3.42,3.42,0,0,1,1-.62,5.56,5.56,0,0,1,2.93-.35l.37.08.35.1.17.06.08,0,.09,0,.38.18a12.77,12.77,0,0,1,1.42.79,14.24,14.24,0,0,1,2.06,1.58c.28.25.54.51.81.77l-.44-.45-.45-.43a18,18,0,0,1,3.22,3,4.51,4.51,0,0,0-.41-.8c.14.2.29.39.42.59a6.1,6.1,0,0,1,.92,1.09c.32.45.6.94.79,1.24-.14-.1.1.4.28.86l0-.2a9.72,9.72,0,0,1,.76,2.74,8,8,0,0,1-.16,2.67,2,2,0,0,1-.19.46,6.87,6.87,0,0,1-.56,1.42c0-.08-.19.19-.34.38s-.26.31-.08,0a5.78,5.78,0,0,1-1,1.38c-.41.42-.85.79-1.28,1.17a17.89,17.89,0,0,1-5.81,2.52,33.16,33.16,0,0,1-6.53.93l.11,0c-.77,0-1.5.09-2.27.1a14.28,14.28,0,0,1-2.52-.17c-.68,0-1.49-.09-2.21-.16a9.81,9.81,0,0,0-1.62-.09l-1.85-.39a17.86,17.86,0,0,1-1.81-.46c.17.12-.2,0-.52-.06s-.59-.16-.26,0a5.46,5.46,0,0,0,1,.43,7.41,7.41,0,0,1,.87.35l0-.05a34,34,0,0,0,6,1.52,35,35,0,0,0,6.24.42,38.88,38.88,0,0,0,4.32-.49,22.32,22.32,0,0,0,4.33-1.16,15.31,15.31,0,0,0,4.27-2.48,9.79,9.79,0,0,0,2.81-3.76c.25-.64.48-1.09.66-1.66a10.19,10.19,0,0,0,.19-2.1,9.32,9.32,0,0,0-.28-2.26,13.6,13.6,0,0,0-1.87-4.06l.07.12c-.41-.64-.78-1.19-1.17-1.72a13.83,13.83,0,0,0-1.31-1.55s-.18-.14-.27-.21a6.41,6.41,0,0,0-1.06-1,16.75,16.75,0,0,0-2.49-1.72,15.36,15.36,0,0,0-1.45-.75l-.7-.29-.35-.13-.35-.11a7.44,7.44,0,0,0-1.14-.2l-.56-.05h-.5a7.86,7.86,0,0,0-2.43.39,5.5,5.5,0,0,0-2.2,1.35c-.15.17-.3.33-.43.51s-.24.37-.35.57a4.08,4.08,0,0,0-.41,1.31,4.66,4.66,0,0,0,.4,2.43,6.74,6.74,0,0,0,1.12,1.49c.25.43.4.42.79.86a4.77,4.77,0,0,0,1.09,1.24c.26.18.31.15,0-.12.25.18.51.36.77.51s.51.32.78.45a8.1,8.1,0,0,0,.78.39l.38.17.38.14.36.12.36.09.36.1.37.07a2.66,2.66,0,0,1,.83.27l.59.08.33.06.34.06a5.14,5.14,0,0,0,.63.07,2.12,2.12,0,0,0,.56,0c.29,0,.64,0,1-.08.71-.07,1.41-.23,1.57-.24l-.18,0a18.13,18.13,0,0,0,3.39-.51,19.52,19.52,0,0,0,2.54-.94c.42-.19.83-.41,1.23-.64a8.81,8.81,0,0,0,1.21-.81A2.61,2.61,0,0,0,485,314a3.46,3.46,0,0,0,.28-.29l.43-.49.85-1c.55-.67,1.07-1.34,1.54-2,0-.05-.13.11-.24.27s-.23.31-.29.29a19.06,19.06,0,0,0,1.59-2.48,10,10,0,0,0,1-2.88c0-.18.11-.38.14-.56s.08-.34.1-.42a1.25,1.25,0,0,0,0-.51,1.44,1.44,0,0,1,0-.37l.1-.07a3.71,3.71,0,0,1,0-.87,4.17,4.17,0,0,0-.05-.83,1.38,1.38,0,0,1-.13-.5c.05,0,0-.19,0-.36s-.09-.33,0-.33h0c0-.14-.06-.23-.09-.4s-.1-.26-.21-.51l-.19-.42-.23-.45a7.94,7.94,0,0,0-.46-.84l-.17-.3-.11-.16,0-.12c-.17-.32-.3-.42-.22-.23l-.2-.39,0,0-.21-.39c0-.07,0-.18.06-.09A3.71,3.71,0,0,1,488,296c-.07-.11-.15-.22-.21-.33a9.9,9.9,0,0,1,.48,1c.09.18.15.37.22.55l.18.54c-.08-.13-.17-.32-.26-.51a3.14,3.14,0,0,0-.26-.52,6.38,6.38,0,0,0-.32-.75c-.15-.29-.31-.6-.47-.87-.08-.11-.23-.12-.37-.39s-.2-.29-.32-.52a1.81,1.81,0,0,1,.29.33l.25.37c0-.1-.37-.64-.5-.83a1.91,1.91,0,0,1-.28-.33l-.2-.24-.21-.22c.17.06-.15-.25-.26-.45s-.29-.27-.25-.18c-.11,0,.61.76.31.57a3.25,3.25,0,0,0-.54-.62s.1.15-.06.07-.45-.37-.52-.53a1.52,1.52,0,0,1,.18.18c-.13-.13.29.15.69.45s.76.62.59.45a5.88,5.88,0,0,1-.79-.61,9,9,0,0,0-.73-.53c.14.18-.18,0,0,.14l.23.13c.21.24.24.4.13.34s.15,0,.48.24.64.48.47.33l.1.15a3.29,3.29,0,0,1-.62-.67s-.23-.14-.4-.28l-.05-.06c-.17-.13-.38-.36-.33-.21.47.46.22.4,0,.34s-.5-.1-.08.34c-.28-.44.21,0,.6.42a1.76,1.76,0,0,0,.36.59c.23.25.16.12.23.15s.3.46.22.46c.22.16.23.35.43.59s0,0,.16.11a10.72,10.72,0,0,1,.71,1.12c0,.13.12.52-.09.32-.31-.53.26.13-.11-.41,0,.3-.34-.47-.48-.51a3.32,3.32,0,0,0,.49.84l0-.07c.09.13.21.33.33.53s.11.2.16.3a2.43,2.43,0,0,1,.1.28c-.08-.05,0,.09-.15-.1l.18.38s.07.08,0,0a1.28,1.28,0,0,1,.22.5s.27.51.5,1c.05.13.12.25.17.37l.13.31a2.31,2.31,0,0,1,.11.29c.09.29,0,.39.14.66a1.68,1.68,0,0,0-.11-.42c-.07-.25-.21-.58-.33-.9s-.26-.61-.36-.81-.15-.29-.11-.2.12.29.25.6.15.33.22.52l.22.59a6.35,6.35,0,0,1,.43,1.74c0,.22.07.49.11.43,0,.38-.1-.1-.12.17,0,0,0,0,0,.06l-.05.27a3.22,3.22,0,0,1,.05.48c0,.17,0,.35,0,.53,0,.37-.06.73-.08,1l0-.31a2.82,2.82,0,0,1-.05-.47l0-.07s0-.12,0-.21,0-.16-.05-.16c0,.18,0,.35-.05.52s0,.35,0,.55l-.07.2h0c-.05.12-.05.11-.06.06s0,0,0,0a3,3,0,0,0-.21.86,4.06,4.06,0,0,1-.37,1.16c-.06.19,0,0,0,.27a18.36,18.36,0,0,1-1,1.59c-.08.23-.07.26.14.06l-.32.45c.07-.26-.1-.06-.28.12s-.35.35-.25.08a3.33,3.33,0,0,0-.49.62c0,.05,0,.13-.21.43s-.29.3-.62.61c-.11,0,0-.1-.06-.11-.4.57-.48.38-.91.88l-.24.29-.09.1a.57.57,0,0,1-.11.11c-.14.15-.28.28-.26.32a1.36,1.36,0,0,1-.39.21C482.93,313.23,482.92,313.2,482.93,313.15Z"/><path class="cls-25" d="M263.16,187.63v22a7.19,7.19,0,0,0,7.19,7.2h78.73a7.19,7.19,0,0,0,7.19-7.2V191l9.8-10.3-95.69-.29A7.19,7.19,0,0,0,263.16,187.63Z"/><polygon class="cls-26" points="344.67 193.74 273.23 193.41 273.24 191.21 344.68 191.54 344.67 193.74"/><polygon class="cls-26" points="344.67 200.96 273.23 200.63 273.24 198.44 344.68 198.77 344.67 200.96"/><rect class="cls-26" x="329.44" y="192.7" width="2.2" height="28.27" transform="translate(122.08 536.35) rotate(-89.72)"/><path class="cls-26" d="M451.9,178.52v17.16a5.62,5.62,0,0,1-5.62,5.62H384.74a5.62,5.62,0,0,1-5.62-5.62v-14.5l-7.66-8.05,74.8-.23A5.62,5.62,0,0,1,451.9,178.52Z"/><polygon class="cls-25" points="388.19 183.29 444.03 183.04 444.02 181.32 388.18 181.58 388.19 183.29"/><polygon class="cls-25" points="388.19 188.94 444.03 188.68 444.02 186.97 388.18 187.22 388.19 188.94"/><rect class="cls-25" x="388.19" y="192.67" width="22.09" height="1.72" transform="translate(-0.95 1.97) rotate(-0.28)"/><path class="cls-27" d="M417.77,306.73c-11.6-11.3-11.8-28.78-8.78-44,.51-2.54.67-5.28,2.25-7.31s4.66-3.11,6.77-1.66c1.74,1.2,2.21,3.54,3,5.53a15.11,15.11,0,0,0,5,6.7c1.49,1.1,3.41,2,5.16,1.33,2.4-.86,3.16-3.85,3.56-6.39q1.11-7.09,2.23-14.2a23.94,23.94,0,0,1,2-7.4c1.18-2.28,3.29-4.23,5.81-4.51s5.28,1.6,5.39,4.16a24.43,24.43,0,0,1-.45,3.17,2.71,2.71,0,0,0,1.15,2.77c1,.46,2.1-.09,3-.71,3-2.13,5.35-5.14,7.55-8.15s4.36-6.1,7.19-8.51,6.48-4.08,10.15-3.69,7.16,3.27,7.5,7-2.35,7-5.09,9.54a57.21,57.21,0,0,1-13.63,9.3,4.76,4.76,0,0,0-2.32,1.8c-.82,1.6.5,3.54,2.08,4.37,1.79.94,3.87,1.08,5.81,1.64s3.94,1.78,4.38,3.77c.62,2.76-2,5.12-4.42,6.55a49.17,49.17,0,0,1-15.71,5.94,16.51,16.51,0,0,0-5.76,1.72c-1.72,1.06-3,3.19-2.38,5.13s2.85,2.89,4.87,2.85,3.93-.82,5.91-1.22c3.7-.74,8.16.23,9.9,3.61a8.14,8.14,0,0,1-.3,7.24,18.81,18.81,0,0,1-4.88,5.64A49.35,49.35,0,0,1,441.49,310c-8.55,1.48-16.16,1-23.72-3.24"/><path class="cls-28" d="M415.72,318a112.71,112.71,0,0,1,7.56-20.22,230.31,230.31,0,0,1,13-23L440,269c1.23-1.92,2.45-3.82,3.75-5.61a115.24,115.24,0,0,1,8.09-9.83c2.72-3,5.42-5.76,7.95-8.31s5-4.89,7.25-6.92a91.13,91.13,0,0,1,11.53-8.77c1.43-.93,2.57-1.61,3.35-2.06l.88-.51.31-.16s-.09.08-.28.2l-.86.55c-.77.48-1.89,1.19-3.31,2.14a95.36,95.36,0,0,0-11.39,8.86c-2.28,2.05-4.67,4.39-7.2,7s-5.2,5.32-7.91,8.32a115.92,115.92,0,0,0-8,9.82c-1.3,1.78-2.5,3.66-3.73,5.59l-3.72,5.84a237.46,237.46,0,0,0-13,22.93A115.1,115.1,0,0,0,416,318.11"/><path class="cls-28" d="M443.92,263.36a5.06,5.06,0,0,1-.07-1.13c0-.72,0-1.77,0-3.06.05-2.58.25-6.15.48-10.08s.38-7.49.4-10.07c0-1.29,0-2.33,0-3.05a5.44,5.44,0,0,1,0-1.12,4.12,4.12,0,0,1,.15,1.11c.07.72.12,1.77.15,3.06.07,2.59,0,6.16-.26,10.1s-.45,7.38-.62,10.06c-.07,1.22-.12,2.24-.17,3.06A5.41,5.41,0,0,1,443.92,263.36Z"/><path class="cls-28" d="M477.52,262.6a7.28,7.28,0,0,1-1.32-.06c-.85-.06-2.08-.16-3.6-.23-3-.16-7.24-.25-11.89-.14s-8.85.41-11.88.71c-1.52.13-2.74.28-3.59.37a7.54,7.54,0,0,1-1.32.11,5.88,5.88,0,0,1,1.3-.29c.84-.15,2.06-.35,3.58-.53,3-.38,7.24-.72,11.9-.84a115.43,115.43,0,0,1,11.92.27c1.53.12,2.75.27,3.6.39A6.8,6.8,0,0,1,477.52,262.6Z"/><path class="cls-28" d="M423.78,297.26a1.77,1.77,0,0,1-.16-.43c-.09-.34-.21-.76-.36-1.27-.31-1.11-.72-2.72-1.2-4.71-1-4-2.12-9.55-3.31-15.7s-2.29-11.72-3.17-15.72c-.43-1.95-.79-3.56-1.05-4.75-.11-.51-.2-.94-.28-1.29a2.18,2.18,0,0,1-.07-.46,1.71,1.71,0,0,1,.16.44l.37,1.27c.31,1.1.72,2.71,1.2,4.71,1,4,2.11,9.55,3.3,15.7s2.3,11.71,3.17,15.72c.44,2,.79,3.55,1.06,4.74.11.52.2.95.28,1.3A1.28,1.28,0,0,1,423.78,297.26Z"/><path class="cls-28" d="M469.4,290.39a1.44,1.44,0,0,1-.46.11l-1.33.22-4.88.74c-4.13.63-9.82,1.56-16.1,2.6s-12,1.93-16.13,2.47c-2.07.28-3.75.48-4.91.6l-1.34.12a1.31,1.31,0,0,1-.47,0,2.31,2.31,0,0,1,.46-.1l1.33-.22,4.88-.74c4.13-.63,9.82-1.57,16.11-2.61s12-1.92,16.12-2.46c2.07-.28,3.75-.48,4.91-.6l1.34-.12A2.08,2.08,0,0,1,469.4,290.39Z"/><path class="cls-29" d="M302.46,152.6a7.63,7.63,0,0,1-2.62-7.2,10.14,10.14,0,0,1,4.36-6.5,4.27,4.27,0,0,1,3.48-.91,3.26,3.26,0,0,1,2.11,2.55,6.65,6.65,0,0,1-.39,3.41c-1.3,3.76-3.25,7.15-6.94,8.65"/><path class="cls-29" d="M299,159a17.84,17.84,0,0,0-15.78-4.12c-1.4.32-3,1.06-3.21,2.48s1,2.63,2.29,3.36a15.26,15.26,0,0,0,16.86-1.36"/><path class="cls-29" d="M278.87,129.31a8.93,8.93,0,0,1,6.9,1.19,15.67,15.67,0,0,1,4.93,5.15c2.49,3.93,3.36,9.2,3.47,13.84-5.15-.21-9.56-4.26-11.66-6.45-3.33-3.47-7.23-11.76-3.64-13.73"/><path class="cls-28" d="M306.78,166a18.92,18.92,0,0,1-1.28-1.95,33,33,0,0,1-2.91-8.27,16.37,16.37,0,0,1,.65-8.73,10.69,10.69,0,0,1,1.24-2.37,3,3,0,0,1,.64-.74,23.73,23.73,0,0,0-1.54,3.23,17.22,17.22,0,0,0-.47,8.52,37.61,37.61,0,0,0,2.72,8.21"/><path class="cls-28" d="M306.83,166.09l-2.68-3.46c-2.26-2.93-5.39-7-8.91-11.38s-6.75-8.36-9.1-11.22l-2.77-3.39a9.33,9.33,0,0,1-1-1.28,11.56,11.56,0,0,1,1.12,1.15c.7.77,1.69,1.89,2.9,3.29,2.43,2.79,5.71,6.71,9.23,11.13s6.61,8.49,8.79,11.48c1.09,1.49,2,2.71,2.55,3.56"/><path class="cls-28" d="M286.43,157.93a3.38,3.38,0,0,1,.89-.27,6.55,6.55,0,0,1,1.08-.2,11.46,11.46,0,0,1,1.45-.16,19.24,19.24,0,0,1,3.78.14,22.24,22.24,0,0,1,4.5,1.18,21.1,21.1,0,0,1,4.1,2.17,18.71,18.71,0,0,1,2.89,2.45,12.3,12.3,0,0,1,1,1.09,10,10,0,0,1,.66.88c.33.5.28.74.25.76a27.48,27.48,0,0,0-2.13-2.47,20.38,20.38,0,0,0-2.9-2.31,21,21,0,0,0-8.4-3.27,20.07,20.07,0,0,0-3.7-.25C287.75,157.72,286.45,158,286.43,157.93Z"/><path class="cls-28" d="M401.42,332.83l-79.17-.36a17.25,17.25,0,0,1-17.17-17.32l.84-198.48A17.24,17.24,0,0,1,323.25,99.5l79.17.36a17.26,17.26,0,0,1,17.17,17.32l-.84,198.48A17.24,17.24,0,0,1,401.42,332.83Z"/><path class="cls-30" d="M402.31,106.71,387,106.64a3.82,3.82,0,0,0-3.75,3.88v2.78a3.8,3.8,0,0,1-3.74,3.88l-29.92-.13a3.82,3.82,0,0,1-3.71-3.92v-2.78a3.82,3.82,0,0,0-3.71-3.92l-5.4,0-13.44-.06a12.07,12.07,0,0,0-12.13,12l-.82,193.74a12.08,12.08,0,0,0,12,12.13l79,.36a12.08,12.08,0,0,0,12.13-12l.82-193.73A12.08,12.08,0,0,0,402.31,106.71Z"/><path class="cls-29" d="M357.59,306.05a1.65,1.65,0,1,1-1.62-1.41A1.53,1.53,0,0,1,357.59,306.05Z"/><path class="cls-29" d="M362.64,306.08a1.52,1.52,0,0,1-1.63,1.39,1.54,1.54,0,0,1-1.63-1.41,1.65,1.65,0,0,1,3.26,0Z"/><path class="cls-29" d="M367.69,306.1a1.65,1.65,0,0,1-3.26,0,1.54,1.54,0,0,1,1.64-1.39A1.52,1.52,0,0,1,367.69,306.1Z"/><path class="cls-31" d="M333.42,179.22c1.31.15,80.76,22.08,80.76,22.08V179.22Z"/><path class="cls-31" d="M310.5,285s79.22-10.17,78.59-9.86-78.59,0-78.59,0Z"/><path class="cls-32" d="M455.47,132.51H333a4.78,4.78,0,0,0-4.79,4.79v38a4.79,4.79,0,0,0,4.79,4.79h9.12c.74,4,1.6,9,1.6,9l8.25-9H455.47a4.79,4.79,0,0,0,4.79-4.79v-38A4.78,4.78,0,0,0,455.47,132.51Z"/><path class="cls-25" d="M405,153.11c0,.08-14.57.14-32.55.14s-32.55-.06-32.55-.14,14.57-.14,32.55-.14S405,153,405,153.11Z"/><path class="cls-25" d="M405,147.27c0,.08-14.57.14-32.55.14s-32.55-.06-32.55-.14,14.57-.14,32.55-.14S405,147.19,405,147.27Z"/><path class="cls-25" d="M405,158.89c0,.07-14.57.14-32.55.14s-32.55-.07-32.55-.14,14.57-.15,32.55-.15S405,158.81,405,158.89Z"/><path class="cls-25" d="M382.49,164.87c0,.07-9.54.14-21.32.14s-21.32-.07-21.32-.14,9.54-.14,21.32-.14S382.49,164.79,382.49,164.87Z"/><path class="cls-29" d="M410.29,224.79H277.59a3.6,3.6,0,0,0-3.6,3.6v43.2a3.6,3.6,0,0,0,3.6,3.6H374l8.77,9.53s.92-5.36,1.7-9.53h25.85a3.6,3.6,0,0,0,3.6-3.6v-43.2A3.6,3.6,0,0,0,410.29,224.79Z"/><path class="cls-25" d="M405.08,247.06c0,.09-15.66.15-35,.15s-35-.06-35-.15,15.66-.15,35-.15S405.08,247,405.08,247.06Z"/><path class="cls-25" d="M405.08,240.79c0,.08-15.66.15-35,.15s-35-.07-35-.15,15.66-.16,35-.16S405.08,240.7,405.08,240.79Z"/><path class="cls-25" d="M405.08,253.27c0,.08-15.66.15-35,.15s-35-.07-35-.15,15.66-.15,35-.15S405.08,253.19,405.08,253.27Z"/><path class="cls-25" d="M380.94,259.7c0,.08-10.26.15-22.91.15s-22.92-.07-22.92-.15,10.26-.15,22.92-.15S380.94,259.61,380.94,259.7Z"/><path class="cls-28" d="M424.69,116.39a4.94,4.94,0,0,0-1.64-3.16,3.24,3.24,0,0,1-.91-3.46c.33-1.24,1.12-1.14,1.43-1.87a5.54,5.54,0,0,0,.17-1.73,3.61,3.61,0,0,1,4.3-3.06,5,5,0,0,1,9.22-1,3.84,3.84,0,0,1,5.6,3.12,2.8,2.8,0,0,1,3.64.55,3.44,3.44,0,0,1,.26,3.79,4.51,4.51,0,0,1-3.26,2.15,6.59,6.59,0,0,1-3.92-.71,12.7,12.7,0,0,1-3.22-2.43"/><ellipse class="cls-26" cx="433.57" cy="155.85" rx="23.51" ry="22.96"/><path class="cls-33" d="M457.18,155.87l-2.6-6.67-9.33,5.86,8.31,12.81S456.94,163.48,457.18,155.87Z"/><path class="cls-34" d="M431.43,141.42h0a6.26,6.26,0,0,0,6.28-5.92c.14-2.76.26-5.42.26-5.42s5.13-.37,5.6-5.39.54-16.62.54-16.62h0a17.8,17.8,0,0,0-17.87.78l-.49.31-.59,26A6.26,6.26,0,0,0,431.43,141.42Z"/><path class="cls-28" d="M434.37,115.79a.72.72,0,0,1,.47.92.74.74,0,1,1-.47-.92Z"/><path class="cls-28" d="M435.78,116.05c-.08.08-.56-.33-1.26-.37s-1.23.28-1.3.19.06-.2.29-.35a1.75,1.75,0,0,1,2,.14C435.76,115.85,435.82,116,435.78,116.05Z"/><path class="cls-28" d="M442,115.79a.72.72,0,0,1,.47.92.74.74,0,0,1-.93.47.73.73,0,1,1,.46-1.39Z"/><path class="cls-28" d="M443.53,116.07c-.08.08-.56-.33-1.26-.38s-1.22.29-1.3.19.06-.19.29-.35a1.67,1.67,0,0,1,1-.25,1.71,1.71,0,0,1,1,.4C443.51,115.87,443.57,116,443.53,116.07Z"/><path class="cls-28" d="M438.26,121.49a3.22,3.22,0,0,1,1.15-.15c.18,0,.33,0,.35-.13a1,1,0,0,0-.09-.53l-.43-1.45a19.87,19.87,0,0,1-.9-3.79,18.8,18.8,0,0,1,1.28,3.69c.14.5.27,1,.41,1.45a1.15,1.15,0,0,1,0,.76.46.46,0,0,1-.33.27,1.18,1.18,0,0,1-.32,0A3.58,3.58,0,0,1,438.26,121.49Z"/><path class="cls-33" d="M438,130a11.87,11.87,0,0,1-6.45-2.4s1.26,3.74,6.36,3.7Z"/><path class="cls-34" d="M425.63,116.53a.77.77,0,0,0-.72-.78c-1,0-2.5.3-2.7,2.89-.28,3.69,3.33,2.84,3.34,2.73S425.61,118,425.63,116.53Z"/><path class="cls-33" d="M424.76,119.91s-.07,0-.18.08a.66.66,0,0,1-.49,0,1.58,1.58,0,0,1-.63-1.48,2,2,0,0,1,.25-.91.74.74,0,0,1,.52-.46.33.33,0,0,1,.37.21.69.69,0,0,1,0,.18s.09,0,.07-.21a.44.44,0,0,0-.13-.24.45.45,0,0,0-.35-.12.91.91,0,0,0-.72.52,2.1,2.1,0,0,0-.3,1,1.65,1.65,0,0,0,.82,1.67.69.69,0,0,0,.6,0C424.75,120,424.77,119.91,424.76,119.91Z"/><path class="cls-28" d="M432.47,114.08c.19.24.83.13,1.67.09s1.48,0,1.63-.29-.63-.88-1.71-.8S432.27,113.84,432.47,114.08Z"/><path class="cls-28" d="M440.61,113.84c.1.32.71.42,1.39.41s1.29-.13,1.38-.45-.52-.77-1.39-.76S440.51,113.52,440.61,113.84Z"/><path class="cls-28" d="M444.82,109.66a8.35,8.35,0,0,1-7-.5c-2.6-1.3-5.63-1.93-6.3-1.41s-.81,3.2-3.38,4c0,0,.17,5.11-1.86,4.93s-.77-8.1-.77-8.1l5-2.43,5.44-1,5.12.72,4,1.09Z"/><path class="cls-29" d="M410.71,139.23c5.33-5.47,14.7-4.88,14.7-4.88l7.77,5.57,4.41-5.13a28.4,28.4,0,0,1,9,2.77l.3.09v.07c3.41,1.85,8.23,6.29,12.83,10.6l-5.5,5.1-6.09,5.41a.2.2,0,0,1,0,.11c-.07.33.84,7.76,1.78,13.41a22.94,22.94,0,0,1-20.47,6.19c-2.49-.44-3.7-1-6-1.65a8.34,8.34,0,0,1-6.18-7.36h0c-.42-4.74-.73-10.61-.73-10.61"/><path class="cls-28" d="M442.46,135.74a6.14,6.14,0,0,1,.34.88c.2.56.47,1.39.79,2.42.64,2.05,1.46,4.92,2.23,8.11s1.35,6.11,1.72,8.24c.18,1.06.32,1.92.4,2.51a6.32,6.32,0,0,1,.1.93,5.93,5.93,0,0,1-.21-.91c-.13-.63-.29-1.48-.49-2.5-.42-2.11-1-5-1.8-8.2s-1.55-6.06-2.14-8.12l-.71-2.45A6.52,6.52,0,0,1,442.46,135.74Z"/><path class="cls-28" d="M447.47,155.32c-.05-.06,2.27-2,5.19-4.41s5.32-4.25,5.36-4.19-2.27,2-5.19,4.41S447.52,155.38,447.47,155.32Z"/><path class="cls-35" d="M417.74,146.75,413,162.44l1.78.92,1.75-4.44S418.29,149.61,417.74,146.75Z"/><g class="cls-36"><path d="M442,135.75c2.57,1.36-3.87,4.62-6.78,4.53l2.11-5.58A30.14,30.14,0,0,1,442,135.75Z"/></g><path class="cls-29" d="M424.64,134.7v-4.15s8.12,2.09,8.41,6.94c0,0,1-5.36,5.21-5.62l.59,7.55L434,143.65h-4.93l-3.91-3.37-.51-5.24"/><path class="cls-28" d="M434.88,160.77a4.77,4.77,0,0,1,0-.89c0-.57,0-1.4,0-2.43,0-2-.06-4.88-.32-8s-.66-5.93-1-7.95c-.17-1-.31-1.78-.42-2.39a5.18,5.18,0,0,1-.14-.88,4.31,4.31,0,0,1,.24.86c.14.55.32,1.37.52,2.38a75.32,75.32,0,0,1,1.1,7.95,76.37,76.37,0,0,1,.23,8c0,1-.07,1.86-.12,2.43A5.31,5.31,0,0,1,434.88,160.77Z"/><path class="cls-28" d="M432.68,136.1a1,1,0,0,0-.48,0c-.31.1-.59.49-.82,1a23.4,23.4,0,0,0-1.54,4.48l0,.19-.17-.1c-.48-.29-1-.61-1.48-.95a28.19,28.19,0,0,1-2.63-2,3.35,3.35,0,0,1-.9-1.17,3.71,3.71,0,0,1-.27-1.25,7.57,7.57,0,0,1,.18-1.82,2.47,2.47,0,0,1,.18-.64,3.21,3.21,0,0,1-.07.66,8.34,8.34,0,0,0-.09,1.79,3.52,3.52,0,0,0,.29,1.17,3.14,3.14,0,0,0,.85,1.07c.77.64,1.66,1.31,2.62,2,.5.33,1,.65,1.47.94l-.21.09a20.55,20.55,0,0,1,1.65-4.5,3.82,3.82,0,0,1,.43-.7,1.09,1.09,0,0,1,.52-.35C432.51,136,432.69,136.09,432.68,136.1Z"/><path class="cls-28" d="M438.26,131.87a2.68,2.68,0,0,1,.08.65l.13,1.77c.06.74.15,1.63.3,2.6a4.33,4.33,0,0,1,.1,1.59,2.79,2.79,0,0,1-1.07,1.37A11.49,11.49,0,0,0,436,141.2l-.22.25,0-.33a9.67,9.67,0,0,0-1.2-4c-.51-.93-.94-1.4-.91-1.43s.13.1.32.32a6.82,6.82,0,0,1,.74,1,9.28,9.28,0,0,1,1.32,4.11l-.24-.08a12.19,12.19,0,0,1,1.82-1.4,2.57,2.57,0,0,0,1-1.2,4.18,4.18,0,0,0-.09-1.49,26.38,26.38,0,0,1-.24-2.63c0-.75,0-1.36,0-1.78A2.76,2.76,0,0,1,438.26,131.87Z"/><path class="cls-28" d="M464.37,132.91c-.33.39-12.27,16.36-12.27,16.36l1.68.95L466,134.46Z"/><path class="cls-34" d="M416.4,145.54S429,163.62,429.72,164c1.49.7,18.68-14.16,20.31-15.58.23-.3.7-.94,1.61-2.2,0,0,1.36-6.21,2.81-5.73s-.8,3.15.15,5.51,5.25-3.27,5.43-3.77l1.11-1.45a18.91,18.91,0,0,1,1.09,4.69c-.26,4.42-4.44,9.69-4.44,9.69s-18.81,23.3-31.7,24c-3.71.21-10.3-10.32-14.71-18.21a10.8,10.8,0,0,1,3.08-14Z"/><path class="cls-33" d="M460.11,146.23s.36-.73.81-1.63.77-1.66.81-1.64a6.84,6.84,0,0,1-.66,1.71A6.49,6.49,0,0,1,460.11,146.23Z"/><path class="cls-29" d="M414.27,136.71s-13.48,4.8-3.46,27.47l15.57-9.39-2.22-5.31Z"/><path class="cls-28" d="M413.24,137.1a4.86,4.86,0,0,1,1.62.14,6.65,6.65,0,0,1,1.77.75,9.52,9.52,0,0,1,2,1.61,23.75,23.75,0,0,1,3.67,5.47c1.14,2.21,2.2,4.72,3.29,7.36.33.79.65,1.57,1,2.3l.05.12-.11.06c-4.51,2.46-8.43,4.75-11.2,6.48-1.39.85-2.49,1.56-3.25,2.05l-.88.56a1.27,1.27,0,0,1-.31.18l.28-.22c.2-.14.48-.35.85-.6.74-.52,1.83-1.25,3.21-2.13,2.75-1.77,6.66-4.1,11.16-6.57l-.06.18-1-2.31c-1.09-2.63-2.14-5.14-3.27-7.34a23.81,23.81,0,0,0-3.57-5.45,9.71,9.71,0,0,0-1.9-1.62,6.74,6.74,0,0,0-1.72-.77A9.45,9.45,0,0,0,413.24,137.1Z"/><path class="cls-29" d="M442.25,103.48a1.6,1.6,0,0,1,.06.24,2.78,2.78,0,0,1,0,.7,3.71,3.71,0,0,1-1,2.36,3.66,3.66,0,0,1-3.63.91,3.15,3.15,0,0,1-1.85-1.34,1.88,1.88,0,0,1-.28-1.23,1.59,1.59,0,0,1,.66-1.12,1.39,1.39,0,0,1,1.31-.09,1.7,1.7,0,0,1,.89.9,2.38,2.38,0,0,1-.36,2.26,2.82,2.82,0,0,1-3.56.77,5.66,5.66,0,0,0-1.34-.51,1.59,1.59,0,0,0-1,.11,4.61,4.61,0,0,0-.77.51s0-.08.16-.19a1.11,1.11,0,0,1,.22-.2,1.54,1.54,0,0,1,.34-.22,1.79,1.79,0,0,1,1.12-.17,6.28,6.28,0,0,1,1.39.49,4.2,4.2,0,0,0,.78.26,2.61,2.61,0,0,0,.88,0,2.53,2.53,0,0,0,1.61-1,2.08,2.08,0,0,0,.31-2,1.28,1.28,0,0,0-1.78-.69,1.3,1.3,0,0,0-.54.93,1.59,1.59,0,0,0,.23,1,3,3,0,0,0,1.7,1.24,3.46,3.46,0,0,0,3.41-.8,3.73,3.73,0,0,0,1.06-2.22C442.31,103.82,442.21,103.49,442.25,103.48Z"/><path class="cls-28" d="M439.31,124s-.17.1-.47.12a2.49,2.49,0,0,1-1.12-.26,2.26,2.26,0,0,1-.88-.76c-.17-.24-.22-.42-.19-.44s.44.58,1.19.94A6.91,6.91,0,0,0,439.31,124Z"/><path class="cls-28" d="M425.06,121.57s.18.23,0,.61a.9.9,0,0,1-.55.44,1,1,0,0,1-.84-.22,1,1,0,0,1-.11-1.44c.26-.31.52-.34.53-.31s-.19.14-.37.42a.86.86,0,0,0,.13,1.11.71.71,0,0,0,.6.18.74.74,0,0,0,.45-.29C425.07,121.81,425,121.57,425.06,121.57Z"/><path class="cls-29" d="M443.14,105.31a1.83,1.83,0,0,1,.26,1,3.32,3.32,0,0,1-3,3.48,1.86,1.86,0,0,1-1-.11c0-.05.39,0,1-.08a3.57,3.57,0,0,0,2-1.12,3.52,3.52,0,0,0,.82-2.17C443.22,105.7,443.09,105.33,443.14,105.31Z"/><path class="cls-26" d="M424.77,150.76c0,.07-3.55,1.91-8,4.11s-8.09,3.93-8.12,3.86,3.54-1.91,8-4.11S424.74,150.69,424.77,150.76Z"/><path class="cls-26" d="M421.51,144.6c0,.07-3.16,1.85-7.12,4s-7.22,3.8-7.26,3.74,3.15-1.86,7.12-4S421.47,144.53,421.51,144.6Z"/><path class="cls-26" d="M418.35,139.62a12.51,12.51,0,0,1-1.59.94l-3.9,2.18L409,145a13.43,13.43,0,0,1-1.63.88,10.05,10.05,0,0,1,1.53-1.05c1-.61,2.32-1.43,3.84-2.29s2.92-1.59,3.94-2.1A10.37,10.37,0,0,1,418.35,139.62Z"/><path class="cls-26" d="M430.28,138.44a2.6,2.6,0,0,1-1-.28,8.26,8.26,0,0,1-2.19-1.43,16,16,0,0,1-1.78-1.92,3.84,3.84,0,0,1-.61-.89s.32.27.77.76,1.06,1.17,1.8,1.84a10.61,10.61,0,0,0,2.1,1.46C429.9,138.28,430.29,138.4,430.28,138.44Z"/><path class="cls-26" d="M438.2,135.5a3.73,3.73,0,0,1-2.92,2.46,18,18,0,0,0,1.61-1.05A17.4,17.4,0,0,0,438.2,135.5Z"/><path class="cls-26" d="M452.33,143.67a1.21,1.21,0,0,1-.3.06l-.88.11c-.76.08-1.86.19-3.22.29-2.72.22-6.49.43-10.66.58s-7.94.21-10.68.18c-1.36,0-2.47,0-3.23-.06l-.88-.05-.31,0a1.09,1.09,0,0,1,.31,0h.88l3.23,0c2.73,0,6.5-.11,10.67-.26s7.93-.33,10.66-.5l3.22-.2.88-.06Z"/><path class="cls-26" d="M448,150.11a5.36,5.36,0,0,1-.89.14c-.58.08-1.42.17-2.45.26-2.07.19-4.93.39-8.1.52s-6,.16-8.12.13c-1,0-1.88,0-2.46,0a6,6,0,0,1-.9-.07,5.82,5.82,0,0,1,.9,0l2.46,0c2.08,0,4.94-.09,8.11-.22s6-.29,8.09-.43l2.46-.17A6.76,6.76,0,0,1,448,150.11Z"/><path class="cls-26" d="M438.3,158.06a10,10,0,0,1-1.8.25c-1.11.12-2.66.24-4.37.33s-3.26.11-4.38.11a10.93,10.93,0,0,1-1.82-.08,13.47,13.47,0,0,1,1.81-.12l4.38-.2,4.37-.24A12.43,12.43,0,0,1,438.3,158.06Z"/><path class="cls-26" d="M425.86,139.21c0,.08-1.67.1-3.72.18s-3.72.2-3.72.12a18.08,18.08,0,0,1,3.71-.4A17.16,17.16,0,0,1,425.86,139.21Z"/><path class="cls-26" d="M448.77,138.91a39.9,39.9,0,0,1-4.83.13,43.42,43.42,0,0,1-4.82-.16,39.9,39.9,0,0,1,4.83-.13A40.68,40.68,0,0,1,448.77,138.91Z"/><path class="cls-26" d="M449.6,172a2.69,2.69,0,0,1-.49.28c-.33.17-.81.39-1.41.64a30.71,30.71,0,0,1-4.88,1.56,31.86,31.86,0,0,1-5.07.74c-.66,0-1.19.05-1.55,0a2.34,2.34,0,0,1-.57,0c0-.05.8-.08,2.1-.2a41.53,41.53,0,0,0,5-.81,41.07,41.07,0,0,0,4.87-1.47C448.85,172.25,449.59,171.92,449.6,172Z"/><ellipse class="cls-26" cx="305.74" cy="249.15" rx="25.27" ry="24.11"/><path class="cls-28" d="M300.59,191c-4,.21-5.58,4.39-6.06,5.32a8,8,0,0,0-.64,3.06,6.76,6.76,0,0,1-.77,3c-.89,1.41-2.74,2.14-3.25,3.72-.57,1.79.9,3.71.51,5.55-.21,1-.93,1.8-1.19,2.77a4.12,4.12,0,0,0,.55,3c1.31,2.26,4,3.4,6.66,3.49a23.12,23.12,0,0,0,7.67-1.46"/><path class="cls-28" d="M318.24,196.22a2.46,2.46,0,0,0,.59,2.58,16.26,16.26,0,0,0,2.17,1.77,3.53,3.53,0,0,1,1.48,2.29c.08.85-.35,1.7-.23,2.55.3,2.19,3.78,2.85,4,5,.12,1.47-1.38,2.81-1,4.22a6.66,6.66,0,0,0,.87,1.44,4.28,4.28,0,0,1-1.11,5.18,8.53,8.53,0,0,1-5.34,1.81c-1.61.07-3.44-.19-4.39-1.49s-.69-2.82-.52-4.29a149.6,149.6,0,0,0,.53-20.64"/><path class="cls-34" d="M301.65,227.88c0-3.6,0-7.38,0-7.38s-4.62-.82-5.51-6.87c-.85-5.78.59-18.19.59-18.19h0c6.7-2.64,14.24-1.62,18.93,3.77h0l-.73,29.19a6.26,6.26,0,0,1-6.7,5.89h0A6.61,6.61,0,0,1,301.65,227.88Z"/><path class="cls-28" d="M298,205a.77.77,0,0,0,.74.79.73.73,0,0,0,.8-.69.77.77,0,0,0-.73-.79A.74.74,0,0,0,298,205Z"/><path class="cls-28" d="M296.73,204.37c.1.1.69-.32,1.52-.31,1.57.23,1.54.47,1.54.33s-.06-.22-.32-.42a2.1,2.1,0,0,0-2.44,0C296.78,204.14,296.69,204.33,296.73,204.37Z"/><path class="cls-28" d="M306.51,205.22a.77.77,0,0,0,.74.79.74.74,0,0,0,.81-.69.77.77,0,0,0-.74-.79A.74.74,0,0,0,306.51,205.22Z"/><path class="cls-28" d="M305.43,204.66c.09.1.69-.33,1.52-.31s1.44.43,1.53.33-.05-.23-.31-.42a2.16,2.16,0,0,0-1.23-.4,2.07,2.07,0,0,0-1.21.38C305.47,204.43,305.38,204.61,305.43,204.66Z"/><path class="cls-28" d="M302.33,210.64a5.41,5.41,0,0,0-1.35-.26c-.21,0-.41-.07-.45-.21a1.1,1.1,0,0,1,.15-.63l.65-1.62a27.17,27.17,0,0,0,1.46-4.22,29.22,29.22,0,0,0-1.8,4.1c-.21.56-.42,1.1-.62,1.62a1.27,1.27,0,0,0-.12.83.55.55,0,0,0,.35.32,1.2,1.2,0,0,0,.36.05A5.07,5.07,0,0,0,302.33,210.64Z"/><path class="cls-33" d="M301.64,220.5a15.4,15.4,0,0,0,8.12-2.06s-2,4.12-8.05,3.49Z"/><path class="cls-33" d="M302.66,212.65a1.51,1.51,0,0,1,1.35-.54,1.36,1.36,0,0,1,.95.52.89.89,0,0,1,.05,1,1,1,0,0,1-1.1.26,3.12,3.12,0,0,1-1.05-.65,1,1,0,0,1-.24-.25.29.29,0,0,1,0-.31"/><path class="cls-28" d="M304.78,211.25c-.14,0-.15.89-.93,1.52s-1.74.53-1.75.65.21.18.62.2a2.28,2.28,0,0,0,1.46-.49,1.92,1.92,0,0,0,.72-1.29C304.94,211.47,304.84,211.24,304.78,211.25Z"/><path class="cls-28" d="M313,194.9c-2.21,3.15-8.06,6.39-12.25,7.14.49-.64,3.06-2.23,3.55-2.87-1.9,1.42-4.62,3.31-7.14,3.44a1.47,1.47,0,0,1-.86-.13,1.14,1.14,0,0,1-.44-.95,25.12,25.12,0,0,1,.17-5.48,6.08,6.08,0,0,1,2.18-3.9c1.62-1.25,3.93-1.56,6.1-1.61a13.87,13.87,0,0,1,5.38.72,5,5,0,0,1,3.34,3.53"/><path class="cls-28" d="M319.36,209a33.62,33.62,0,0,0,.6-4c.18-3.12-.72-14.62-11.47-13.7l-.43,3.28s-1.66,11.2,5.29,11.29a12.47,12.47,0,0,0,3.53,6.58s1.83-.05,2.48-3.41"/><path class="cls-34" d="M313.35,205.85a3.55,3.55,0,0,1,1.94.14,2.52,2.52,0,0,1,1.41,1.31,2.63,2.63,0,0,1,0,1.93,4.41,4.41,0,0,1-1.12,1.61,3.06,3.06,0,0,1-1.18.77,1.42,1.42,0,0,1-1.35-.23"/><path class="cls-33" d="M313.66,209.77c-.07,0,.2.41.8.26a1.27,1.27,0,0,0,.73-.63,2.75,2.75,0,0,0,.34-1.07,1.72,1.72,0,0,0-.26-1.14,1.13,1.13,0,0,0-.84-.51c-.61,0-.81.4-.74.41s.29-.16.69-.06a1.09,1.09,0,0,1,.66,1.26,1.81,1.81,0,0,1-.7,1.41C314,209.89,313.7,209.71,313.66,209.77Z"/><path class="cls-28" d="M314.52,193.71a3.64,3.64,0,0,0,5-1.3,2.28,2.28,0,0,0,.34-1.75,2.4,2.4,0,0,0-1.8-1.57,3.7,3.7,0,0,0-3.39.82,3.23,3.23,0,0,0-.88,3.32,2.89,2.89,0,0,0,2.79,1.93"/><path class="cls-28" d="M315.5,211.14a8.82,8.82,0,0,0-1.67,1.44,2.91,2.91,0,0,0-.72,2,5.08,5.08,0,0,1,.14,1.22c-.08.56-.55,1-.85,1.46a3.45,3.45,0,0,0,.55,4.06,5.6,5.6,0,0,0,4,1.61,3.4,3.4,0,0,0,3.86-3.83"/><path class="cls-29" d="M316.23,196.13a4.09,4.09,0,0,1-.63,1.1,12.71,12.71,0,0,1-2.07,2.26A12.56,12.56,0,0,1,311,201.2a3.75,3.75,0,0,1-1.19.46,26.77,26.77,0,0,0,3.54-2.4A27.92,27.92,0,0,0,316.23,196.13Z"/><path class="cls-29" d="M317.35,196.07a5,5,0,0,1-.2,1.47,11.81,11.81,0,0,1-1.37,3.32,12.19,12.19,0,0,1-2.29,2.77,4.85,4.85,0,0,1-1.21.86,18.22,18.22,0,0,0,3.24-3.78A18.63,18.63,0,0,0,317.35,196.07Z"/><path class="cls-29" d="M294,200.93c.09,0,.2,1,.55,2.2s.79,2.12.71,2.16a5,5,0,0,1-1-2.07A5,5,0,0,1,294,200.93Z"/><path class="cls-29" d="M319.76,221.59a1.74,1.74,0,0,0,.89.28,1.76,1.76,0,0,0,1-.32,2.08,2.08,0,0,0,.78-1.18,3.86,3.86,0,0,0,0-1.76c-.13-.63-.37-1.29-.59-2a5.24,5.24,0,0,1-.26-2.36,12.76,12.76,0,0,1,1-2.31,3,3,0,0,0-1.77-3.77,10,10,0,0,1-1-.44A2.08,2.08,0,0,1,319,207a3.42,3.42,0,0,1-.37-1.84,5.9,5.9,0,0,0-.06-1.49,2.38,2.38,0,0,0-.43-1,1.51,1.51,0,0,0-.79-.49.6.6,0,0,1,.25,0,1.27,1.27,0,0,1,.63.39,2.51,2.51,0,0,1,.51,1,6.07,6.07,0,0,1,.11,1.52,2.34,2.34,0,0,0,2.06,2.73,3.22,3.22,0,0,1,1.75,1.59,3.28,3.28,0,0,1,.2,2.54,13.63,13.63,0,0,0-1,2.26,5.21,5.21,0,0,0,.24,2.23c.2.7.44,1.37.57,2a4,4,0,0,1-.06,1.87,2.18,2.18,0,0,1-.89,1.26,1.88,1.88,0,0,1-1.12.3,1.3,1.3,0,0,1-.7-.23A.64.64,0,0,1,319.76,221.59Z"/><path class="cls-29" d="M315.55,221.18s.07.19.35.31a1,1,0,0,0,1.14-.3,1.81,1.81,0,0,0-.1-1.83,7.79,7.79,0,0,1-1.16-2.27,1.65,1.65,0,0,1,.32-1.35c.29-.35.63-.58.84-.87a2.56,2.56,0,0,0,.41-1.87,7.59,7.59,0,0,0-.33-1.32,1.6,1.6,0,0,1-.14-.5,1.92,1.92,0,0,1,.25.46,5.44,5.44,0,0,1,.43,1.33,2.73,2.73,0,0,1-.39,2.07c-.25.33-.59.58-.83.89a1.35,1.35,0,0,0-.26,1.11,8.21,8.21,0,0,0,1.11,2.19,2,2,0,0,1,0,2.08,1.08,1.08,0,0,1-.74.41,1.06,1.06,0,0,1-.62-.12C315.54,221.41,315.53,221.17,315.55,221.18Z"/><path class="cls-29" d="M292.66,219.65s-.19-.15-.48-.47a6,6,0,0,1-1-1.54,3,3,0,0,1-.25-1.27,2.21,2.21,0,0,1,.52-1.42c.36-.42.88-.63,1.2-1a1.71,1.71,0,0,0,.24-1.51,6.51,6.51,0,0,0-.64-1.54,5.57,5.57,0,0,1-.57-1.53,2,2,0,0,1,.3-1.48,5.23,5.23,0,0,1,.89-.92,2.74,2.74,0,0,0,1-1.43,1.58,1.58,0,0,0,0-.64s.05.05.09.15a1.06,1.06,0,0,1,.06.51,2.67,2.67,0,0,1-1,1.56,5.2,5.2,0,0,0-.83.91,1.77,1.77,0,0,0-.23,1.29,5,5,0,0,0,.55,1.44,6.74,6.74,0,0,1,.68,1.62,2,2,0,0,1-.31,1.75c-.4.47-.92.67-1.22,1a2,2,0,0,0-.48,1.24,2.79,2.79,0,0,0,.2,1.18,6.34,6.34,0,0,0,.91,1.54A4,4,0,0,1,292.66,219.65Z"/><path class="cls-37" d="M317,194.48a9.58,9.58,0,0,0-1.43-1.55,9.73,9.73,0,0,0-1.87-1,2.92,2.92,0,0,1,2.06.71A2.86,2.86,0,0,1,317,194.48Z"/><path class="cls-29" d="M317.85,188.89s.23.21.38.66a3.14,3.14,0,0,1-.94,3.42c-.37.3-.65.4-.67.37s.22-.2.52-.53a3.57,3.57,0,0,0,.85-1.49,3.7,3.7,0,0,0,0-1.71A4.34,4.34,0,0,1,317.85,188.89Z"/><path class="cls-38" d="M288.2,260.71s14.51,13.77,23.13,11.28,11.18-9,11.18-9l.21-2.32-.87-.57-33.2-2.68Z"/><path class="cls-33" d="M279.62,247.81l2.8-7.18,10,6.3-8.93,13.78S279.88,256,279.62,247.81Z"/><path class="cls-39" d="M290.94,228a35.68,35.68,0,0,1,10.7-3.14h0c1.76,3.51,7.28,4,10.63,1.56l2.82-1.91a9.38,9.38,0,0,1,1.18.05,15.07,15.07,0,0,1,13.35,12,30.28,30.28,0,0,1,.71,7.59c-.37,6.37-7,7-7,7s-.34,6.3-.78,11.4h0a9.53,9.53,0,0,1-5.78,8.24,23.67,23.67,0,0,1-7.36,2.27,24.75,24.75,0,0,1-21.95-7.6c1-6.08,2-13.94,1.89-14.29a.17.17,0,0,1,0-.12l-6.55-5.81-3.71-3.12S287.27,230,290.94,228"/><path class="cls-30" d="M299.05,231.92a3.51,3.51,0,0,0-1.62-.45,2.65,2.65,0,0,0-1.67.58,6.48,6.48,0,0,0-.74.8,2,2,0,0,1-1.06.7,1.74,1.74,0,0,1-1.24-.33c-.33-.21-.62-.45-.92-.62a2,2,0,0,0-1.71-.15,2.15,2.15,0,0,0-1,.69c-.19.22-.25.38-.28.37a1,1,0,0,1,.18-.44,2.26,2.26,0,0,1,2.94-.71c.33.17.62.41.94.61a1.44,1.44,0,0,0,1,.28,1.68,1.68,0,0,0,.9-.6,6.05,6.05,0,0,1,.78-.82,2.84,2.84,0,0,1,1.85-.58,2.7,2.7,0,0,1,1.25.36C299,231.77,299.06,231.91,299.05,231.92Z"/><path class="cls-30" d="M305.7,240.63a3.53,3.53,0,0,0-1.39-.94,2.69,2.69,0,0,0-1.77,0,6.61,6.61,0,0,0-1,.52,1.91,1.91,0,0,1-1.23.32,1.7,1.7,0,0,1-1.06-.7c-.25-.31-.45-.63-.67-.88a2,2,0,0,0-1.58-.69,2.25,2.25,0,0,0-1.16.33c-.25.16-.36.28-.38.26a1,1,0,0,1,.31-.36,2.25,2.25,0,0,1,1.23-.45,2.21,2.21,0,0,1,1.79.72c.25.27.45.59.69.88a1.45,1.45,0,0,0,.88.59,1.67,1.67,0,0,0,1-.28,6.48,6.48,0,0,1,1-.53,2.8,2.8,0,0,1,1.93.05,2.55,2.55,0,0,1,1.07.74A1.11,1.11,0,0,1,305.7,240.63Z"/><path class="cls-30" d="M320.48,227.87a3.44,3.44,0,0,0-1.68-.09,2.67,2.67,0,0,0-1.51.92,7.14,7.14,0,0,0-.56.93,1.89,1.89,0,0,1-.88.91,1.7,1.7,0,0,1-1.28-.06c-.37-.14-.7-.31-1-.41a2,2,0,0,0-1.7.22,2.23,2.23,0,0,0-.83.88c-.13.26-.17.43-.19.42s0-.18.08-.47a2.27,2.27,0,0,1,2.72-1.32c.36.11.7.28,1.05.4a1.45,1.45,0,0,0,1.06.06,1.61,1.61,0,0,0,.74-.78,7.34,7.34,0,0,1,.6-1,2.83,2.83,0,0,1,1.69-1,2.66,2.66,0,0,1,1.29.09A1.08,1.08,0,0,1,320.48,227.87Z"/><path class="cls-30" d="M313.66,237.45a3,3,0,0,0-1.05-.75,2,2,0,0,0-1.34,0,5.1,5.1,0,0,0-.76.36,1.49,1.49,0,0,1-1,.22,1.33,1.33,0,0,1-.81-.6c-.18-.25-.32-.5-.49-.7a1.51,1.51,0,0,0-1.16-.58,2,2,0,0,0-1.21.38s.05-.13.24-.28a1.75,1.75,0,0,1,2.35.3c.19.22.33.47.51.7a1.09,1.09,0,0,0,.63.48c.54.09,1-.39,1.59-.55a2.17,2.17,0,0,1,1.51.11C313.5,236.87,313.69,237.46,313.66,237.45Z"/><path class="cls-30" d="M298.62,245.52a2.85,2.85,0,0,0-1.05-.75,2,2,0,0,0-1.34,0,4.6,4.6,0,0,0-.75.36,1.52,1.52,0,0,1-1,.22,1.39,1.39,0,0,1-.82-.6c-.18-.25-.32-.5-.48-.7a1.51,1.51,0,0,0-1.17-.58,2.07,2.07,0,0,0-1.21.38s.05-.13.25-.28a1.62,1.62,0,0,1,1-.32,1.71,1.71,0,0,1,1.38.62c.19.22.34.47.51.7a1.09,1.09,0,0,0,.63.48c.54.09,1-.39,1.59-.55a2.17,2.17,0,0,1,1.51.11C298.46,244.94,298.65,245.53,298.62,245.52Z"/><path class="cls-30" d="M312.68,245.7a2.91,2.91,0,0,0-1.24-.37,2,2,0,0,0-1.28.39,6.56,6.56,0,0,0-.6.59,1.43,1.43,0,0,1-.85.52,1.33,1.33,0,0,1-1-.3c-.25-.17-.47-.37-.68-.5a1.54,1.54,0,0,0-1.3-.18,2.17,2.17,0,0,0-1,.76s0-.14.15-.35a1.61,1.61,0,0,1,.81-.61,1.66,1.66,0,0,1,1.5.14c.25.15.47.34.71.5a1.09,1.09,0,0,0,.75.24c.54-.08.85-.7,1.33-1a2.18,2.18,0,0,1,1.46-.39A1.64,1.64,0,0,1,312.68,245.7Z"/><path class="cls-30" d="M308,252.11a2.93,2.93,0,0,0-1.23-.37,2.08,2.08,0,0,0-1.29.4,5.46,5.46,0,0,0-.59.59,1.59,1.59,0,0,1-.86.52,1.38,1.38,0,0,1-1-.3c-.26-.18-.47-.37-.69-.51a1.48,1.48,0,0,0-1.29-.17,2.06,2.06,0,0,0-1,.75.68.68,0,0,1,.14-.35,1.76,1.76,0,0,1,2.32-.47c.25.15.47.34.71.5a1.07,1.07,0,0,0,.75.24c.54-.08.85-.7,1.33-1a2.14,2.14,0,0,1,1.46-.38A1.55,1.55,0,0,1,308,252.11Z"/><path class="cls-30" d="M298.23,268a3,3,0,0,0-1.06-.74,2,2,0,0,0-1.34,0,4.82,4.82,0,0,0-.75.38,1.49,1.49,0,0,1-1,.22,1.33,1.33,0,0,1-.82-.58c-.19-.25-.33-.5-.5-.7a1.52,1.52,0,0,0-1.17-.56,2.06,2.06,0,0,0-1.2.4s0-.13.24-.28a1.68,1.68,0,0,1,1-.34,1.75,1.75,0,0,1,1.39.6c.19.22.34.47.51.7a1.16,1.16,0,0,0,.65.47c.53.08,1-.41,1.58-.58a2.18,2.18,0,0,1,1.51.09A1.6,1.6,0,0,1,298.23,268Z"/><path class="cls-30" d="M309.7,271.41a3.1,3.1,0,0,0-1.23-.38,2,2,0,0,0-1.29.37,7.92,7.92,0,0,0-.6.58,1.47,1.47,0,0,1-.86.51,1.34,1.34,0,0,1-1-.31c-.26-.18-.47-.38-.68-.52a1.53,1.53,0,0,0-1.29-.19,2.07,2.07,0,0,0-1,.74s0-.14.14-.34a1.67,1.67,0,0,1,.82-.6,1.69,1.69,0,0,1,1.51.16c.24.15.46.34.7.51a1.08,1.08,0,0,0,.75.25c.54-.08.86-.69,1.34-1a2.21,2.21,0,0,1,1.47-.36A1.58,1.58,0,0,1,309.7,271.41Z"/><path class="cls-28" d="M271.89,223.13c.36.42,13.19,17.58,13.19,17.58l-1.8,1-13.18-17Z"/><path class="cls-34" d="M322,235.38s-12,20.76-12.86,21.14c-1.6.75-20.08-15.21-21.84-16.74-.24-.32-.74-1-1.72-2.37,0,0-1.46-6.67-3-6.16s.85,3.39-.16,5.93-5.65-3.51-5.84-4.05l-1.19-1.57s-1.26,3.56-1.17,5C274.47,241.36,279,247,279,247s18.3,22.93,32.15,23.7c4,.23,11.6-11.26,16.34-19.74,2.86-5.13,1.54-10.34-3.21-13.79Z"/><path class="cls-33" d="M276.47,237.45a7.05,7.05,0,0,1-1-1.68,7.26,7.26,0,0,1-.71-1.84s.39.79.87,1.76S276.51,237.42,276.47,237.45Z"/><path class="cls-40" d="M321.43,229.6c-.48.29-11.67,21.07-11.67,21.07L324.17,262a167.76,167.76,0,0,0,5.73-16.74,24.16,24.16,0,0,0-.5-9.59c-1.08-3-2.7-2.24-5.13-4Z"/><g class="cls-41"><path d="M326.16,229.6s-.14-.08-.41-.21a2.41,2.41,0,0,0-1.26-.27,3.46,3.46,0,0,0-1.88.79,9.25,9.25,0,0,0-1.88,2c-.61.83-1.11,1.84-1.73,2.89s-1.24,2.2-1.92,3.38c-1.36,2.39-2.86,5-4.43,7.74l-2.76,4.8,0-.18,9.75,7.7,2.83,2.27.75.62a1.55,1.55,0,0,1,.25.23,1.44,1.44,0,0,1-.28-.19l-.78-.58-2.89-2.2-9.81-7.62-.1-.08.06-.11,2.75-4.81,4.45-7.72c.69-1.18,1.34-2.31,1.95-3.37a31.7,31.7,0,0,1,1.78-2.9,9.24,9.24,0,0,1,1.94-2,3.57,3.57,0,0,1,2-.77,2.4,2.4,0,0,1,1.3.33,2.07,2.07,0,0,1,.29.19C326.14,229.57,326.17,229.6,326.16,229.6Z"/></g><path class="cls-30" d="M321.86,249.09a2.85,2.85,0,0,0-1.05-.75,2,2,0,0,0-1.34,0,4.6,4.6,0,0,0-.75.36,1.52,1.52,0,0,1-1,.22,1.35,1.35,0,0,1-.82-.6c-.18-.25-.32-.5-.48-.7a1.51,1.51,0,0,0-1.17-.58,2.07,2.07,0,0,0-1.21.38s.05-.13.25-.28a1.69,1.69,0,0,1,1-.32,1.74,1.74,0,0,1,1.38.62c.19.22.34.48.51.7a1.09,1.09,0,0,0,.63.48c.54.09,1-.39,1.59-.55a2.17,2.17,0,0,1,1.51.11C321.7,248.51,321.89,249.1,321.86,249.09Z"/><path class="cls-30" d="M328.45,246.4a3,3,0,0,0-.81-1,2,2,0,0,0-1.28-.41,5.76,5.76,0,0,0-.82.15,1.55,1.55,0,0,1-1-.06,1.36,1.36,0,0,1-.62-.79c-.11-.29-.18-.57-.28-.81a1.56,1.56,0,0,0-1-.87,2.16,2.16,0,0,0-1.27,0s.09-.11.31-.2a1.66,1.66,0,0,1,1,0,1.73,1.73,0,0,1,1.16,1c.12.26.19.55.3.81a1,1,0,0,0,.48.63c.49.24,1.1-.09,1.68-.1a2.17,2.17,0,0,1,1.42.52A1.57,1.57,0,0,1,328.45,246.4Z"/><path class="cls-30" d="M328.79,237.81a3.22,3.22,0,0,0-.81-1,2.08,2.08,0,0,0-1.28-.4,5.87,5.87,0,0,0-.83.15,1.52,1.52,0,0,1-1-.06,1.36,1.36,0,0,1-.62-.79c-.11-.29-.18-.57-.28-.81a1.55,1.55,0,0,0-1-.87,2.13,2.13,0,0,0-1.26,0s.08-.11.31-.2a1.63,1.63,0,0,1,1-.05,1.72,1.72,0,0,1,1.17,1c.12.26.19.55.3.81a1,1,0,0,0,.48.63c.49.24,1.1-.1,1.68-.1a2.21,2.21,0,0,1,1.42.51A1.64,1.64,0,0,1,328.79,237.81Z"/><path class="cls-30" d="M325.6,257.56a3,3,0,0,0-.81-1,2,2,0,0,0-1.28-.41,5.76,5.76,0,0,0-.82.15,1.55,1.55,0,0,1-1-.06,1.36,1.36,0,0,1-.62-.79c-.11-.29-.18-.57-.28-.81a1.56,1.56,0,0,0-1-.87,2.16,2.16,0,0,0-1.27,0s.08-.11.31-.2a1.66,1.66,0,0,1,1-.05,1.73,1.73,0,0,1,1.16,1c.12.26.19.55.3.81a1,1,0,0,0,.48.63c.49.24,1.1-.09,1.68-.1a2.17,2.17,0,0,1,1.42.52A1.57,1.57,0,0,1,325.6,257.56Z"/><circle class="cls-42" cx="267.38" cy="307.75" r="27.76"/><circle class="cls-43" cx="262.96" cy="307.11" r="27.46"/><circle class="cls-44" cx="262.96" cy="307.11" r="27.46"/><path class="cls-10" d="M270.83,333.61a27.64,27.64,0,1,1,18.63-34.37A27.67,27.67,0,0,1,270.83,333.61ZM255.2,281a27.28,27.28,0,1,0,33.91,18.39A27.31,27.31,0,0,0,255.2,281Z"/><path class="cls-16" d="M244.28,320.74l-.78-1.09,4.7-6.82a15.77,15.77,0,1,1,4.94,7.35Zm9.91-3.61.46.42a12.85,12.85,0,1,0-3.44-5.13l.21.6-2.18,4.42Z"/><path class="cls-11" d="M268.52,311.37a2.69,2.69,0,0,0-2.11-.94c-.62.12-1.17.95-1.63,1.33a.56.56,0,0,1-.75,0,10.22,10.22,0,0,1-4.14-5.28.64.64,0,0,1,.25-.83,3.45,3.45,0,0,0,1.2-1.29,3.26,3.26,0,0,0-.06-1.83,4.26,4.26,0,0,0-.89-2.2,1.84,1.84,0,0,0-2-.1,4,4,0,0,0-2,2.82,4.21,4.21,0,0,0-.07,1,8.29,8.29,0,0,0,.5,2.35c.2.58.43,1.14.68,1.69a15.38,15.38,0,0,0,3.46,4.8,13,13,0,0,0,2.4,1.79,5.94,5.94,0,0,0,3,1.11,3.83,3.83,0,0,0,3.22-1.52,1.87,1.87,0,0,0,.34-1C270,312.48,269,311.85,268.52,311.37Z"/><path class="cls-24" d="M243.5,319.65l3.92-7.92a15.76,15.76,0,1,1,4.94,7.36Zm9.91-3.62.47.43a12.83,12.83,0,1,0-3.45-5.13l.22.6-2.19,4.42Z"/><path class="cls-12" d="M267.75,310.28a2.68,2.68,0,0,0-2.12-.94c-.62.12-1.17,1-1.63,1.33a.55.55,0,0,1-.74,0,10.24,10.24,0,0,1-4.15-5.28.65.65,0,0,1,.25-.83,3.45,3.45,0,0,0,1.2-1.29,3.26,3.26,0,0,0-.05-1.83,4.19,4.19,0,0,0-.9-2.2,1.82,1.82,0,0,0-2-.1,4,4,0,0,0-2,2.82,4.22,4.22,0,0,0-.08,1,8,8,0,0,0,.51,2.35,14.54,14.54,0,0,0,.68,1.69,15.38,15.38,0,0,0,3.46,4.8,12.71,12.71,0,0,0,2.4,1.79,5.9,5.9,0,0,0,3,1.11,3.81,3.81,0,0,0,3.22-1.52,1.79,1.79,0,0,0,.34-1C269.17,311.39,268.27,310.76,267.75,310.28Z"/><circle class="cls-45" cx="419.55" cy="55.28" r="31.24"/><circle class="cls-46" cx="414.58" cy="54.56" r="30.9"/><circle class="cls-47" cx="414.58" cy="54.56" r="30.9"/><path class="cls-10" d="M423.43,84.37a31.1,31.1,0,1,1,21-38.66A31.13,31.13,0,0,1,423.43,84.37ZM405.84,25.13A30.69,30.69,0,1,0,444,45.82,30.73,30.73,0,0,0,405.84,25.13Z"/><path class="cls-16" d="M393.55,69.9l-.88-1.23L398,61a17.8,17.8,0,1,1,5.56,8.27Zm11.15-4.07.52.47a14.39,14.39,0,1,0-3.88-5.76l.25.67-2.46,5Z"/><path class="cls-11" d="M420.83,59.36a3,3,0,0,0-2.38-1.06c-.7.13-1.31,1.06-1.84,1.49a.61.61,0,0,1-.83,0,11.49,11.49,0,0,1-4.66-6,.7.7,0,0,1,.27-.93,3.86,3.86,0,0,0,1.36-1.45,3.71,3.71,0,0,0-.06-2.06,4.82,4.82,0,0,0-1-2.48,2,2,0,0,0-2.22-.11A4.47,4.47,0,0,0,407.24,50a5.33,5.33,0,0,0-.09,1.13,9.24,9.24,0,0,0,.57,2.64,18.41,18.41,0,0,0,.77,1.9,17.37,17.37,0,0,0,3.89,5.41,14.36,14.36,0,0,0,2.7,2,6.82,6.82,0,0,0,3.36,1.25,4.3,4.3,0,0,0,3.62-1.71,2.15,2.15,0,0,0,.39-1.17C422.43,60.6,421.42,59.89,420.83,59.36Z"/><path class="cls-24" d="M392.67,68.67l4.42-8.91a17.53,17.53,0,0,1-.5-8.83A17.79,17.79,0,1,1,402.65,68Zm11.15-4.07.53.48a14.41,14.41,0,1,0-3.88-5.77l.25.67-2.47,5Z"/><path class="cls-12" d="M420,58.13a3,3,0,0,0-2.38-1.06c-.7.13-1.32,1.06-1.84,1.5a.64.64,0,0,1-.84,0,11.5,11.5,0,0,1-4.66-5.95.72.72,0,0,1,.28-.93,3.76,3.76,0,0,0,1.35-1.45,3.71,3.71,0,0,0-.06-2.06,4.72,4.72,0,0,0-1-2.47,2,2,0,0,0-2.22-.12,4.48,4.48,0,0,0-2.22,3.17,4.74,4.74,0,0,0-.08,1.13,9,9,0,0,0,.57,2.65,19.29,19.29,0,0,0,.76,1.9,17.52,17.52,0,0,0,3.9,5.4,15.14,15.14,0,0,0,2.69,2,6.78,6.78,0,0,0,3.37,1.24,4.27,4.27,0,0,0,3.62-1.71,2.07,2.07,0,0,0,.38-1.17C421.56,59.37,420.54,58.66,420,58.13Z"/></g></g></svg>